<svg width="175" height="67" viewBox="0 0 175 67" fill="none" xmlns="http://www.w3.org/2000/svg">
<path d="M147.3 40.3847V31.9946H148.608V40.3847H147.3V40.3847Z" fill="white"/>
<path d="M158.118 33.1687H155.356V40.3894H154.034V33.1687H151.262V31.9993H158.118V33.1687Z" fill="white"/>
<path d="M161.802 31.9993L164.093 36.2063L166.408 31.9993H167.848L164.747 37.3851V40.3847H163.439V37.3614L160.362 31.9993H161.802V31.9993Z" fill="white"/>
<path d="M142.859 33.8485C142.779 33.7629 142.666 33.6679 142.52 33.5728C142.374 33.473 142.2 33.3827 142.002 33.2971C141.805 33.2115 141.588 33.1402 141.348 33.0832C141.113 33.0261 140.868 33.0024 140.619 33.0024C140.069 33.0024 139.659 33.107 139.4 33.3066C139.142 33.511 139.01 33.7962 139.01 34.1575C139.01 34.3619 139.052 34.5283 139.132 34.6566C139.212 34.785 139.339 34.8991 139.513 34.9989C139.683 35.0987 139.899 35.1843 140.153 35.2603C140.412 35.3364 140.708 35.4172 141.052 35.5028C141.471 35.6073 141.852 35.7167 142.191 35.845C142.529 35.9686 142.816 36.1255 143.047 36.3061C143.282 36.4868 143.461 36.7102 143.588 36.9716C143.715 37.2331 143.781 37.5563 143.781 37.9318C143.781 38.3549 143.701 38.7209 143.541 39.0299C143.381 39.3342 143.165 39.5861 142.887 39.7762C142.609 39.9711 142.289 40.109 141.922 40.1993C141.555 40.2896 141.165 40.3372 140.746 40.3372C140.116 40.3372 139.509 40.2421 138.921 40.0472C138.332 39.8523 137.801 39.5718 137.325 39.2058L137.923 38.0745C138.022 38.179 138.168 38.2884 138.361 38.4167C138.549 38.5403 138.775 38.6591 139.024 38.7637C139.278 38.8683 139.551 38.9586 139.847 39.0347C140.144 39.1107 140.45 39.1488 140.77 39.1488C141.283 39.1488 141.678 39.0584 141.96 38.8778C142.238 38.6972 142.379 38.431 142.379 38.0745C142.379 37.8605 142.327 37.6847 142.224 37.5421C142.12 37.3994 141.969 37.2759 141.777 37.1713C141.584 37.0667 141.344 36.9669 141.066 36.8813C140.784 36.7957 140.469 36.7054 140.111 36.6103C139.697 36.501 139.339 36.3822 139.033 36.2633C138.728 36.1397 138.474 35.9924 138.271 35.8213C138.069 35.6501 137.914 35.4457 137.81 35.2128C137.707 34.9799 137.655 34.6994 137.655 34.3714C137.655 33.9626 137.735 33.6013 137.89 33.2828C138.045 32.9643 138.257 32.6981 138.525 32.4795C138.793 32.2656 139.109 32.0992 139.476 31.9899C139.843 31.8805 140.238 31.8235 140.666 31.8235C141.226 31.8235 141.744 31.9138 142.219 32.0944C142.694 32.2751 143.108 32.4985 143.466 32.7647L142.868 33.8485H142.859Z" fill="white"/>
<path d="M146.265 17.8622H142.948V26.5565H140.948V17.8622H137.631V16.0748H146.265V17.8622Z" fill="white"/>
<path d="M150.575 16.0796H152.359L156.302 26.5613H154.227L153.262 23.9468H149.639L148.689 26.5613H146.614L150.571 16.0796H150.575ZM152.9 22.5159L151.469 18.3993L149.978 22.5159H152.9V22.5159Z" fill="white"/>
<path d="M165.274 17.8622H161.957V26.5565H159.958V17.8622H156.64V16.0748H165.274V17.8622Z" fill="white"/>
<path d="M174.859 24.7691V26.5565H167.655V16.0748H174.727V17.8622H169.674V20.3863H174.04V22.0406H169.674V24.7691H174.859V24.7691Z" fill="white"/>
<path d="M83.8884 65.4123V60.3497H85.6246C86.0245 60.3497 86.3774 60.4163 86.6786 60.5494C86.9844 60.6825 87.2338 60.8631 87.4361 61.0913C87.6384 61.3195 87.789 61.5857 87.8925 61.8946C87.9913 62.1989 88.0431 62.5269 88.0431 62.8739C88.0431 63.2589 87.9866 63.6059 87.8737 63.9197C87.7608 64.2334 87.6008 64.4949 87.3843 64.7183C87.1726 64.9417 86.9185 65.1128 86.6174 65.2317C86.3163 65.3505 85.9869 65.4123 85.6199 65.4123H83.8837H83.8884ZM87.4032 62.8739C87.4032 62.5887 87.3655 62.3272 87.2855 62.0848C87.2055 61.8424 87.0926 61.638 86.9421 61.4668C86.7868 61.2957 86.6033 61.1626 86.3821 61.0628C86.161 60.9629 85.9116 60.9154 85.6246 60.9154H84.5236V64.8371H85.6246C85.9116 64.8371 86.1657 64.7896 86.3915 64.6898C86.6127 64.5899 86.8009 64.4521 86.9468 64.2762C87.0973 64.1003 87.2055 63.8912 87.2855 63.6535C87.3655 63.4158 87.4032 63.1543 87.4032 62.8739Z" fill="white"/>
<path d="M88.8429 60.9915V60.2072H89.464V60.9915H88.8429ZM88.8429 65.4123V61.6903H89.464V65.4123H88.8429Z" fill="white"/>
<path d="M91.9295 65.4551C91.6802 65.4551 91.4496 65.4028 91.2426 65.2982C91.0308 65.1937 90.852 65.0558 90.7015 64.8799C90.5509 64.704 90.4333 64.5044 90.3533 64.2715C90.2686 64.0433 90.231 63.8056 90.231 63.5584C90.231 63.297 90.2733 63.0498 90.3533 62.8121C90.4333 62.5744 90.5509 62.37 90.7015 62.1941C90.852 62.0183 91.0308 61.8804 91.2426 61.7758C91.4496 61.676 91.6849 61.6237 91.9389 61.6237C92.2495 61.6237 92.5177 61.6998 92.7435 61.8519C92.9694 62.004 93.1576 62.1989 93.3129 62.4318V61.6903H93.8634V65.3695C93.8634 65.6357 93.8116 65.8687 93.7175 66.0731C93.6187 66.2727 93.4823 66.4439 93.3129 66.5817C93.1435 66.7196 92.9459 66.8241 92.7153 66.8954C92.4847 66.9667 92.2448 67 91.986 67C91.5672 67 91.2285 66.9287 90.965 66.7814C90.7062 66.634 90.485 66.4343 90.3109 66.1777L90.6685 65.8592C90.8144 66.0778 91.0026 66.2394 91.2332 66.3535C91.4637 66.4629 91.7131 66.5152 91.9813 66.5152C92.1507 66.5152 92.3107 66.4914 92.4659 66.4439C92.6212 66.3963 92.7529 66.325 92.8659 66.2299C92.9788 66.1349 93.0682 66.016 93.1388 65.8734C93.2046 65.7308 93.2423 65.5644 93.2423 65.3695V64.7135C93.1717 64.8276 93.087 64.9322 92.9929 65.0225C92.8988 65.1128 92.7906 65.1937 92.6777 65.2602C92.5647 65.322 92.4424 65.3743 92.3154 65.4076C92.1883 65.4408 92.0613 65.4551 91.9248 65.4551H91.9295ZM92.1224 64.9417C92.2542 64.9417 92.3812 64.918 92.5036 64.8704C92.6259 64.8229 92.7388 64.7611 92.8423 64.6803C92.9459 64.5995 93.0353 64.5139 93.1011 64.4141C93.1717 64.3142 93.2188 64.2097 93.2423 64.1051V63.0355C93.1905 62.9072 93.1247 62.7931 93.04 62.6838C92.9553 62.5792 92.8659 62.4889 92.7624 62.4081C92.6588 62.3272 92.5459 62.2702 92.4283 62.2274C92.3059 62.1846 92.1883 62.1656 92.066 62.1656C91.8778 62.1656 91.7084 62.2037 91.5625 62.2845C91.4167 62.3653 91.2896 62.4746 91.1861 62.6077C91.0826 62.7408 91.0026 62.8929 90.9461 63.0593C90.8897 63.2257 90.8615 63.3968 90.8615 63.5679C90.8615 63.7533 90.8944 63.9292 90.9603 64.0956C91.0261 64.262 91.1155 64.4093 91.2285 64.5329C91.3414 64.6565 91.4731 64.7563 91.6284 64.8276C91.7837 64.9037 91.9484 64.937 92.1272 64.937L92.1224 64.9417Z" fill="white"/>
<path d="M94.8702 60.9915V60.2072H95.4913V60.9915H94.8702ZM94.8702 65.4123V61.6903H95.4913V65.4123H94.8702Z" fill="white"/>
<path d="M98.3992 65.2317C98.3616 65.2507 98.3098 65.2745 98.2486 65.2982C98.1875 65.322 98.1169 65.3505 98.0416 65.3791C97.9616 65.4028 97.8769 65.4266 97.7875 65.4409C97.6981 65.4551 97.5993 65.4646 97.5005 65.4646C97.2747 65.4646 97.0818 65.4028 96.9171 65.2745C96.7524 65.1509 96.6677 64.9512 96.6677 64.685V62.1846H96.1689V61.6903H96.6677V60.4496H97.2888V61.6903H98.1122V62.1846H97.2888V64.4949C97.2982 64.6327 97.3452 64.7326 97.4252 64.7944C97.5052 64.8562 97.5993 64.8847 97.7075 64.8847C97.8299 64.8847 97.9428 64.8657 98.0416 64.8229C98.1404 64.7801 98.211 64.7516 98.2486 64.7278L98.3992 65.2269V65.2317Z" fill="white"/>
<path d="M99.9237 65.4884C99.7496 65.4884 99.5896 65.4599 99.4343 65.3981C99.2791 65.3363 99.152 65.2555 99.0438 65.1509C98.9356 65.0463 98.8462 64.9227 98.785 64.7849C98.7239 64.647 98.6909 64.4901 98.6909 64.3238C98.6909 64.1574 98.7286 63.9958 98.8038 63.8579C98.8791 63.72 98.9873 63.5965 99.1238 63.4966C99.2602 63.3968 99.4296 63.316 99.6178 63.259C99.8061 63.2019 100.018 63.1734 100.244 63.1734C100.422 63.1734 100.601 63.1924 100.785 63.2209C100.968 63.2542 101.128 63.3017 101.274 63.3588V63.0593C101.274 62.7551 101.189 62.5174 101.02 62.3415C100.851 62.1656 100.611 62.0801 100.3 62.0801C99.9284 62.0801 99.5379 62.2227 99.1285 62.5174L98.9262 62.1086C99.4014 61.7853 99.8766 61.6237 100.357 61.6237C100.836 61.6237 101.218 61.7568 101.491 62.0183C101.763 62.2797 101.895 62.6505 101.895 63.1211V64.6422C101.895 64.7896 101.961 64.8657 102.093 64.8704V65.4123C102.027 65.4218 101.97 65.4313 101.928 65.4313C101.886 65.4313 101.839 65.4361 101.792 65.4361C101.669 65.4361 101.571 65.3981 101.5 65.3268C101.425 65.2555 101.382 65.1651 101.368 65.0606L101.354 64.7991C101.189 65.0225 100.982 65.1937 100.728 65.3077C100.474 65.4266 100.206 65.4836 99.919 65.4836L99.9237 65.4884ZM100.088 65.0178C100.31 65.0178 100.517 64.975 100.705 64.8942C100.893 64.8134 101.039 64.6993 101.138 64.5614C101.227 64.4711 101.274 64.3808 101.274 64.2857V63.7343C100.973 63.6155 100.662 63.5537 100.338 63.5537C100.013 63.5537 99.7731 63.6202 99.5802 63.7533C99.3826 63.8864 99.2885 64.0623 99.2885 64.2715C99.2885 64.376 99.3073 64.4759 99.3496 64.5662C99.3873 64.6565 99.4437 64.7373 99.519 64.8039C99.5896 64.8704 99.679 64.9227 99.7778 64.9607C99.8766 64.9988 99.9849 65.0178 100.098 65.0178H100.088Z" fill="white"/>
<path d="M102.902 60.2071H103.523V64.4474C103.523 64.5852 103.561 64.6945 103.631 64.7706C103.702 64.8514 103.805 64.8894 103.937 64.8894C103.989 64.8894 104.05 64.8799 104.121 64.8657C104.191 64.8466 104.257 64.8276 104.318 64.8039L104.417 65.3125C104.314 65.3553 104.191 65.3933 104.05 65.4171C103.909 65.4456 103.782 65.4599 103.678 65.4599C103.438 65.4599 103.25 65.3886 103.109 65.2507C102.968 65.1128 102.902 64.918 102.902 64.6755V60.2024V60.2071Z" fill="white"/>
<path d="M106.252 62.8454C106.252 62.5412 106.304 62.2369 106.412 61.9375C106.516 61.638 106.671 61.3623 106.878 61.1246C107.085 60.8869 107.334 60.692 107.631 60.5447C107.927 60.3973 108.266 60.326 108.642 60.326C109.089 60.326 109.471 60.4258 109.791 60.6302C110.11 60.8346 110.35 61.1008 110.506 61.4288L110.007 61.7568C109.932 61.5952 109.842 61.4621 109.734 61.3528C109.631 61.2434 109.513 61.1531 109.391 61.0866C109.264 61.02 109.136 60.9725 109.005 60.944C108.873 60.9154 108.746 60.9012 108.619 60.9012C108.341 60.9012 108.097 60.9582 107.88 61.0771C107.664 61.1959 107.485 61.348 107.339 61.5334C107.193 61.7235 107.085 61.9327 107.01 62.1704C106.934 62.4033 106.902 62.641 106.902 62.8787C106.902 63.1449 106.944 63.3968 107.033 63.6392C107.118 63.8769 107.24 64.0908 107.396 64.2762C107.551 64.4616 107.734 64.609 107.946 64.7183C108.158 64.8276 108.388 64.8799 108.638 64.8799C108.769 64.8799 108.906 64.8609 109.042 64.8276C109.179 64.7944 109.315 64.7421 109.442 64.666C109.569 64.59 109.687 64.4996 109.8 64.3903C109.913 64.2762 110.002 64.1431 110.073 63.9863L110.6 64.281C110.52 64.4711 110.407 64.6375 110.266 64.7849C110.125 64.9275 109.96 65.0511 109.776 65.1509C109.593 65.2507 109.405 65.3268 109.202 65.3791C109 65.4313 108.802 65.4599 108.61 65.4599C108.266 65.4599 107.951 65.3838 107.664 65.2317C107.377 65.0796 107.127 64.8799 106.92 64.6375C106.709 64.3951 106.549 64.1146 106.431 63.8056C106.313 63.4919 106.257 63.1781 106.257 62.8549L106.252 62.8454Z" fill="white"/>
<path d="M112.901 65.4884C112.623 65.4884 112.369 65.4361 112.143 65.3315C111.917 65.227 111.72 65.0843 111.56 64.9085C111.395 64.7326 111.273 64.5282 111.183 64.2953C111.094 64.0623 111.047 63.8199 111.047 63.5632C111.047 63.3065 111.094 63.0546 111.183 62.8216C111.277 62.5887 111.404 62.3843 111.564 62.2084C111.729 62.0325 111.922 61.8899 112.152 61.7901C112.378 61.6855 112.632 61.6332 112.905 61.6332C113.178 61.6332 113.428 61.6855 113.658 61.7901C113.889 61.8947 114.086 62.0325 114.246 62.2084C114.406 62.3843 114.533 62.5887 114.627 62.8216C114.722 63.0546 114.764 63.3018 114.764 63.5632C114.764 63.8246 114.717 64.0671 114.627 64.2953C114.538 64.5282 114.411 64.7326 114.246 64.9085C114.082 65.0843 113.884 65.227 113.658 65.3315C113.432 65.4361 113.178 65.4884 112.901 65.4884V65.4884ZM111.677 63.568C111.677 63.7629 111.71 63.9435 111.771 64.1099C111.833 64.2762 111.922 64.4236 112.03 64.5472C112.138 64.6708 112.27 64.7659 112.416 64.8419C112.562 64.9132 112.722 64.9465 112.891 64.9465C113.061 64.9465 113.221 64.9085 113.366 64.8419C113.512 64.7706 113.644 64.6708 113.757 64.5472C113.87 64.4236 113.959 64.2762 114.02 64.1051C114.082 63.9387 114.115 63.7533 114.115 63.5584C114.115 63.3635 114.082 63.1877 114.02 63.0213C113.959 62.8549 113.87 62.7028 113.757 62.5792C113.644 62.4556 113.512 62.3558 113.366 62.2845C113.221 62.2132 113.061 62.1751 112.891 62.1751C112.722 62.1751 112.562 62.2132 112.416 62.2845C112.27 62.3605 112.138 62.4604 112.03 62.584C111.917 62.7123 111.833 62.8597 111.771 63.026C111.705 63.1924 111.677 63.3778 111.677 63.5727V63.568Z" fill="white"/>
<path d="M117.465 62.2417C117.154 62.2512 116.881 62.332 116.641 62.4841C116.406 62.6362 116.237 62.8454 116.138 63.1164V65.4123H115.517V61.6903H116.095V62.5554C116.223 62.2987 116.387 62.0896 116.599 61.9327C116.806 61.7758 117.027 61.6855 117.262 61.6665H117.385C117.418 61.6665 117.446 61.6665 117.469 61.6713V62.2417H117.465Z" fill="white"/>
<path d="M120.067 65.4884C119.761 65.4884 119.493 65.4123 119.257 65.2602C119.027 65.1081 118.839 64.918 118.702 64.685V66.9382H118.081V61.695H118.632V62.3938C118.777 62.1656 118.966 61.9803 119.201 61.8424C119.431 61.7045 119.69 61.6332 119.973 61.6332C120.227 61.6332 120.462 61.6855 120.669 61.7901C120.876 61.8947 121.064 62.0373 121.219 62.2132C121.375 62.3891 121.497 62.5982 121.582 62.8311C121.666 63.0641 121.713 63.3065 121.713 63.5584C121.713 63.8246 121.671 64.0766 121.591 64.3095C121.511 64.5424 121.398 64.7468 121.252 64.9227C121.107 65.0986 120.932 65.2365 120.73 65.3363C120.528 65.4361 120.307 65.4884 120.062 65.4884H120.067ZM119.874 64.9465C120.057 64.9465 120.222 64.9085 120.372 64.8277C120.518 64.7468 120.645 64.647 120.754 64.5139C120.862 64.3808 120.942 64.2335 120.998 64.0671C121.055 63.9007 121.083 63.7296 121.083 63.5537C121.083 63.3683 121.05 63.1924 120.984 63.0213C120.918 62.8502 120.829 62.7028 120.716 62.5792C120.603 62.4556 120.471 62.3558 120.316 62.2797C120.165 62.2084 119.996 62.1704 119.817 62.1704C119.704 62.1704 119.587 62.1942 119.469 62.2369C119.347 62.2845 119.234 62.3415 119.13 62.4176C119.027 62.4936 118.933 62.5792 118.853 62.679C118.777 62.7836 118.726 62.8882 118.702 63.0023V64.0671C118.754 64.1907 118.82 64.3048 118.9 64.4141C118.98 64.5234 119.074 64.6137 119.177 64.6898C119.281 64.7706 119.394 64.8277 119.511 64.8752C119.629 64.9227 119.751 64.9417 119.878 64.9417L119.874 64.9465Z" fill="white"/>
<path d="M123.77 65.4884C123.473 65.4884 123.182 65.4409 122.894 65.3505C122.607 65.2602 122.363 65.1224 122.156 64.9465L122.424 64.5282C122.64 64.6946 122.857 64.8181 123.073 64.9037C123.29 64.9893 123.52 65.0273 123.76 65.0273C124.028 65.0273 124.24 64.975 124.4 64.8657C124.56 64.7563 124.635 64.609 124.635 64.4141C124.635 64.3238 124.617 64.2477 124.574 64.1812C124.532 64.1146 124.471 64.0623 124.386 64.0148C124.301 63.9673 124.193 63.9245 124.061 63.8864C123.93 63.8484 123.774 63.8056 123.6 63.7629C123.379 63.7058 123.186 63.6535 123.031 63.6012C122.871 63.5489 122.739 63.4871 122.636 63.4158C122.532 63.3445 122.457 63.259 122.41 63.1591C122.363 63.0593 122.339 62.9357 122.339 62.7884C122.339 62.603 122.377 62.4366 122.447 62.294C122.518 62.1466 122.622 62.0278 122.749 61.928C122.876 61.8329 123.026 61.7568 123.196 61.7093C123.37 61.6618 123.553 61.6332 123.751 61.6332C124.028 61.6332 124.287 61.676 124.527 61.7711C124.767 61.8614 124.969 61.9803 125.134 62.1276L124.852 62.5031C124.697 62.3653 124.522 62.2607 124.33 62.1942C124.137 62.1229 123.939 62.0896 123.737 62.0896C123.511 62.0896 123.318 62.1371 123.163 62.2369C123.007 62.3368 122.927 62.4889 122.927 62.7028C122.927 62.7884 122.942 62.8597 122.974 62.9167C123.007 62.9738 123.054 63.0213 123.125 63.0641C123.196 63.1069 123.285 63.1449 123.398 63.1782C123.511 63.2114 123.643 63.2495 123.798 63.2827C124.043 63.3398 124.254 63.3968 124.438 63.4586C124.621 63.5204 124.772 63.587 124.889 63.6678C125.012 63.7486 125.101 63.8437 125.158 63.953C125.214 64.0623 125.247 64.1954 125.247 64.3523C125.247 64.6993 125.115 64.975 124.852 65.1794C124.588 65.3838 124.235 65.4884 123.784 65.4884H123.77Z" fill="white"/>
<path d="M86.9326 39.1203C87.3702 39.1203 87.7278 39.0347 88.0195 38.8588C88.3066 38.6877 88.5371 38.4595 88.7159 38.179C88.8947 37.8986 89.017 37.5801 89.0876 37.2236C89.1629 36.8671 89.2005 36.4963 89.2005 36.1207V31.8758H90.518V36.1207C90.518 36.6959 90.4521 37.2331 90.3204 37.7417C90.1886 38.2504 89.9769 38.6924 89.6899 39.0727C89.4029 39.453 89.0312 39.7525 88.5748 39.9759C88.1183 40.1946 87.5725 40.3039 86.9373 40.3039C86.3021 40.3039 85.7187 40.1898 85.2623 39.9569C84.8059 39.724 84.4389 39.415 84.1613 39.0252C83.8837 38.6354 83.6766 38.1886 83.5543 37.6894C83.432 37.1903 83.3661 36.6627 83.3661 36.1207V31.8758H84.6741V36.1207C84.6741 36.5058 84.7118 36.8766 84.7871 37.2331C84.8623 37.5896 84.9847 37.9081 85.1588 38.1886C85.3329 38.469 85.5681 38.6924 85.8598 38.8588C86.1516 39.0299 86.5092 39.1108 86.9373 39.1108L86.9326 39.1203Z" fill="white"/>
<path d="M95.7267 34.3571V40.2516H94.4187V31.8805H95.4444L100.183 37.9176V31.8948H101.5V40.2516H100.413L95.722 34.3571H95.7267Z" fill="white"/>
<path d="M105.118 40.2516V31.8805H106.426V40.2516H105.118Z" fill="white"/>
<path d="M110.572 31.8805L113.07 38.5878L115.554 31.8805H116.942L113.63 40.2516H112.51L109.184 31.8805H110.572Z" fill="white"/>
<path d="M125.388 39.0822V40.2516H119.704V31.8805H125.28V33.0499H121.008V35.4314H124.706V36.5295H121.008V39.0869H125.384L125.388 39.0822Z" fill="white"/>
<path d="M128.494 40.2516V31.8805H132.098C132.47 31.8805 132.818 31.9613 133.128 32.1182C133.444 32.275 133.712 32.4794 133.938 32.7361C134.164 32.9928 134.342 33.2828 134.469 33.6108C134.596 33.9388 134.662 34.2668 134.662 34.6091C134.662 34.8943 134.625 35.1652 134.545 35.4219C134.465 35.6834 134.356 35.921 134.22 36.1397C134.079 36.3584 133.909 36.5485 133.707 36.7101C133.505 36.8718 133.284 36.9906 133.044 37.0714L134.992 40.2563H133.509L131.712 37.3424H129.797V40.2563H128.489L128.494 40.2516ZM129.802 36.173H132.089C132.277 36.173 132.446 36.1302 132.597 36.0494C132.747 35.9686 132.879 35.8545 132.987 35.7071C133.095 35.5598 133.18 35.3934 133.246 35.208C133.307 35.0179 133.34 34.8182 133.34 34.6091C133.34 34.3999 133.302 34.1955 133.227 34.0101C133.152 33.82 133.058 33.6583 132.935 33.5157C132.813 33.3731 132.677 33.2638 132.517 33.1782C132.357 33.0974 132.192 33.0546 132.023 33.0546H129.806V36.1777L129.802 36.173Z" fill="white"/>
<path d="M53.968 33.3209C53.7469 33.3209 53.5634 33.5015 53.5634 33.7249C53.5634 33.9483 53.7469 34.129 53.968 34.129C54.1939 34.129 54.3727 33.9483 54.3727 33.7249C54.3727 33.5015 54.1891 33.3209 53.968 33.3161V33.3209Z" fill="white"/>
<path d="M52.9234 33.6251C52.6976 33.6251 52.5188 33.8057 52.5188 34.0291C52.5188 34.2525 52.6976 34.4332 52.9234 34.4332C53.1446 34.4332 53.3281 34.2525 53.3281 34.0291C53.3281 33.8057 53.1446 33.6251 52.9234 33.6251Z" fill="white"/>
<path d="M51.9166 33.3161C51.6955 33.3161 51.512 33.4967 51.512 33.7202C51.512 33.9436 51.6955 34.1242 51.9166 34.1242C52.1425 34.1242 52.3213 33.9436 52.3213 33.7202C52.3213 33.4967 52.1425 33.3161 51.9166 33.3161Z" fill="white"/>
<path d="M54.5044 32.3654C54.2785 32.3654 54.0997 32.5461 54.0997 32.7695C54.0997 32.9929 54.2832 33.1783 54.5044 33.1783C54.7255 33.1783 54.909 32.9976 54.909 32.7742C54.909 32.5508 54.7255 32.3702 54.5044 32.3702V32.3654Z" fill="white"/>
<path d="M51.7049 32.8027C51.7049 32.5793 51.5214 32.3987 51.3002 32.3987C51.0744 32.3987 50.8909 32.5793 50.8909 32.8027C50.8909 33.0262 51.0744 33.2115 51.2955 33.2115C51.5167 33.2115 51.7002 33.0309 51.7002 32.8075L51.7049 32.8027Z" fill="white"/>
<path d="M55.8454 33.3589C55.6196 33.3589 55.4408 33.5395 55.4408 33.7629C55.4408 33.9864 55.6243 34.1717 55.8454 34.1717C56.0666 34.1717 56.2501 33.9911 56.2501 33.7677C56.2501 33.5443 56.0666 33.3636 55.8454 33.3636V33.3589Z" fill="white"/>
<path d="M55.8454 32.3321C55.6196 32.3321 55.4408 32.5127 55.4408 32.7361C55.4408 32.9596 55.6243 33.145 55.8454 33.145C56.0666 33.145 56.2501 32.9643 56.2501 32.7409C56.2501 32.5175 56.0666 32.3368 55.8454 32.3368V32.3321Z" fill="white"/>
<path d="M55.8454 34.3904C55.6196 34.3904 55.4408 34.571 55.4408 34.7944C55.4408 35.0179 55.6243 35.1985 55.8454 35.1985C56.0666 35.1985 56.2501 35.0179 56.2501 34.7944C56.2501 34.571 56.0666 34.3904 55.8454 34.3904Z" fill="white"/>
<path d="M18.9283 25.1399C18.9283 25.1066 18.9142 25.0734 18.8859 25.0448C18.3919 24.5457 17.8508 23.9325 17.4697 23.3526C17.4461 23.3145 17.4038 23.2908 17.3567 23.2908C17.3238 23.2908 17.2956 23.2908 17.2626 23.2908V26.1334C17.2579 29.9553 17.4932 32.7457 18.1519 35.902C18.1566 35.9258 18.1896 35.9353 18.2037 35.9163L19.5823 34.2763C19.5823 34.2763 19.5917 34.2621 19.587 34.2525C19.0694 31.4717 18.9518 29.4324 18.9518 26.1382L18.9189 25.1447L18.9283 25.1399Z" fill="white"/>
<path d="M59.1108 26.9795L60.56 28.591C60.6024 28.6385 60.6823 28.61 60.6823 28.5482C60.7247 27.4597 60.7859 23.9277 60.8 23.2195C60.8 23.1672 60.7435 23.1386 60.7012 23.1672C60.3859 23.3858 59.3978 24.0656 59.1532 24.1844C59.1202 24.1987 59.1014 24.2272 59.1014 24.2652C59.1014 24.6265 59.1108 26.3188 59.0873 26.9368C59.0873 26.9558 59.092 26.97 59.1061 26.9843L59.1108 26.9795Z" fill="white"/>
<path d="M59.6755 37.5991L58.1039 37.5611C58.1039 37.5611 58.0663 37.5706 58.0616 37.5896C58.0286 37.7037 57.9251 38.103 57.9251 38.1125C56.0289 46.2887 52.1942 51.1991 48.8723 55.0258C44.6376 59.8935 40.3559 62.4509 39.0384 63.1687C39.0102 63.1829 38.9773 63.1829 38.9537 63.1687C37.6363 62.4461 33.3592 59.8839 29.134 55.0068C26.1603 51.5699 23.2713 47.1206 21.2575 40.2088C21.2527 40.1851 21.2292 40.1708 21.201 40.1708C21.0881 40.1803 20.7634 40.2421 20.4293 40.5844C20.067 40.9552 19.9212 41.4163 19.8929 41.5256C19.8929 41.5398 19.8929 41.5589 19.8929 41.5731C22.015 48.4896 24.8663 52.687 27.9012 56.1761C33.1804 62.2512 38.4032 64.8087 38.6244 64.9132L38.949 65.0701C38.9773 65.0844 39.0055 65.0844 39.029 65.0701L39.3537 64.9132C39.5748 64.8087 44.807 62.2607 50.0957 56.1952C53.6857 52.0786 57.7651 47.2014 59.7507 37.6514C59.7601 37.6086 59.7131 37.5706 59.6707 37.5944L59.6755 37.5991Z" fill="white"/>
<path d="M25.8356 8.74956C26.7107 9.10608 27.5765 9.47686 28.4328 9.86665C28.4423 9.87141 28.4564 9.87141 28.4658 9.87141C31.3265 9.42932 34.9919 8.87315 39.0384 8.87791C44.7034 8.88266 47.5454 9.22492 50.792 9.76207C50.8014 9.76207 50.8155 9.76207 50.8249 9.76207L53.1869 8.79709C53.2434 8.77333 53.2387 8.69252 53.1775 8.67825C49.7051 7.83687 45.7951 7.19514 39.0384 7.18563C34.1073 7.18087 29.1763 8.01751 25.8403 8.64023C25.7791 8.64973 25.7697 8.7353 25.8309 8.75907L25.8356 8.74956Z" fill="white"/>
<path d="M26.3391 16.7546C25.9909 17.1016 21.8221 21.1516 13.7197 18.9412C11.9976 18.5752 15.103 20.6953 18.1144 21.3751C22.7443 22.4208 27.4918 20.6905 28.4141 20.2247C28.4141 20.2247 24.9369 23.2337 20.0764 22.996C18.6555 22.8772 18.6319 22.8202 19.2671 23.4571C19.6765 23.8659 20.8293 24.5885 21.5821 24.964C23.6665 26.0098 24.5605 25.9955 25.9815 25.7769C27.4871 25.5487 29.6609 24.0846 30.602 23.8659C30.8184 23.8137 31.3736 23.5522 31.4536 23.5237C31.6418 23.4476 31.7406 23.2385 31.6795 23.0436C31.1384 21.3703 30.2162 17.9097 28.1647 14.6202C26.9178 12.619 22.8102 10.7223 17.0133 8.98246C12.5716 7.6467 7.92289 5.83083 5.82907 4.97043C3.83407 4.14806 4.52103 4.26214 6.35135 4.78028C9.04743 5.54086 12.1858 7.00972 17.1686 8.45005C21.7938 9.79057 27.4777 11.5541 29.2563 14.373C31.5618 18.0285 32.9358 21.028 33.6557 21.7886C34.3756 22.5492 34.0603 22.9723 33.6604 23.3526C33.5521 23.4571 34.4979 23.5997 35.3495 23.2622C35.6601 23.1386 36.0977 22.7536 36.1024 22.264C36.1118 21.4369 35.5707 21.3323 35.039 20.8759C33.9003 20.1106 32.1876 16.9067 30.2914 13.4413C28.2306 9.68599 19.7988 8.49284 9.48502 4.57113C7.14653 3.68221 4.4975 2.75526 2.47897 1.0202C0.145186 -0.981064 -0.522953 0.354694 0.399268 1.6857C0.794505 2.26088 1.10505 2.55085 1.47676 3.13554C1.43441 3.20685 1.39677 3.27815 1.36854 3.35421C1.03918 4.28116 1.92375 5.4648 3.4106 6.21111C3.36355 6.29668 3.3212 6.38224 3.29297 6.47732C3.00125 7.48508 4.12579 8.71626 5.8479 9.32947C5.80555 9.41503 5.77261 9.50535 5.74909 9.60042C5.59381 10.2754 6.06904 11.0075 6.91127 11.5732C7.23122 13.0943 8.91569 13.7456 10.2331 14.1544C14.8866 15.8134 22.5231 14.663 22.8713 14.663C21.8268 15.704 15.9264 17.5532 10.139 15.3475C8.77924 14.8008 10.6002 17.2014 14.6513 18.0143C20.4387 19.1789 25.9956 16.7498 26.3438 16.7498L26.3391 16.7546Z" fill="white"/>
<path d="M75.7625 1.37198C73.744 3.10704 71.0949 4.03399 68.7565 4.92291C58.4474 8.84462 50.0109 10.0425 47.95 13.7931C46.2185 16.9447 44.647 19.8872 43.5224 20.9663V20.952C43.4001 21.0661 43.2825 21.1659 43.1743 21.2372C43.0378 21.3513 42.9014 21.4464 42.7743 21.5367V21.5272C42.6849 21.5557 42.6002 21.5605 42.5249 21.5462C42.0074 21.4274 42.0732 20.6573 41.998 19.6828C41.9838 19.4927 41.7392 19.4214 41.6262 19.5735C41.6121 19.5925 41.5933 19.6163 41.5792 19.64C41.5321 19.7018 41.5086 19.7779 41.5133 19.8539C41.551 20.3055 41.6404 21.9503 41.0193 23.6378C40.5817 24.8309 39.0901 26.0098 37.3492 26.566C36.9728 26.7229 37.034 26.5945 37.3727 26.3901C40.7887 24.3698 40.3276 22.6776 40.3605 20.7571C40.3605 20.7571 40.3747 20.662 40.3088 20.7238C40.0735 21.0709 39.7536 21.4749 38.8502 21.7459C38.8031 21.7601 38.742 21.7459 38.8031 21.6698C38.9819 21.4321 39.3725 20.8142 39.4995 19.7256C39.5842 19.0316 39.1748 18.5752 39.4995 17.8051C39.9088 16.8307 40.4217 17.23 40.3276 16.5835C40.2147 15.8229 38.869 15.4521 37.6362 16.2127C36.4035 16.9733 35.6318 15.5947 37.6551 14.9197C38.7984 14.5394 40.4735 14.8959 41.2687 16.4361C41.3251 16.5407 41.4522 16.5787 41.5557 16.5217C42.2567 16.1271 42.7226 16.7118 42.5061 17.7386C42.9484 17.0778 43.1366 16.1366 42.6332 15.9037C43.2448 15.243 43.4048 14.5299 43.146 13.5554C43.1178 13.4556 43.0237 13.4699 42.9908 13.5364C42.8261 13.8502 42.3697 14.278 42.1532 14.4206C41.5604 14.9292 40.8781 14.6915 40.8405 14.6868C40.8405 14.6868 40.8311 14.6868 40.8264 14.6868C40.7934 14.682 40.7699 14.644 40.817 14.6488C41.0428 14.6678 41.2734 14.6202 41.4522 14.4776C42.3508 13.7693 42.6849 12.9898 41.6592 12.4336C41.2922 12.2339 41.311 12.2815 40.8546 11.7158C39.396 9.89992 35.2178 11.0693 34.8931 13.0706C34.8837 13.1276 34.8555 13.1751 34.8084 13.2084C33.3074 14.3303 33.905 16.5264 34.7755 17.2062C34.8178 17.2395 34.846 17.2822 34.8555 17.3298C35.0531 18.3518 35.6224 20.2295 36.8975 21.3133C38.5914 22.7489 36.8316 23.8137 35.3448 23.9943H35.326C31.0631 24.213 29.0681 25.4632 27.7882 27.7401C27.7882 27.7401 27.7882 27.7401 27.7977 27.7449C24.8051 33.2591 23.9159 32.0279 22.0479 33.6393C21.8738 33.7915 21.7091 33.9436 21.5538 34.0909C21.5162 34.129 21.4786 34.167 21.4409 34.2003C21.2951 34.3476 21.1539 34.4902 21.0222 34.6328L21.008 34.6519C20.8763 34.7945 20.754 34.9371 20.6316 35.0797C20.5987 35.1177 20.5658 35.1557 20.5375 35.1938C19.5541 36.3631 18.8531 37.4232 17.2956 38.1743C17.2439 38.198 17.1827 38.2028 17.131 38.179C15.3571 37.5183 14.9101 38.9871 12.3222 38.8493C12.1528 38.8398 12.0399 39.0252 12.134 39.1678C12.5528 39.7762 13.9032 39.7287 14.3502 39.6051C14.9054 39.453 14.736 39.3769 13.9502 40.6699C13.9502 40.6747 13.7808 41.0502 13.7761 41.0549C12.9198 42.847 11.4329 42.3717 11.3765 43.1465C11.3671 43.2891 11.4518 43.9023 12.4069 43.774C13.2209 43.6647 14.1384 45.1193 16.731 43.3176C17.7285 42.6236 18.312 41.1785 18.9566 40.3134C19.46 39.6336 20.2364 39.106 21.1068 38.6496C21.1163 38.6496 21.1257 38.6401 21.1351 38.6401C25.1392 37.2426 28.2541 34.8943 29.021 34.3524C29.1669 34.2478 29.1951 34.2003 29.2045 34.1527C29.9762 28.8287 38.0221 26.9891 40.9957 26.4614C41.6451 26.3473 42.0968 26.3711 41.3157 26.5803C39.7865 26.9891 36.5917 27.8542 34.3426 29.1995C31.0678 31.158 29.3927 33.6536 30.3526 35.5265C31.0019 36.791 32.2111 37.0286 32.0229 37.7797C31.8959 39.0917 29.388 44.2161 29.4257 45.5091C29.468 46.802 30.3102 47.5483 30.2538 48.8175C30.1926 50.0868 29.2233 51.3465 28.7105 52.3827C29.4398 53.3097 30.0514 54.056 30.7384 54.8166C30.856 54.9497 31.0772 54.8784 31.096 54.7072C31.3548 52.6014 32.2864 47.1728 32.8087 45.2571C33.411 43.0562 34.9025 38.1743 35.006 37.7512C35.2695 36.6769 36.3705 34.5188 35.3966 37.8653C35.2695 38.2979 34.1403 43.5838 33.8109 45.5946C33.4815 47.5769 32.9216 54.7738 32.8934 56.9224C32.8934 56.9795 32.9122 57.0317 32.9546 57.0698C33.4015 57.5119 33.9991 57.992 34.479 58.4055C34.6108 58.5196 34.8178 58.4245 34.8178 58.2487C34.8413 55.4536 35.0107 51.0993 35.2695 47.477C35.6742 41.8678 37.9985 33.9198 38.1679 33.4444C38.3985 32.798 38.6808 32.3511 38.4408 33.6631C38.3561 34.1337 36.7987 42.4763 36.6058 47.9381C36.4693 51.8076 36.9305 55.9194 37.2975 60.6682C37.2975 60.73 37.3351 60.7871 37.3822 60.8204L38.8925 61.9089C38.9584 61.9565 39.0478 61.9612 39.1184 61.9184C39.2925 61.8139 39.6501 61.5952 40.1535 61.2434C38.3091 50.5193 37.7397 41.5873 41.1557 30.9868C41.4804 29.9838 41.8521 29.7652 41.4616 31.0439C38.7137 40.0519 39.443 48.8366 42.1579 59.3515C42.1956 59.4989 42.3697 59.5559 42.4873 59.4608C43.1272 58.957 43.5507 58.705 43.5883 58.5339C43.8895 57.1173 43.8753 54.2747 43.6071 51.413C43.3342 48.4895 42.7978 45.5423 42.0638 44.0735C41.4051 42.752 41.4757 42.3241 42.3744 43.7645C43.3013 45.2476 44.0588 48.0047 44.5482 50.6572C45.0516 53.3762 45.2728 55.9907 45.1175 57.008C45.0375 57.5356 46.5385 55.5914 47.0137 55.0495C47.0466 55.0115 47.0655 54.9592 47.0655 54.9069C47.0137 53.3097 46.6514 51.8979 46.3691 50.1771V50.1628C45.6821 47.13 43.9036 42.7567 43.259 41.7299C43.1272 41.5208 43.0284 41.3449 42.9531 41.1928C42.6049 40.494 42.8402 40.437 43.2684 41.0407C43.3436 41.1453 43.4236 41.2736 43.5083 41.421C44.1247 42.4953 45.7386 44.9291 47.1125 49.2359C47.5078 50.4813 47.8842 51.7267 48.1571 53.1861C48.19 53.3525 48.397 53.4143 48.5147 53.2859C48.9946 52.7583 49.1075 52.6489 49.7145 51.8646C49.7521 51.8171 49.7663 51.7505 49.7521 51.6935C49.5733 50.9472 48.7688 47.5578 47.1549 44.5251C46.5526 43.3937 46.0303 42.2243 45.6586 40.9979C44.6799 37.7845 44.7082 35.3174 46.4444 33.2686C46.6796 33.8247 46.6138 33.7201 47.2819 36.3964C47.5313 37.3947 49.0699 37.3899 49.6204 37.3899C51.159 37.3899 52.0012 38.1648 52.9611 37.9556C53.1634 37.9128 53.3751 37.9556 53.5822 37.9651C54.5562 38.0317 54.8479 37.8177 55.0549 36.8052C55.069 36.7387 55.1208 36.6579 55.1819 36.5723C55.2949 36.6056 55.4266 36.6246 55.5631 36.6246C55.9818 36.6246 56.3253 36.4535 56.363 36.2348C57.3934 36.2396 59.2519 36.2538 59.6048 36.2538C59.6425 36.2538 59.6801 36.2443 59.7084 36.2253L60.4377 35.7785C60.4377 35.7785 60.4518 35.7689 60.4565 35.7689C60.5224 35.7357 60.9223 35.536 60.9223 35.2983L61.0446 32.2608V32.2085L61.1811 31.3624C61.1905 31.3006 61.1717 31.2435 61.134 31.196L58.3203 27.9065C58.278 27.859 58.2168 27.8305 58.1556 27.8352L52.0342 28.0444H50.3497C50.3262 28.0634 50.218 27.7639 50.1521 27.4977C50.0815 27.1982 50.0062 26.7181 49.8651 26.3806C49.7239 26.0431 49.1781 24.8214 47.0796 24.3936C45.3245 24.0371 44.2376 23.3526 44.1718 22.8677C44.2047 22.6633 44.327 22.4304 44.5905 22.1499C45.3104 21.3893 46.6796 18.3898 48.9899 14.7343C50.7685 11.9202 56.4523 10.1519 61.0776 8.81135C66.0604 7.36626 69.1987 5.90215 71.8948 5.14158C73.7252 4.62344 74.4121 4.50935 72.4171 5.33172C70.328 6.19212 65.6746 8.01275 61.2328 9.34375C55.436 11.0836 51.3284 12.9802 50.0815 14.9815C48.0347 18.2662 46.1432 21.0091 45.6021 22.6776C45.541 22.8725 45.6398 23.0816 45.828 23.1577C45.9033 23.1862 46.4632 23.4524 46.6796 23.4999C47.6254 23.7186 50.0392 25.4204 51.5448 25.6533C52.9658 25.872 53.8598 25.8815 55.9442 24.8404C56.697 24.4649 57.8498 23.7424 58.2591 23.3336C58.8944 22.6966 58.8708 22.7536 57.4499 22.8725C52.5894 23.1101 49.8368 20.586 49.8368 20.586C50.7638 21.0471 55.5113 22.7821 60.1365 21.7364C63.1479 21.0566 66.2533 18.9317 64.5312 19.3025C56.4335 21.5129 52.26 17.4629 51.9118 17.1159C52.26 17.1159 57.8169 19.5402 63.6043 18.3803C67.6554 17.5675 69.4764 15.1669 68.1166 15.7136C62.3339 17.9192 56.4288 16.0701 55.3843 15.029C55.7325 15.029 63.369 16.1794 68.0225 14.5204C69.3399 14.1116 71.0244 13.4604 71.3443 11.9392C72.1866 11.3735 72.6571 10.6415 72.5065 9.96647C72.483 9.8714 72.45 9.78108 72.4077 9.69552C74.1345 9.07755 75.2591 7.85112 74.9626 6.84336C74.9344 6.74829 74.8968 6.66273 74.845 6.57716C76.3271 5.83085 77.2117 4.64721 76.8871 3.72026C76.8588 3.6442 76.8212 3.57289 76.7788 3.50159C77.1458 2.9169 77.4564 2.62218 77.8563 2.05175C78.7785 0.720741 78.1057 -0.615017 75.7719 1.391L75.7625 1.37198ZM35.8812 15.685C35.8294 15.937 35.8388 16.1842 35.8953 16.4218V16.4314C35.8953 16.4504 35.8671 16.4551 35.853 16.4361C35.5659 16.1414 35.3824 15.7516 35.3589 15.3285C35.3589 15.2572 35.3589 15.1859 35.3589 15.1146C35.3636 15.0433 35.373 14.972 35.3871 14.8959C35.3966 14.8484 35.406 14.8056 35.4201 14.7628C35.4342 14.7201 35.4483 14.6773 35.4624 14.6345C35.6177 14.2162 35.9282 13.8882 36.3094 13.7028H36.3141C36.4693 13.6267 36.634 13.5744 36.8081 13.5459C36.9869 13.5174 37.1798 13.5031 37.2786 13.4984C37.481 13.4936 37.6739 13.4936 37.8574 13.4841C38.3561 13.4699 38.7984 13.4081 39.1937 13.0373C39.2313 13.004 39.2642 12.966 39.3019 12.928C39.3254 12.8994 39.3489 12.8709 39.363 12.8424C39.363 12.8376 39.3677 12.8281 39.3725 12.8234C39.3819 12.7996 39.396 12.7806 39.4007 12.7568C39.4007 12.7473 39.4007 12.7378 39.4054 12.7283C39.4101 12.7093 39.4148 12.6855 39.4195 12.6665C39.4195 12.657 39.4195 12.6427 39.4195 12.6332C39.4195 12.6142 39.4195 12.5952 39.4195 12.5762C39.4195 12.5619 39.4195 12.5524 39.4148 12.5382C39.4148 12.5191 39.4148 12.5001 39.4054 12.4811C39.4054 12.4669 39.4007 12.4574 39.396 12.4431C39.396 12.4241 39.3866 12.4051 39.3819 12.3908C39.3819 12.3765 39.3725 12.367 39.3677 12.3528C39.363 12.3338 39.3536 12.3195 39.3489 12.3005C39.3442 12.2862 39.3348 12.2767 39.3301 12.2625C39.3207 12.2434 39.316 12.2292 39.3066 12.2102C39.3019 12.1959 39.2925 12.1816 39.2831 12.1721C39.2736 12.1579 39.2689 12.1389 39.2595 12.1246C39.2501 12.1056 39.2407 12.0913 39.2313 12.0723C39.2266 12.0628 39.2172 12.0485 39.2125 12.039C39.2031 12.02 39.1889 12.001 39.1795 11.982L39.156 11.9392C39.156 11.9392 39.1325 11.9012 39.1231 11.8822C39.1184 11.8727 39.109 11.8632 39.1043 11.8489C39.0948 11.8346 39.0901 11.8251 39.0807 11.8109C39.076 11.8014 39.0713 11.7918 39.0666 11.7823C39.0619 11.7728 39.0525 11.7586 39.0478 11.7491C39.0478 11.7396 39.0384 11.7301 39.0384 11.7253C39.0384 11.7158 39.029 11.7063 39.0243 11.6968C39.0243 11.6873 39.0243 11.6825 39.0196 11.673C39.0196 11.6635 39.0149 11.654 39.0149 11.6492C39.0149 11.616 39.029 11.6112 39.0572 11.616H39.0713C39.0713 11.616 39.1137 11.6397 39.1372 11.6492C39.1607 11.6587 39.1795 11.6683 39.2031 11.6778C39.2266 11.6873 39.2454 11.7015 39.2689 11.711C39.2925 11.7205 39.3113 11.7348 39.3348 11.7443C39.3583 11.7586 39.3772 11.7728 39.4007 11.7871C39.4195 11.8014 39.443 11.8156 39.4619 11.8299C39.4807 11.8441 39.5042 11.8632 39.523 11.8774C39.5418 11.8917 39.5607 11.9059 39.5842 11.9202C39.603 11.9345 39.6218 11.9535 39.6407 11.9725C39.6595 11.9867 39.6783 12.0058 39.6971 12.02C39.7159 12.039 39.7301 12.058 39.7489 12.0723C39.7677 12.0913 39.7818 12.1056 39.8006 12.1246C39.8194 12.1436 39.8336 12.1626 39.8477 12.1816C39.8618 12.2007 39.8806 12.2197 39.8947 12.2387C39.9088 12.2577 39.923 12.2815 39.9371 12.3005C39.9512 12.3195 39.9653 12.3385 39.9747 12.3575C39.9888 12.3765 39.9982 12.4003 40.0077 12.4241C40.0171 12.4431 40.0312 12.4621 40.0406 12.4811C40.05 12.5049 40.0594 12.5239 40.0688 12.5477C40.0782 12.5667 40.0876 12.5857 40.0923 12.6047C40.1018 12.6285 40.1065 12.6475 40.1112 12.6713C40.1159 12.6903 40.1253 12.7093 40.1253 12.7283C40.1253 12.7521 40.13 12.7711 40.1347 12.7949C40.1347 12.8139 40.1394 12.8329 40.1441 12.8519C40.1441 12.8757 40.1441 12.8947 40.1441 12.9184C40.1441 12.9375 40.1441 12.9565 40.1441 12.9755C40.1441 12.9993 40.1347 13.0183 40.13 13.042C40.13 13.0611 40.1253 13.0753 40.1206 13.0943C40.1159 13.1133 40.1018 13.1371 40.0923 13.1561C40.0829 13.1704 40.0782 13.1894 40.0735 13.2084C40.0594 13.2322 40.0453 13.2512 40.0312 13.2702C40.0218 13.2845 40.0124 13.2987 40.0029 13.313C39.8571 13.4889 39.6689 13.6267 39.443 13.7408C39.3536 13.7884 39.2595 13.8264 39.1654 13.8644C38.3891 14.1734 37.3774 14.2922 36.6764 14.682C36.6011 14.7248 36.5305 14.7676 36.4646 14.8151C36.4458 14.8294 36.427 14.8437 36.4082 14.8579C36.1494 15.0576 35.9612 15.3238 35.8906 15.6803L35.8812 15.685ZM37.3351 18.8224C37.2269 18.8319 37.1375 18.7463 37.1422 18.6418L37.1328 17.0255C37.1281 16.8924 37.2363 16.9638 37.2551 17.0255L38.0315 18.6085C38.0456 18.6513 37.9797 18.7606 37.9327 18.7606L37.3398 18.8272L37.3351 18.8224ZM16.2887 42.7852C16.0017 43.1037 15.0701 43.7122 14.4631 43.736C13.8514 43.7597 13.2539 43.5173 13.4138 43.118C13.5738 42.7187 14.5243 42.9136 15.0983 42.6997C15.9452 42.3859 17.9826 40.9076 16.2887 42.7805V42.7852ZM17.3239 40.0852C16.9616 40.1755 16.8533 39.5433 15.9264 39.2438C15.6912 39.1678 15.1924 39.3341 15.0795 39.1583C14.9666 38.9824 15.3994 38.7922 15.3994 38.7922C15.3994 38.7922 16.1711 38.488 16.5052 38.5023C16.8392 38.5165 17.4697 38.7494 17.625 38.9824C17.9685 39.491 17.6862 39.9949 17.3239 40.0852V40.0852ZM26.0191 33.6916V33.7011C26.005 33.7867 25.9579 33.877 25.8732 33.9768C25.8309 34.0244 25.7838 34.0719 25.7368 34.1195L25.7038 34.1527C25.6568 34.2003 25.6097 34.2478 25.558 34.2953C25.5062 34.3476 25.4498 34.3952 25.3886 34.4474L25.3556 34.476C25.2992 34.5235 25.238 34.5758 25.1816 34.6233C25.1204 34.6756 25.0545 34.7232 24.9886 34.7754L24.951 34.804C24.8898 34.8515 24.824 34.899 24.7581 34.9466C24.6922 34.9989 24.6216 35.0464 24.5511 35.0939L24.5134 35.1225C24.4475 35.17 24.377 35.2175 24.3111 35.2603C24.2405 35.3126 24.1699 35.3601 24.0994 35.4029L24.0617 35.4267C23.9958 35.4695 23.9253 35.5123 23.8594 35.5598H23.85C23.7794 35.6121 23.7088 35.6549 23.6382 35.6976L23.5959 35.7214C23.53 35.7642 23.4642 35.8022 23.3983 35.8403L23.3842 35.8498C23.3136 35.8925 23.243 35.9306 23.1771 35.9734L23.1395 35.9971C23.0736 36.0351 23.0125 36.0732 22.9513 36.1065H22.9419C22.876 36.1492 22.8101 36.1873 22.7443 36.2253L22.7113 36.2443C22.6502 36.2776 22.5937 36.3109 22.5372 36.3441H22.5278C22.4667 36.3822 22.4055 36.4154 22.349 36.444L22.3255 36.4582C22.2173 36.5153 22.1185 36.5723 22.0244 36.6198H22.0197C21.982 36.6436 21.9444 36.6626 21.9067 36.6816L21.8785 36.6959C21.8503 36.7102 21.822 36.7244 21.7985 36.7387L21.7703 36.7529C21.7421 36.7672 21.7185 36.7815 21.695 36.791H21.6809L21.6715 36.8005H21.6621C21.6621 36.8005 21.6056 36.8338 21.5538 36.8575L21.5162 36.8765C21.1257 37.0762 20.1564 37.5753 19.6671 37.813L19.6435 37.8225L19.6059 37.8415L19.5777 37.8558L19.5494 37.87L19.5118 37.889L19.4883 37.9033L19.46 37.9176H19.4459L19.4271 37.9318H19.4177L19.3989 37.9413H19.38V37.9461C19.4788 37.8273 19.573 37.7132 19.6671 37.6038C22.4431 34.3334 24.4852 33.511 24.7204 33.4207H24.7393V33.4112C25.445 33.1355 26.0614 33.3304 26.0191 33.7011V33.6916ZM37.034 25.4537C37.034 25.4537 37.034 25.4632 37.034 25.4727C37.034 25.4917 37.0293 25.5107 37.0246 25.5345C37.0246 25.5345 37.0104 25.5773 37.001 25.5963L36.9916 25.6153C36.9916 25.6153 36.9728 25.6486 36.9634 25.6676C36.9634 25.6723 36.954 25.6818 36.9493 25.6866C36.9352 25.7104 36.921 25.7341 36.9022 25.7579C36.8834 25.7817 36.8646 25.8102 36.8411 25.8339C36.8363 25.8435 36.8269 25.8482 36.8222 25.8577C36.8034 25.8767 36.7846 25.8957 36.7658 25.9148C36.7564 25.9243 36.7517 25.929 36.7422 25.9385C36.714 25.967 36.6858 25.9956 36.6528 26.0241C36.6199 26.0526 36.587 26.0859 36.5493 26.1144C36.5399 26.1239 36.5258 26.1334 36.5164 26.1429C36.4882 26.1667 36.4599 26.1905 36.4317 26.2095C36.4176 26.219 36.4082 26.2285 36.3941 26.238C36.3517 26.2713 36.3094 26.3046 36.267 26.3378C36.22 26.3759 36.1729 26.4091 36.1259 26.4424C36.1117 26.4519 36.0929 26.4662 36.0788 26.4757C36.0412 26.5042 36.0035 26.528 35.9612 26.5565C35.9424 26.566 35.9282 26.5803 35.9094 26.5898C35.853 26.6278 35.7965 26.6611 35.74 26.6991H35.7306C35.6695 26.7419 35.6083 26.7847 35.5424 26.8227C35.5236 26.837 35.5001 26.8465 35.4813 26.8607C35.4295 26.8892 35.3824 26.9225 35.3307 26.951C35.3072 26.9653 35.2883 26.9748 35.2648 26.9891C35.1942 27.0319 35.119 27.0746 35.0437 27.1174H35.039C34.9637 27.165 34.8837 27.2125 34.799 27.2553C34.7755 27.2695 34.7472 27.2838 34.7237 27.2981C34.6625 27.3313 34.6014 27.3694 34.5355 27.4026C34.5073 27.4169 34.479 27.4312 34.4508 27.4502C34.3614 27.4977 34.272 27.55 34.1779 27.5975H34.1732C34.0791 27.6498 33.9803 27.7021 33.8815 27.7544C33.8485 27.7687 33.8203 27.7877 33.7874 27.8019C33.7121 27.84 33.6368 27.8827 33.5615 27.9208C33.5286 27.9398 33.4957 27.954 33.4627 27.9731C33.3592 28.0254 33.251 28.0824 33.1381 28.1394H33.1286C33.091 28.1632 33.0534 28.1822 33.0204 28.1965C33.011 28.2012 33.0016 28.206 32.9875 28.2107C32.964 28.2202 32.9451 28.2298 32.9216 28.2393C32.9122 28.244 32.8981 28.2488 32.8887 28.2535C32.8699 28.263 32.8557 28.2678 32.8369 28.2725L32.8087 28.282C32.8087 28.282 32.7805 28.2916 32.7711 28.2963L32.7475 28.3058C32.7475 28.3058 32.724 28.3106 32.7146 28.3153C32.7099 28.3153 32.7005 28.3153 32.6958 28.3153C32.6864 28.3153 32.6769 28.3153 32.6722 28.3153C32.6722 28.3153 32.6628 28.3153 32.6581 28.3153C32.6487 28.3153 32.644 28.3153 32.6393 28.3153H32.6299C32.6299 28.3153 32.6111 28.2963 32.6111 28.282C32.6111 28.282 32.6111 28.2773 32.6111 28.2725C32.6111 28.2678 32.6111 28.263 32.6111 28.2583C32.6111 28.2583 32.6111 28.2488 32.6158 28.244C32.6158 28.2393 32.6158 28.2345 32.6205 28.225C32.6205 28.2202 32.6252 28.2107 32.6299 28.206C32.6299 28.2012 32.6346 28.1965 32.6393 28.1917C32.6393 28.1822 32.6487 28.1727 32.6534 28.1632L32.6628 28.1489C32.6628 28.1489 32.6769 28.1252 32.6864 28.1157L32.6958 28.1014C32.6958 28.1014 32.7146 28.0729 32.724 28.0586L32.7334 28.0491C32.7334 28.0491 32.7569 28.0158 32.7711 27.9968C33.1334 27.5167 33.9615 26.6468 33.9191 26.219C33.9191 26.2095 33.9191 26.1952 33.9144 26.1857C33.905 26.1477 33.8956 26.1192 33.8721 26.0954L33.8627 26.0859C33.8627 26.0859 33.8203 26.0431 33.7874 26.0288L33.7686 26.0193C33.7686 26.0193 33.7497 26.0098 33.7403 26.0051C33.7309 26.0051 33.7262 26.0003 33.7168 25.9956C33.698 25.9908 33.6839 25.9861 33.665 25.9813C33.6556 25.9813 33.6462 25.9813 33.6321 25.9766C33.618 25.9766 33.6086 25.9766 33.5945 25.9718C33.5803 25.9718 33.5662 25.9718 33.5521 25.9718C33.538 25.9718 33.5192 25.9718 33.5051 25.9718C33.4862 25.9718 33.4627 25.9718 33.4392 25.9718C33.4251 25.9718 33.411 25.9718 33.3968 25.9718C33.378 25.9718 33.3592 25.9718 33.3357 25.9718C33.3216 25.9718 33.3074 25.9718 33.2933 25.9718C33.2604 25.9718 33.2275 25.9766 33.1898 25.9813C33.1757 25.9813 33.1616 25.9813 33.1475 25.9861C33.1192 25.9861 33.091 25.9956 33.0628 26.0003C33.0487 26.0003 33.0298 26.0051 33.0157 26.0098C32.9734 26.0193 32.931 26.0241 32.884 26.0336L32.851 26.0431C32.8134 26.0526 32.7711 26.0621 32.7334 26.0716L32.6817 26.0859C32.6346 26.0954 32.5876 26.1097 32.5405 26.1239H32.517C32.4605 26.1477 32.3993 26.1619 32.3382 26.181C32.3194 26.1857 32.3005 26.1905 32.2817 26.2C32.23 26.2142 32.1782 26.2332 32.1217 26.2475L32.0747 26.2618C32.0088 26.2855 31.9382 26.3046 31.8629 26.3283L31.8065 26.3473C31.7453 26.3663 31.6841 26.3901 31.623 26.4091L31.5618 26.4329C31.4818 26.4614 31.4018 26.4899 31.3171 26.5232L31.2748 26.5375C31.1995 26.566 31.1242 26.5945 31.0489 26.623L30.9737 26.6516C30.8796 26.6848 30.7855 26.7229 30.6866 26.7609C30.5925 26.7989 30.5031 26.837 30.4137 26.875C30.2679 26.9415 30.1314 27.0128 30.0044 27.0889C29.8821 27.1602 29.7691 27.2315 29.6609 27.3028C29.4209 27.4644 29.2139 27.6308 29.0445 27.7829L29.0163 27.8067C28.9269 27.8875 28.8469 27.9636 28.781 28.0349C28.5693 28.2488 28.4658 28.3961 28.4705 28.3819C29.1575 25.8862 33.9756 24.0941 36.5258 24.964C36.7658 25.0449 36.9305 25.1447 37.001 25.273C37.0104 25.292 37.0199 25.3111 37.0246 25.3301C37.0293 25.3491 37.034 25.3633 37.034 25.3824V25.3966C37.034 25.3966 37.034 25.4251 37.034 25.4394V25.4537ZM34.2108 32.0802C32.564 34.0244 32.6346 36.8005 31.7594 35.864C30.5361 34.5568 30.8466 33.6488 32.1641 32.0802C34.479 29.3231 41.2169 27.0556 41.6074 27.3218C41.6074 27.3218 36.9963 28.8002 34.2155 32.0802H34.2108ZM57.511 32.4414V35.3982H55.0126C54.8996 35.3982 54.8055 35.3031 54.8055 35.189V34.9038C54.8055 34.4142 54.4762 34.3286 54.2597 34.5568C54.3115 34.6328 54.3444 35.0369 54.3444 35.1938V36.6151C54.3444 37.0572 53.521 37.1522 53.521 36.558L53.6386 35.3934H53.4787V34.9038C53.4787 34.4142 53.1493 34.3286 52.9329 34.5568C52.9846 34.6328 53.0128 34.7469 53.0176 34.9038V36.6151C53.0176 37.0572 52.1941 37.1522 52.1941 36.558L52.2977 35.6216C52.3118 35.498 52.213 35.3934 52.0906 35.3934H51.6295C51.6295 35.3934 51.6295 35.4505 51.6295 35.479V36.463C51.6295 36.8147 50.9708 36.8908 50.9708 36.4154L51.0884 35.4742C51.0931 35.4505 51.0978 35.4124 51.1072 35.3887H48.5288C48.4159 35.3887 48.3218 35.2936 48.3218 35.1795V32.4272C48.3218 32.3131 48.4159 32.218 48.5335 32.218L57.3087 32.2275C57.4216 32.2275 57.5157 32.3226 57.5157 32.4367L57.511 32.4414ZM51.3001 31.0344C51.3001 31.0344 51.3425 31.0676 51.3566 31.0914C51.6389 31.5097 51.1825 31.9661 50.7685 31.6761C50.7496 31.6618 50.7308 31.6428 50.7167 31.6238C50.4438 31.215 50.8814 30.7729 51.3001 31.0391V31.0344ZM55.0549 31.0391C55.0549 31.0391 55.0972 31.0724 55.1114 31.0962C55.3937 31.5145 54.9373 31.9661 54.5232 31.6809C54.5044 31.6666 54.4856 31.6476 54.4715 31.6238C54.1986 31.2103 54.6408 30.7682 55.0549 31.0391ZM55.5207 31.1057C55.5207 31.1057 55.5537 31.0676 55.5725 31.0534C55.8971 30.8205 56.25 31.0534 56.25 31.3624C56.25 31.5858 56.0665 31.7712 55.8454 31.7664C55.5395 31.7664 55.3137 31.4242 55.5207 31.1057ZM48.1665 29.1472C48.1853 29.0521 48.27 28.9808 48.3641 28.9808L57.1911 28.8382C57.3181 28.8382 57.4169 28.9475 57.3981 29.0711L57.2428 30.2643L47.9312 30.3023L48.1618 29.1472H48.1665ZM42.7461 28.0111C42.0074 28.2725 41.7015 28.0396 42.2332 27.8542C43.3154 27.4739 43.8095 26.7086 43.5883 26.0811C43.3672 25.4537 42.5155 25.2017 41.4333 25.582C40.9016 25.7674 41.0428 25.3729 41.7815 25.1162C43.0472 24.6693 44.407 24.7882 44.6799 25.601C45.0422 26.6896 44.0165 27.569 42.7508 28.0158L42.7461 28.0111Z" fill="white"/>
<path d="M91.6944 23.8565C91.6944 24.2985 91.605 24.6883 91.4309 25.0211C91.2568 25.3538 91.0121 25.6343 90.7063 25.8625C90.4005 26.0906 90.0429 26.2618 89.6382 26.3806C89.2336 26.4994 88.8007 26.5565 88.3443 26.5565H83.3333V16.0748H88.8854C89.2477 16.0748 89.5724 16.1556 89.8641 16.3125C90.1558 16.4694 90.4052 16.6738 90.6075 16.9257C90.8098 17.1777 90.9698 17.4629 91.0827 17.7814C91.1957 18.0999 91.2521 18.4231 91.2521 18.7463C91.2521 19.2597 91.1251 19.7398 90.871 20.1867C90.6169 20.6335 90.2499 20.9663 89.7606 21.1849C90.3534 21.3608 90.8239 21.6793 91.1721 22.1357C91.5156 22.592 91.6897 23.1672 91.6897 23.8565H91.6944ZM85.3518 17.8194V20.4624H88.0385C88.3772 20.4624 88.669 20.3436 88.9089 20.1059C89.1489 19.8682 89.2665 19.5449 89.2665 19.1314C89.2665 18.7178 89.1583 18.4088 88.9372 18.1712C88.716 17.9335 88.4478 17.8146 88.1279 17.8146H85.3518V17.8194ZM89.6618 23.4714C89.6618 23.286 89.6288 23.1054 89.5676 22.9343C89.5018 22.7631 89.4171 22.611 89.3136 22.4827C89.2054 22.3543 89.0783 22.2545 88.9324 22.1784C88.7866 22.1024 88.6266 22.0691 88.4525 22.0691H85.3565V24.8309H88.3537C88.5372 24.8309 88.7113 24.7977 88.8713 24.7264C89.0313 24.6598 89.1724 24.56 89.29 24.4364C89.4077 24.3128 89.4971 24.1702 89.5676 23.9991C89.6335 23.8327 89.6712 23.6568 89.6712 23.4667L89.6618 23.4714Z" fill="white"/>
<path d="M97.1007 16.0796H98.884L102.827 26.5613H100.752L99.7874 23.9468H96.1644L95.2139 26.5613H93.1389L97.096 16.0796H97.1007ZM99.4251 22.5159L97.9947 18.3993L96.5031 22.5159H99.4251V22.5159Z" fill="white"/>
<path d="M105.062 26.5565V16.0748H107.08V24.7691H112.369V26.5565H105.062Z" fill="white"/>
<path d="M114.693 26.5565V16.0748H116.712V24.7691H122.001V26.5565H114.693V26.5565Z" fill="white"/>
<path d="M134.709 18.8224C134.643 18.7558 134.516 18.6608 134.338 18.5419C134.159 18.4231 133.938 18.309 133.679 18.1949C133.42 18.0808 133.142 17.9858 132.837 17.905C132.535 17.8241 132.23 17.7861 131.914 17.7861C131.359 17.7861 130.945 17.8907 130.672 18.0951C130.399 18.2995 130.263 18.5942 130.263 18.965C130.263 19.1837 130.315 19.3596 130.418 19.5022C130.522 19.6448 130.668 19.7684 130.865 19.8777C131.058 19.987 131.307 20.0821 131.604 20.1724C131.9 20.2627 132.244 20.3531 132.634 20.4529C133.142 20.5907 133.599 20.7381 134.013 20.895C134.427 21.0518 134.775 21.2515 135.067 21.4844C135.354 21.7221 135.575 22.0025 135.73 22.3353C135.886 22.6633 135.966 23.0721 135.966 23.5522C135.966 24.1131 135.862 24.5933 135.65 24.9926C135.439 25.3919 135.156 25.7151 134.803 25.9575C134.446 26.2047 134.036 26.3854 133.575 26.4947C133.114 26.6088 132.63 26.6658 132.121 26.6658C131.34 26.6658 130.573 26.547 129.811 26.3093C129.054 26.0716 128.371 25.7389 127.764 25.3063L128.654 23.5475C128.743 23.6378 128.898 23.7519 129.129 23.8945C129.359 24.0371 129.628 24.1797 129.938 24.3223C130.249 24.4649 130.597 24.5837 130.973 24.6836C131.354 24.7834 131.745 24.8309 132.14 24.8309C133.251 24.8309 133.806 24.4697 133.806 23.7519C133.806 23.5237 133.745 23.3336 133.618 23.1767C133.491 23.0198 133.312 22.882 133.077 22.7631C132.841 22.6443 132.559 22.5349 132.23 22.4399C131.9 22.3401 131.529 22.2355 131.119 22.1166C130.62 21.9788 130.192 21.8267 129.825 21.665C129.458 21.5034 129.157 21.3085 128.912 21.0899C128.668 20.8664 128.484 20.6145 128.367 20.3198C128.244 20.0298 128.183 19.6828 128.183 19.2787C128.183 18.7463 128.282 18.2757 128.475 17.8622C128.668 17.4486 128.941 17.1064 129.284 16.8306C129.628 16.5549 130.032 16.3458 130.489 16.2032C130.945 16.0606 131.439 15.9893 131.966 15.9893C132.695 15.9893 133.368 16.1033 133.98 16.3363C134.592 16.5692 135.128 16.8402 135.589 17.1539L134.7 18.8081L134.709 18.8224Z" fill="white"/>
<path d="M83.879 56.5992V50.8616H84.9847V56.5992H83.879Z" fill="white"/>
<path d="M89.9958 56.5992H88.923V54.2224C88.923 53.8849 88.8665 53.633 88.7489 53.4809C88.6312 53.324 88.4666 53.248 88.2595 53.248C88.1513 53.248 88.0431 53.267 87.9302 53.3145C87.8173 53.3573 87.7137 53.4191 87.6149 53.4951C87.5161 53.5712 87.4267 53.6663 87.3467 53.7756C87.2667 53.8849 87.2103 54.0038 87.1726 54.1321V56.604H86.0999V52.3685H87.0691V53.1529C87.2244 52.8819 87.4455 52.6728 87.742 52.5207C88.0337 52.3685 88.3678 52.2925 88.7348 52.2925C88.9936 52.2925 89.21 52.34 89.3747 52.4398C89.5394 52.5349 89.6664 52.6633 89.7605 52.8201C89.8499 52.977 89.9158 53.1529 89.9487 53.3525C89.9816 53.5522 90.0005 53.7518 90.0005 53.961V56.604L89.9958 56.5992Z" fill="white"/>
<path d="M91.1909 56.5992V53.4143H90.6404V52.5919H91.1909V52.3352C91.1909 51.8076 91.3179 51.3893 91.5673 51.0803C91.8167 50.7713 92.1602 50.6192 92.593 50.6192C92.9318 50.6192 93.28 50.7048 93.6235 50.8711L93.407 51.6888C93.3271 51.646 93.2329 51.6079 93.1247 51.5794C93.0165 51.5509 92.9177 51.5366 92.8236 51.5366C92.4519 51.5366 92.2637 51.7886 92.2637 52.2972V52.5967H93.2894V53.4191H92.2637V56.604H91.1909V56.5992Z" fill="white"/>
<path d="M95.6608 56.68C95.322 56.68 95.0115 56.6229 94.7386 56.5041C94.4657 56.3853 94.2351 56.2236 94.0469 56.024C93.8587 55.8243 93.7128 55.5867 93.6093 55.3252C93.5058 55.059 93.4587 54.7833 93.4587 54.4933C93.4587 54.2034 93.5105 53.9182 93.6093 53.652C93.7081 53.3905 93.854 53.1528 94.0469 52.9532C94.2351 52.7535 94.4657 52.5919 94.7386 52.4731C95.0115 52.3542 95.3173 52.2972 95.6608 52.2972C96.0043 52.2972 96.3054 52.3542 96.5783 52.4731C96.8465 52.5919 97.077 52.7535 97.2653 52.9532C97.4535 53.1528 97.5993 53.3905 97.7028 53.652C97.8063 53.9182 97.8534 54.1939 97.8534 54.4933C97.8534 54.7928 97.8016 55.0638 97.7028 55.3252C97.604 55.5867 97.4582 55.8196 97.27 56.024C97.0817 56.2284 96.8559 56.3853 96.583 56.5041C96.3101 56.6229 96.0043 56.68 95.6608 56.68ZM94.5645 54.4886C94.5645 54.6787 94.5927 54.8499 94.6492 55.002C94.7056 55.1541 94.7809 55.2872 94.8797 55.4013C94.9785 55.5154 95.0961 55.6009 95.2279 55.6627C95.3596 55.7245 95.5055 55.7578 95.6608 55.7578C95.816 55.7578 95.9572 55.7245 96.0937 55.6627C96.2254 55.6009 96.343 55.5154 96.4418 55.4013C96.5406 55.2872 96.6159 55.1541 96.6724 54.9972C96.7289 54.8403 96.7571 54.6692 96.7571 54.4791C96.7571 54.2889 96.7289 54.1273 96.6724 53.9704C96.6159 53.8136 96.5406 53.6805 96.4418 53.5664C96.343 53.4523 96.2254 53.3667 96.0937 53.3049C95.9619 53.2431 95.816 53.2099 95.6608 53.2099C95.5055 53.2099 95.3643 53.2431 95.2279 53.3049C95.0914 53.3667 94.9785 53.4571 94.8797 53.5711C94.7809 53.6852 94.7056 53.8183 94.6492 53.9752C94.5927 54.1321 94.5645 54.3032 94.5645 54.4838V54.4886Z" fill="white"/>
<path d="M101.109 53.305C100.785 53.3097 100.493 53.3715 100.239 53.4951C99.9849 53.6139 99.8014 53.7993 99.6885 54.0418V56.604H98.6157V52.3685H99.5991V53.2717C99.6744 53.1243 99.7638 52.996 99.8626 52.8819C99.9661 52.7678 100.074 52.6632 100.192 52.5777C100.31 52.4921 100.427 52.4255 100.55 52.378C100.667 52.3305 100.785 52.3115 100.898 52.3115H101.029C101.058 52.3115 101.086 52.3115 101.114 52.321V53.305H101.109Z" fill="white"/>
<path d="M108.257 56.5992H107.184V54.2224C107.184 53.8849 107.127 53.633 107.01 53.4809C106.897 53.324 106.737 53.248 106.535 53.248C106.323 53.248 106.12 53.3288 105.932 53.4951C105.744 53.6615 105.612 53.8754 105.532 54.1369V56.5992H104.46V54.2224C104.46 53.8849 104.403 53.633 104.285 53.4809C104.173 53.324 104.013 53.248 103.81 53.248C103.608 53.248 103.406 53.3288 103.213 53.4904C103.02 53.652 102.888 53.8659 102.808 54.1274V56.5992H101.735V52.3638H102.705V53.1481C102.86 52.8724 103.072 52.6633 103.34 52.5159C103.608 52.3685 103.918 52.2925 104.262 52.2925C104.605 52.2925 104.888 52.378 105.076 52.5492C105.269 52.7203 105.391 52.9342 105.443 53.1862C105.612 52.8962 105.829 52.6728 106.092 52.5207C106.351 52.3685 106.652 52.2925 106.986 52.2925C107.24 52.2925 107.452 52.34 107.617 52.4398C107.781 52.5397 107.908 52.6633 108.003 52.8201C108.092 52.977 108.158 53.1529 108.191 53.3525C108.224 53.5522 108.243 53.7518 108.243 53.961V56.604L108.257 56.5992Z" fill="white"/>
<path d="M110.379 56.68C110.176 56.68 109.988 56.6467 109.809 56.5802C109.635 56.5136 109.48 56.4185 109.353 56.2997C109.226 56.1809 109.127 56.0383 109.052 55.8766C108.977 55.715 108.944 55.5391 108.944 55.3442C108.944 55.1493 108.986 54.9592 109.075 54.7928C109.165 54.6217 109.287 54.4791 109.442 54.3602C109.598 54.2414 109.786 54.1463 110.007 54.0798C110.228 54.0132 110.463 53.98 110.727 53.98C110.915 53.98 111.094 53.9942 111.273 54.0275C111.451 54.0608 111.611 54.1035 111.748 54.1653V53.9229C111.748 53.6424 111.668 53.4285 111.513 53.2764C111.357 53.1243 111.122 53.0482 110.812 53.0482C110.586 53.0482 110.369 53.091 110.158 53.1718C109.946 53.2526 109.725 53.3715 109.504 53.5284L109.174 52.8391C109.711 52.4778 110.294 52.2972 110.92 52.2972C111.546 52.2972 111.988 52.4445 112.322 52.744C112.656 53.0435 112.821 53.4761 112.821 54.0417V55.3585C112.821 55.4726 112.84 55.5534 112.882 55.6009C112.92 55.6485 112.985 55.677 113.079 55.6817V56.6039C112.896 56.642 112.741 56.661 112.609 56.661C112.407 56.661 112.251 56.6134 112.138 56.5231C112.026 56.4328 111.96 56.3092 111.936 56.1618L111.913 55.9289C111.724 56.1761 111.499 56.3662 111.235 56.4946C110.967 56.6229 110.685 56.6895 110.379 56.6895V56.68ZM110.685 55.8861C110.868 55.8861 111.037 55.8529 111.202 55.7911C111.367 55.7293 111.494 55.639 111.583 55.5344C111.701 55.4441 111.757 55.3395 111.757 55.2254V54.7405C111.63 54.693 111.489 54.655 111.343 54.6217C111.193 54.5932 111.052 54.5789 110.91 54.5789C110.633 54.5789 110.407 54.6407 110.228 54.769C110.054 54.8974 109.965 55.0543 109.965 55.2492C109.965 55.4345 110.035 55.5867 110.172 55.7055C110.308 55.8291 110.482 55.8861 110.685 55.8861V55.8861Z" fill="white"/>
<path d="M116.345 56.3806C116.199 56.4471 116.025 56.5089 115.818 56.5755C115.611 56.642 115.39 56.6705 115.164 56.6705C115.013 56.6705 114.872 56.6515 114.745 56.6135C114.613 56.5755 114.5 56.5137 114.402 56.4328C114.303 56.3473 114.223 56.2427 114.166 56.1096C114.11 55.9765 114.077 55.8149 114.077 55.6295V53.1957H113.526V52.3638H114.077V50.99H115.15V52.3638H116.03V53.1957H115.15V55.2635C115.15 55.4156 115.187 55.5202 115.267 55.582C115.347 55.6437 115.442 55.677 115.55 55.677C115.658 55.677 115.771 55.658 115.879 55.62C115.987 55.582 116.072 55.5487 116.133 55.5249L116.35 56.3806H116.345Z" fill="white"/>
<path d="M116.947 51.7743V50.7H118.02V51.7743H116.947ZM116.947 56.5992V52.3637H118.02V56.5992H116.947Z" fill="white"/>
<path d="M120.961 56.68C120.622 56.68 120.311 56.6229 120.038 56.5041C119.766 56.3853 119.535 56.2236 119.347 56.024C119.159 55.8243 119.013 55.5867 118.909 55.3252C118.806 55.059 118.759 54.7833 118.759 54.4933C118.759 54.2034 118.81 53.9182 118.909 53.652C119.008 53.3905 119.154 53.1528 119.347 52.9532C119.535 52.7535 119.766 52.5919 120.038 52.4731C120.311 52.3542 120.617 52.2972 120.961 52.2972C121.304 52.2972 121.605 52.3542 121.878 52.4731C122.146 52.5919 122.377 52.7535 122.565 52.9532C122.753 53.1528 122.899 53.3905 123.003 53.652C123.106 53.9182 123.153 54.1939 123.153 54.4933C123.153 54.7928 123.102 55.0638 123.003 55.3252C122.904 55.5867 122.758 55.8196 122.57 56.024C122.382 56.2284 122.156 56.3853 121.883 56.5041C121.61 56.6229 121.304 56.68 120.961 56.68ZM119.864 54.4886C119.864 54.6787 119.893 54.8499 119.949 55.002C120.006 55.1541 120.081 55.2872 120.18 55.4013C120.278 55.5154 120.396 55.6009 120.528 55.6627C120.66 55.7245 120.805 55.7578 120.961 55.7578C121.116 55.7578 121.257 55.7245 121.394 55.6627C121.525 55.6009 121.643 55.5154 121.742 55.4013C121.841 55.2872 121.916 55.1541 121.972 54.9972C122.029 54.8403 122.057 54.6692 122.057 54.4791C122.057 54.2889 122.029 54.1273 121.972 53.9704C121.916 53.8136 121.841 53.6805 121.742 53.5664C121.643 53.4523 121.525 53.3667 121.394 53.3049C121.262 53.2431 121.116 53.2099 120.961 53.2099C120.805 53.2099 120.664 53.2431 120.528 53.3049C120.391 53.3667 120.278 53.4571 120.18 53.5711C120.081 53.6852 120.006 53.8183 119.949 53.9752C119.893 54.1321 119.864 54.3032 119.864 54.4838V54.4886Z" fill="white"/>
<path d="M127.807 56.5992H126.734V54.2224C126.734 53.8849 126.678 53.633 126.56 53.4809C126.442 53.324 126.278 53.248 126.071 53.248C125.962 53.248 125.854 53.267 125.741 53.3145C125.628 53.362 125.525 53.4191 125.426 53.4951C125.327 53.5712 125.238 53.6663 125.158 53.7756C125.078 53.8849 125.021 54.0038 124.984 54.1321V56.604H123.911V52.3685H124.88V53.1529C125.035 52.8819 125.257 52.6728 125.553 52.5207C125.849 52.3685 126.179 52.2925 126.546 52.2925C126.805 52.2925 127.021 52.34 127.186 52.4398C127.35 52.5349 127.477 52.6633 127.572 52.8201C127.661 52.977 127.727 53.1529 127.76 53.3525C127.793 53.5522 127.812 53.7518 127.812 53.961V56.604L127.807 56.5992Z" fill="white"/>
<path d="M134.869 51.8409H133.053V56.5992H131.957V51.8409H130.141V50.8616H134.869V51.8409Z" fill="white"/>
<path d="M136.54 56.68C136.206 56.68 135.9 56.623 135.627 56.5042C135.354 56.3901 135.123 56.2285 134.93 56.0288C134.738 55.8291 134.592 55.5962 134.488 55.3348C134.385 55.0733 134.333 54.7929 134.333 54.5029C134.333 54.2129 134.385 53.9182 134.483 53.652C134.582 53.3858 134.733 53.1529 134.926 52.9485C135.119 52.7488 135.349 52.5872 135.627 52.4684C135.9 52.3495 136.21 52.2925 136.549 52.2925C136.888 52.2925 137.194 52.3495 137.467 52.4684C137.735 52.5872 137.965 52.7441 138.154 52.9437C138.342 53.1434 138.488 53.3763 138.586 53.6377C138.685 53.8992 138.732 54.1749 138.732 54.4601C138.732 54.5314 138.732 54.598 138.732 54.6598C138.732 54.7263 138.723 54.7786 138.713 54.8214H135.472C135.486 54.9878 135.528 55.1351 135.589 55.2635C135.655 55.3918 135.735 55.5011 135.839 55.5962C135.942 55.6913 136.055 55.7578 136.182 55.8054C136.309 55.8529 136.441 55.8767 136.582 55.8767C136.794 55.8767 136.996 55.8244 137.184 55.7198C137.372 55.6152 137.504 55.4774 137.575 55.3015L138.497 55.5582C138.342 55.8814 138.097 56.1476 137.758 56.352C137.419 56.5564 137.015 56.661 136.544 56.661L136.54 56.68ZM137.627 54.1274C137.598 53.8089 137.485 53.5569 137.278 53.362C137.071 53.1671 136.822 53.0768 136.53 53.0768C136.384 53.0768 136.253 53.1006 136.126 53.1529C135.999 53.2052 135.89 53.2765 135.792 53.3668C135.693 53.4571 135.617 53.5664 135.556 53.6995C135.495 53.8279 135.457 53.9705 135.448 54.1274H137.622H137.627Z" fill="white"/>
<path d="M139.165 54.4838C139.165 54.1891 139.217 53.9086 139.316 53.6424C139.415 53.3762 139.565 53.1481 139.758 52.9484C139.951 52.7488 140.181 52.5919 140.454 52.4731C140.727 52.3542 141.033 52.2972 141.377 52.2972C141.833 52.2972 142.224 52.397 142.548 52.5967C142.873 52.7963 143.113 53.0578 143.273 53.381L142.224 53.7042C142.134 53.5474 142.012 53.4285 141.866 53.343C141.72 53.2574 141.551 53.2194 141.372 53.2194C141.217 53.2194 141.075 53.2527 140.939 53.3144C140.807 53.3762 140.69 53.4618 140.591 53.5711C140.492 53.6805 140.417 53.8136 140.36 53.9704C140.304 54.1273 140.276 54.2984 140.276 54.4886C140.276 54.6787 140.304 54.8499 140.365 55.0067C140.421 55.1636 140.501 55.2967 140.6 55.4108C140.699 55.5249 140.817 55.6104 140.948 55.6722C141.08 55.734 141.221 55.7673 141.372 55.7673C141.565 55.7673 141.739 55.7198 141.904 55.6199C142.068 55.5201 142.181 55.406 142.242 55.2634L143.292 55.5867C143.146 55.9099 142.911 56.1761 142.581 56.3805C142.252 56.5849 141.852 56.6895 141.391 56.6895C141.052 56.6895 140.741 56.6325 140.473 56.5136C140.2 56.3948 139.97 56.2332 139.777 56.0335C139.584 55.8339 139.438 55.5962 139.335 55.33C139.231 55.0638 139.179 54.7833 139.179 54.4933L139.165 54.4838Z" fill="white"/>
<path d="M147.874 56.5992H146.802V54.2224C146.802 53.8896 146.741 53.6424 146.618 53.4808C146.496 53.3239 146.322 53.2431 146.096 53.2431C146.002 53.2431 145.898 53.2621 145.79 53.3097C145.682 53.3525 145.583 53.4142 145.484 53.4903C145.385 53.5664 145.301 53.6614 145.221 53.7708C145.141 53.8801 145.084 53.9989 145.047 54.1273V56.5992H143.974V50.7H145.047V53.148C145.202 52.8723 145.409 52.6632 145.672 52.5158C145.936 52.3685 146.228 52.2924 146.548 52.2924C146.821 52.2924 147.042 52.3399 147.211 52.435C147.38 52.5301 147.517 52.6537 147.611 52.8105C147.705 52.9674 147.771 53.1433 147.809 53.3429C147.846 53.5426 147.865 53.747 147.865 53.9562V56.5992H147.874Z" fill="white"/>
<path d="M152.749 56.5992H151.676V54.2224C151.676 53.8849 151.62 53.633 151.502 53.4809C151.385 53.324 151.225 53.248 151.013 53.248C150.905 53.248 150.796 53.267 150.683 53.3145C150.571 53.3573 150.467 53.4191 150.368 53.4951C150.269 53.5712 150.18 53.6663 150.1 53.7756C150.02 53.8849 149.964 54.0038 149.926 54.1321V56.604H148.853V52.3685H149.822V53.1529C149.978 52.8819 150.199 52.6728 150.495 52.5207C150.787 52.3685 151.121 52.2925 151.488 52.2925C151.752 52.2925 151.963 52.34 152.128 52.4398C152.293 52.5349 152.42 52.6633 152.514 52.8201C152.603 52.977 152.669 53.1529 152.702 53.3525C152.735 53.5522 152.754 53.7518 152.754 53.961V56.604L152.749 56.5992Z" fill="white"/>
<path d="M155.657 56.68C155.313 56.68 155.008 56.6229 154.735 56.5041C154.462 56.3853 154.231 56.2236 154.043 56.024C153.855 55.8243 153.709 55.5867 153.605 55.3252C153.507 55.059 153.455 54.7833 153.455 54.4933C153.455 54.2034 153.507 53.9182 153.605 53.652C153.704 53.3905 153.85 53.1528 154.043 52.9532C154.236 52.7535 154.462 52.5919 154.735 52.4731C155.008 52.3542 155.313 52.2972 155.657 52.2972C156 52.2972 156.301 52.3542 156.574 52.4731C156.843 52.5919 157.073 52.7535 157.261 52.9532C157.45 53.1528 157.595 53.3905 157.699 53.652C157.798 53.9182 157.85 54.1939 157.85 54.4933C157.85 54.7928 157.798 55.0638 157.699 55.3252C157.595 55.5867 157.454 55.8196 157.266 56.024C157.078 56.2284 156.852 56.3853 156.579 56.5041C156.306 56.6229 156 56.68 155.657 56.68ZM154.561 54.4886C154.561 54.6787 154.589 54.8499 154.645 55.002C154.702 55.1541 154.777 55.2872 154.876 55.4013C154.975 55.5154 155.092 55.6009 155.224 55.6627C155.356 55.7245 155.502 55.7578 155.657 55.7578C155.812 55.7578 155.953 55.7245 156.09 55.6627C156.221 55.6009 156.339 55.5154 156.438 55.4013C156.537 55.2872 156.612 55.1541 156.668 54.9972C156.725 54.8403 156.753 54.6692 156.753 54.4791C156.753 54.2889 156.725 54.1273 156.668 53.9704C156.612 53.8136 156.537 53.6805 156.438 53.5664C156.339 53.4523 156.221 53.3667 156.09 53.3049C155.958 53.2431 155.812 53.2099 155.657 53.2099C155.502 53.2099 155.36 53.2431 155.224 53.3049C155.092 53.3715 154.975 53.4571 154.876 53.5711C154.777 53.6852 154.702 53.8183 154.645 53.9752C154.589 54.1321 154.561 54.3032 154.561 54.4838V54.4886Z" fill="white"/>
<path d="M158.602 50.7H159.675V55.2396C159.675 55.3965 159.713 55.5153 159.788 55.6057C159.863 55.6912 159.967 55.734 160.108 55.734C160.174 55.734 160.244 55.7245 160.32 55.7007C160.4 55.677 160.47 55.6532 160.541 55.6199L160.687 56.4423C160.541 56.5136 160.376 56.5659 160.183 56.6039C159.99 56.6419 159.816 56.6609 159.661 56.6609C159.327 56.6609 159.063 56.5706 158.88 56.39C158.696 56.2094 158.602 55.9527 158.602 55.6199V50.7V50.7Z" fill="white"/>
<path d="M163.124 56.68C162.781 56.68 162.475 56.6229 162.202 56.5041C161.929 56.3853 161.698 56.2236 161.51 56.024C161.322 55.8243 161.176 55.5867 161.073 55.3252C160.974 55.059 160.922 54.7833 160.922 54.4933C160.922 54.2034 160.974 53.9182 161.073 53.652C161.171 53.3905 161.317 53.1528 161.51 52.9532C161.703 52.7535 161.929 52.5919 162.202 52.4731C162.475 52.3542 162.781 52.2972 163.124 52.2972C163.468 52.2972 163.769 52.3542 164.042 52.4731C164.31 52.5919 164.54 52.7535 164.729 52.9532C164.917 53.1528 165.063 53.3905 165.166 53.652C165.265 53.9182 165.317 54.1939 165.317 54.4933C165.317 54.7928 165.265 55.0638 165.166 55.3252C165.063 55.5867 164.921 55.8196 164.733 56.024C164.545 56.2284 164.319 56.3853 164.046 56.5041C163.773 56.6229 163.468 56.68 163.124 56.68ZM162.028 54.4886C162.028 54.6787 162.056 54.8499 162.112 55.002C162.169 55.1541 162.244 55.2872 162.343 55.4013C162.442 55.5154 162.559 55.6009 162.691 55.6627C162.823 55.7245 162.969 55.7578 163.124 55.7578C163.279 55.7578 163.42 55.7245 163.557 55.6627C163.689 55.6009 163.806 55.5154 163.905 55.4013C164.004 55.2872 164.079 55.1541 164.136 54.9972C164.192 54.8403 164.22 54.6692 164.22 54.4791C164.22 54.2889 164.192 54.1273 164.136 53.9704C164.079 53.8136 164.004 53.6805 163.905 53.5664C163.806 53.4523 163.689 53.3667 163.557 53.3049C163.425 53.2431 163.279 53.2099 163.124 53.2099C162.969 53.2099 162.828 53.2431 162.691 53.3049C162.559 53.3715 162.442 53.4571 162.343 53.5711C162.244 53.6852 162.169 53.8183 162.112 53.9752C162.056 54.1321 162.028 54.3032 162.028 54.4838V54.4886Z" fill="white"/>
<path d="M167.712 56.623C167.429 56.623 167.171 56.566 166.945 56.4519C166.714 56.3378 166.517 56.1857 166.347 55.986C166.178 55.7911 166.051 55.5629 165.961 55.3015C165.872 55.0401 165.825 54.7691 165.825 54.4791C165.825 54.1701 165.872 53.8849 165.971 53.6235C166.065 53.3573 166.201 53.1291 166.371 52.9295C166.54 52.7298 166.747 52.5729 166.987 52.4588C167.227 52.3448 167.49 52.2877 167.777 52.2877C168.102 52.2877 168.389 52.3638 168.634 52.5111C168.879 52.6585 169.081 52.8582 169.241 53.1053V52.3638H170.177V56.3948C170.177 56.7086 170.121 56.989 170.003 57.2362C169.885 57.4834 169.725 57.6926 169.518 57.8684C169.311 58.0443 169.067 58.1727 168.784 58.263C168.497 58.3533 168.187 58.4008 167.853 58.4008C167.396 58.4008 167.011 58.3248 166.695 58.1727C166.38 58.0206 166.117 57.8019 165.891 57.5214L166.474 56.9462C166.634 57.1459 166.836 57.3028 167.076 57.4168C167.321 57.5309 167.575 57.588 167.848 57.588C168.013 57.588 168.173 57.5642 168.323 57.5214C168.474 57.4739 168.61 57.4026 168.728 57.3075C168.846 57.2124 168.94 57.0888 169.006 56.9367C169.071 56.7846 169.104 56.6087 169.104 56.4043V55.8719C168.968 56.1144 168.77 56.2998 168.521 56.4329C168.272 56.566 167.999 56.6325 167.712 56.6325V56.623ZM168.069 55.7578C168.187 55.7578 168.3 55.7388 168.403 55.7008C168.512 55.6628 168.61 55.6105 168.7 55.5487C168.789 55.4869 168.869 55.4108 168.94 55.3205C169.01 55.2349 169.062 55.1446 169.1 55.0448V54.037C169.006 53.7899 168.855 53.5902 168.648 53.4381C168.441 53.286 168.229 53.2099 168.003 53.2099C167.839 53.2099 167.688 53.2479 167.556 53.3193C167.425 53.3906 167.307 53.4904 167.213 53.6092C167.119 53.7281 167.043 53.8707 166.992 54.0275C166.94 54.1844 166.916 54.346 166.916 54.5124C166.916 54.6788 166.945 54.8452 167.006 54.9973C167.062 55.1494 167.147 55.2777 167.251 55.3918C167.354 55.5059 167.476 55.5915 167.613 55.658C167.749 55.7246 167.905 55.7531 168.069 55.7531V55.7578Z" fill="white"/>
<path d="M171.273 57.4263C171.363 57.4549 171.452 57.4739 171.537 57.4881C171.622 57.5024 171.692 57.5072 171.753 57.5072C171.824 57.5072 171.885 57.4929 171.946 57.4691C172.003 57.4406 172.059 57.3931 172.106 57.3265C172.153 57.26 172.2 57.1649 172.252 57.0461C172.299 56.9272 172.351 56.7799 172.403 56.604L170.746 52.3685H171.852L172.986 55.6675L173.993 52.3685H175L173.24 57.4454C173.137 57.7401 172.967 57.9825 172.718 58.1727C172.469 58.3628 172.167 58.4531 171.805 58.4531C171.72 58.4531 171.631 58.4484 171.546 58.4341C171.457 58.4198 171.368 58.3961 171.269 58.3676V57.4311L171.273 57.4263Z" fill="white"/>
</svg>
