<svg width="250" height="250" viewBox="0 0 250 250" fill="none" xmlns="http://www.w3.org/2000/svg">
<rect width="250" height="250" fill="#4F4F4F"/>
<path d="M160.8 127.325C160.268 127.325 159.826 127.755 159.826 128.287C159.826 128.819 160.268 129.249 160.8 129.249C161.343 129.249 161.773 128.819 161.773 128.287C161.773 127.755 161.332 127.325 160.8 127.314V127.325Z" fill="white"/>
<path d="M158.287 128.049C157.744 128.049 157.314 128.479 157.314 129.011C157.314 129.543 157.744 129.973 158.287 129.973C158.819 129.973 159.26 129.543 159.26 129.011C159.26 128.479 158.819 128.049 158.287 128.049Z" fill="white"/>
<path d="M155.866 127.314C155.334 127.314 154.892 127.744 154.892 128.276C154.892 128.808 155.334 129.238 155.866 129.238C156.409 129.238 156.839 128.808 156.839 128.276C156.839 127.744 156.409 127.314 155.866 127.314Z" fill="white"/>
<path d="M162.09 125.05C161.547 125.05 161.117 125.48 161.117 126.012C161.117 126.544 161.558 126.986 162.09 126.986C162.622 126.986 163.063 126.555 163.063 126.024C163.063 125.492 162.622 125.062 162.09 125.062V125.05Z" fill="white"/>
<path d="M155.356 126.092C155.356 125.56 154.915 125.13 154.383 125.13C153.84 125.13 153.399 125.56 153.399 126.092C153.399 126.623 153.84 127.065 154.372 127.065C154.904 127.065 155.345 126.635 155.345 126.103L155.356 126.092Z" fill="white"/>
<path d="M165.315 127.416C164.772 127.416 164.342 127.846 164.342 128.377C164.342 128.909 164.783 129.351 165.315 129.351C165.847 129.351 166.288 128.921 166.288 128.389C166.288 127.857 165.847 127.427 165.315 127.427V127.416Z" fill="white"/>
<path d="M165.315 124.971C164.772 124.971 164.342 125.401 164.342 125.933C164.342 126.465 164.783 126.906 165.315 126.906C165.847 126.906 166.288 126.476 166.288 125.944C166.288 125.413 165.847 124.982 165.315 124.982V124.971Z" fill="white"/>
<path d="M165.315 129.871C164.772 129.871 164.342 130.301 164.342 130.833C164.342 131.365 164.783 131.795 165.315 131.795C165.847 131.795 166.288 131.365 166.288 130.833C166.288 130.301 165.847 129.871 165.315 129.871Z" fill="white"/>
<path d="M76.525 107.849C76.525 107.77 76.491 107.691 76.4231 107.623C75.2349 106.435 73.9335 104.975 73.0168 103.594C72.9602 103.504 72.8584 103.447 72.7452 103.447C72.666 103.447 72.5981 103.447 72.5189 103.447V110.214C72.5076 119.313 73.0734 125.956 74.6577 133.47C74.669 133.527 74.7483 133.549 74.7822 133.504L78.098 129.6C78.098 129.6 78.1206 129.566 78.1093 129.543C76.8645 122.923 76.5815 118.068 76.5815 110.226L76.5023 107.86L76.525 107.849Z" fill="white"/>
<path d="M173.169 112.229L176.654 116.065C176.756 116.178 176.948 116.11 176.948 115.963C177.05 113.372 177.197 104.963 177.231 103.277C177.231 103.153 177.095 103.085 176.994 103.153C176.235 103.673 173.859 105.292 173.27 105.575C173.191 105.608 173.146 105.676 173.146 105.767C173.146 106.627 173.169 110.656 173.112 112.127C173.112 112.172 173.123 112.206 173.157 112.24L173.169 112.229Z" fill="white"/>
<path d="M174.527 137.51L170.747 137.419C170.747 137.419 170.656 137.442 170.645 137.487C170.566 137.759 170.317 138.71 170.317 138.732C165.756 158.197 156.533 169.887 148.544 178.997C138.359 190.585 128.061 196.673 124.892 198.382C124.824 198.416 124.745 198.416 124.688 198.382C121.52 196.662 111.233 190.562 101.071 178.951C93.9185 170.769 86.9702 160.177 82.1267 143.723C82.1153 143.666 82.0588 143.632 81.9909 143.632C81.7193 143.655 80.9384 143.802 80.1349 144.617C79.2636 145.499 78.9127 146.597 78.8448 146.857C78.8448 146.891 78.8448 146.937 78.8448 146.971C83.9486 163.436 90.8065 173.429 98.1057 181.735C110.803 196.198 123.364 202.286 123.896 202.535L124.677 202.909C124.745 202.942 124.813 202.942 124.869 202.909L125.65 202.535C126.182 202.286 138.766 196.22 151.486 181.78C160.121 171.98 169.932 160.369 174.708 137.634C174.73 137.533 174.617 137.442 174.515 137.499L174.527 137.51Z" fill="white"/>
<path d="M93.1378 68.8296C95.2427 69.6784 97.3249 70.5611 99.3845 71.489C99.4072 71.5003 99.4411 71.5003 99.4637 71.5003C106.344 70.4479 115.16 69.1239 124.892 69.1352C138.517 69.1465 145.353 69.9613 153.161 71.2401C153.184 71.2401 153.218 71.2401 153.24 71.2401L158.921 68.9428C159.057 68.8862 159.046 68.6938 158.898 68.6599C150.547 66.6568 141.143 65.1291 124.892 65.1065C113.032 65.0951 101.173 67.0869 93.1491 68.5693C93.002 68.592 92.9793 68.7957 93.1265 68.8523L93.1378 68.8296Z" fill="white"/>
<path d="M94.3486 87.8866C93.5112 88.7127 83.4847 98.3545 63.9975 93.0923C59.8557 92.2209 67.3246 97.2681 74.5672 98.8863C85.7028 101.376 97.1212 97.2568 99.3392 96.1477C99.3392 96.1477 90.9763 103.311 79.2863 102.745C75.8686 102.462 75.8121 102.327 77.3398 103.843C78.3243 104.816 81.0969 106.536 82.9076 107.43C87.9208 109.92 90.071 109.886 93.4886 109.366C97.1099 108.822 102.338 105.337 104.601 104.816C105.122 104.692 106.457 104.069 106.65 104.001C107.102 103.82 107.34 103.322 107.193 102.858C105.892 98.875 103.674 90.6366 98.7395 82.8055C95.7406 78.0412 85.8612 73.5259 71.9192 69.384C61.2363 66.204 50.0555 61.8811 45.0196 59.8328C40.2214 57.875 41.8736 58.1466 46.2758 59.3801C52.7602 61.1908 60.3083 64.6876 72.2926 68.1165C83.4168 71.3078 97.0872 75.5063 101.365 82.217C106.91 90.9195 110.214 98.0602 111.946 99.8709C113.677 101.682 112.919 102.689 111.957 103.594C111.697 103.843 113.972 104.183 116.02 103.379C116.767 103.085 117.819 102.168 117.831 101.003C117.853 99.0335 116.552 98.7845 115.273 97.6981C112.534 95.8761 108.415 88.2488 103.855 79.999C98.8979 71.0589 78.6186 68.2184 53.8126 58.8822C48.1883 56.766 41.817 54.5593 36.9622 50.4287C31.3492 45.6644 29.7422 48.8444 31.9603 52.013C32.9109 53.3824 33.6578 54.0727 34.5518 55.4646C34.4499 55.6344 34.3594 55.8041 34.2915 55.9852C33.4993 58.1919 35.6269 61.0097 39.2029 62.7864C39.0897 62.9901 38.9879 63.1938 38.92 63.4202C38.2184 65.8193 40.923 68.7503 45.0649 70.2101C44.963 70.4138 44.8838 70.6288 44.8272 70.8552C44.4538 72.4621 45.5968 74.2049 47.6224 75.5515C48.392 79.1729 52.4433 80.7232 55.612 81.6965C66.8041 85.6459 85.1709 82.9073 86.0083 82.9073C83.496 85.3857 69.305 89.7878 55.3856 84.5369C52.1151 83.2355 56.4946 88.9504 66.2382 90.8855C80.1576 93.6581 93.5225 87.8753 94.36 87.8753L94.3486 87.8866Z" fill="white"/>
<path d="M213.218 51.2662C208.363 55.3968 201.992 57.6035 196.368 59.7197C171.573 69.0559 151.282 71.9077 146.326 80.8365C142.161 88.3394 138.382 95.3443 135.677 97.9132V97.8792C135.383 98.1508 135.1 98.3885 134.839 98.5582C134.511 98.8298 134.183 99.0562 133.878 99.2712V99.2485C133.662 99.3164 133.459 99.3278 133.278 99.2938C132.033 99.0109 132.191 97.1776 132.01 94.8577C131.976 94.405 131.388 94.2353 131.116 94.5974C131.082 94.6427 131.037 94.6993 131.003 94.7559C130.89 94.903 130.833 95.084 130.845 95.2651C130.935 96.3402 131.15 100.256 129.656 104.273C128.604 107.114 125.017 109.92 120.829 111.244C119.924 111.618 120.071 111.312 120.886 110.825C129.102 106.016 127.993 101.987 128.072 97.4153C128.072 97.4153 128.106 97.1889 127.948 97.336C127.382 98.1622 126.612 99.1241 124.439 99.7691C124.326 99.8031 124.179 99.7691 124.326 99.588C124.756 99.0222 125.696 97.5511 126.001 94.9596C126.205 93.3073 125.22 92.2209 126.001 90.3877C126.986 88.0678 128.219 89.0183 127.993 87.4793C127.721 85.6686 124.485 84.7859 121.52 86.5966C118.555 88.4073 116.699 85.1254 121.565 83.5185C124.315 82.6132 128.344 83.4619 130.256 87.1285C130.392 87.3774 130.698 87.468 130.947 87.3322C132.633 86.3929 133.753 87.7848 133.232 90.2292C134.296 88.6562 134.749 86.4155 133.538 85.861C135.009 84.288 135.394 82.5905 134.772 80.2706C134.704 80.033 134.477 80.0669 134.398 80.2254C134.002 80.9723 132.904 81.9907 132.384 82.3302C130.958 83.5411 129.317 82.9753 129.226 82.964C129.226 82.964 129.204 82.964 129.192 82.964C129.113 82.9527 129.057 82.8621 129.17 82.8734C129.713 82.9187 130.268 82.8055 130.698 82.466C132.859 80.7799 133.662 78.924 131.195 77.5999C130.313 77.1246 130.358 77.2378 129.26 75.8911C125.752 71.5682 115.703 74.352 114.922 79.1163C114.9 79.2521 114.832 79.3653 114.719 79.4445C111.109 82.1152 112.546 87.3435 114.639 88.9618C114.741 89.041 114.809 89.1428 114.832 89.256C115.307 91.6891 116.676 96.1591 119.743 98.7393C123.817 102.157 119.585 104.692 116.009 105.122H115.963C105.711 105.642 100.912 108.619 97.8342 114.039C97.8342 114.039 97.8342 114.039 97.8568 114.051C90.6594 127.178 88.5206 124.247 84.0279 128.083C83.6092 128.445 83.2131 128.807 82.8397 129.158C82.7492 129.249 82.6586 129.339 82.5681 129.419C82.2173 129.769 81.8778 130.109 81.5609 130.448L81.527 130.494C81.2101 130.833 80.9159 131.173 80.6216 131.512C80.5424 131.603 80.4632 131.693 80.3953 131.784C78.0301 134.568 76.344 137.091 72.5982 138.879C72.4737 138.936 72.3266 138.947 72.2021 138.891C67.9357 137.318 66.8607 140.814 60.6365 140.486C60.2291 140.464 59.9575 140.905 60.1839 141.244C61.1911 142.693 64.4389 142.58 65.514 142.286C66.8493 141.923 66.4419 141.742 64.5521 144.82C64.5521 144.832 64.1447 145.726 64.1334 145.737C62.0737 150.003 58.4977 148.872 58.3619 150.716C58.3393 151.056 58.543 152.516 60.8402 152.21C62.798 151.95 65.0047 155.413 71.2402 151.124C73.6393 149.472 75.0426 146.031 76.5929 143.972C77.8038 142.353 79.671 141.097 81.7646 140.011C81.7872 140.011 81.8099 139.988 81.8325 139.988C91.4629 136.661 98.9545 131.071 100.799 129.781C101.15 129.532 101.218 129.419 101.24 129.305C103.096 116.631 122.448 112.251 129.6 110.995C131.162 110.724 132.248 110.78 130.369 111.278C126.691 112.251 119.007 114.311 113.598 117.514C105.722 122.176 101.693 128.117 104.002 132.576C105.563 135.586 108.472 136.152 108.019 137.94C107.714 141.063 101.682 153.263 101.772 156.341C101.874 159.419 103.9 161.196 103.764 164.217C103.617 167.239 101.286 170.238 100.052 172.705C101.806 174.911 103.277 176.688 104.93 178.499C105.213 178.815 105.744 178.646 105.79 178.238C106.412 173.225 108.653 160.302 109.909 155.741C111.357 150.501 114.945 138.879 115.194 137.872C115.828 135.315 118.476 130.177 116.133 138.144C115.828 139.173 113.112 151.758 112.319 156.544C111.527 161.263 110.181 178.397 110.113 183.512C110.113 183.648 110.158 183.772 110.26 183.863C111.335 184.915 112.772 186.058 113.926 187.043C114.243 187.314 114.741 187.088 114.741 186.669C114.798 180.015 115.205 169.649 115.828 161.026C116.801 147.672 122.391 128.751 122.799 127.619C123.353 126.08 124.032 125.016 123.455 128.14C123.251 129.26 119.505 149.121 119.041 162.124C118.713 171.335 119.822 181.124 120.705 192.429C120.705 192.576 120.796 192.712 120.909 192.791L124.541 195.383C124.7 195.496 124.915 195.507 125.085 195.406C125.503 195.157 126.363 194.636 127.574 193.799C123.138 168.268 121.769 147.005 129.985 121.769C130.765 119.381 131.659 118.86 130.72 121.904C124.111 143.349 125.865 164.262 132.395 189.295C132.486 189.645 132.904 189.781 133.187 189.555C134.726 188.355 135.745 187.756 135.835 187.348C136.56 183.976 136.526 177.209 135.881 170.396C135.224 163.436 133.934 156.42 132.169 152.923C130.584 149.777 130.754 148.759 132.916 152.188C135.145 155.718 136.967 162.282 138.144 168.597C139.355 175.07 139.887 181.294 139.513 183.716C139.321 184.972 142.931 180.343 144.074 179.053C144.153 178.963 144.198 178.838 144.198 178.714C144.074 174.911 143.202 171.55 142.523 167.454V167.42C140.871 160.2 136.593 149.788 135.043 147.344C134.726 146.846 134.489 146.427 134.308 146.065C133.47 144.402 134.036 144.266 135.066 145.703C135.247 145.952 135.439 146.258 135.643 146.608C137.125 149.166 141.007 154.96 144.311 165.213C145.262 168.178 146.167 171.143 146.824 174.617C146.903 175.013 147.401 175.16 147.684 174.855C148.838 173.599 149.11 173.338 150.569 171.471C150.66 171.358 150.694 171.199 150.66 171.064C150.23 169.287 148.295 161.218 144.413 153.998C142.965 151.305 141.709 148.521 140.815 145.601C138.461 137.951 138.529 132.078 142.704 127.201C143.27 128.525 143.112 128.276 144.719 134.647C145.319 137.023 149.019 137.012 150.343 137.012C154.044 137.012 156.069 138.857 158.378 138.359C158.865 138.257 159.374 138.359 159.872 138.381C162.214 138.54 162.916 138.03 163.414 135.62C163.448 135.462 163.572 135.269 163.719 135.066C163.991 135.145 164.308 135.19 164.636 135.19C165.643 135.19 166.469 134.783 166.56 134.262C169.038 134.273 173.508 134.307 174.357 134.307C174.447 134.307 174.538 134.285 174.606 134.239L176.36 133.176C176.36 133.176 176.394 133.153 176.405 133.153C176.564 133.074 177.526 132.599 177.526 132.033L177.82 124.801V124.677L178.148 122.663C178.171 122.515 178.125 122.38 178.035 122.266L171.268 114.435C171.166 114.322 171.019 114.254 170.871 114.266L156.149 114.764H152.097C152.041 114.809 151.78 114.096 151.622 113.462C151.452 112.749 151.271 111.606 150.932 110.803C150.592 109.999 149.279 107.091 144.232 106.072C140.011 105.224 137.397 103.594 137.239 102.44C137.318 101.953 137.612 101.399 138.246 100.731C139.977 98.9204 143.27 91.7796 148.827 83.0771C153.104 76.3777 166.775 72.1679 177.899 68.9767C189.883 65.5364 197.431 62.0509 203.916 60.2403C208.318 59.0068 209.97 58.7352 205.172 60.6929C200.147 62.7412 188.955 67.0755 178.272 70.2441C164.33 74.386 154.451 78.9013 151.452 83.6656C146.529 91.4854 141.98 98.015 140.679 101.987C140.532 102.451 140.769 102.949 141.222 103.13C141.403 103.198 142.75 103.832 143.27 103.945C145.545 104.465 151.35 108.517 154.972 109.071C158.389 109.592 160.539 109.615 165.553 107.136C167.363 106.242 170.136 104.522 171.12 103.549C172.648 102.032 172.592 102.168 169.174 102.451C157.484 103.017 150.864 97.0079 150.864 97.0079C153.093 98.1056 164.511 102.236 175.636 99.7465C182.878 98.1282 190.347 93.0697 186.205 93.9524C166.73 99.2146 156.692 89.5729 155.854 88.7467C156.692 88.7467 170.057 94.5182 183.976 91.757C193.72 89.8218 198.099 84.1069 194.829 85.4084C180.921 90.6593 166.718 86.2571 164.206 83.7788C165.043 83.7788 183.41 86.5174 194.602 82.5679C197.771 81.5947 201.822 80.0443 202.592 76.423C204.618 75.0763 205.749 73.3336 205.387 71.7266C205.33 71.5003 205.251 71.2853 205.149 71.0816C209.303 69.6104 212.007 66.6907 211.294 64.2916C211.226 64.0653 211.136 63.8616 211.011 63.6579C214.576 61.8812 216.704 59.0633 215.923 56.8566C215.855 56.6755 215.764 56.5058 215.662 56.336C216.545 54.9441 217.292 54.2425 218.254 52.8845C220.472 49.7158 218.854 46.5359 213.241 51.3115L213.218 51.2662ZM117.299 85.3405C117.174 85.9402 117.197 86.5287 117.333 87.0945V87.1172C117.333 87.1624 117.265 87.1737 117.231 87.1285C116.54 86.4268 116.099 85.4989 116.043 84.4917C116.043 84.322 116.043 84.1522 116.043 83.9825C116.054 83.8127 116.077 83.643 116.11 83.4619C116.133 83.3487 116.156 83.2469 116.19 83.145C116.224 83.0432 116.258 82.9413 116.292 82.8395C116.665 81.8436 117.412 81.0628 118.329 80.6214H118.34C118.713 80.4404 119.109 80.3159 119.528 80.248C119.958 80.1801 120.422 80.1461 120.66 80.1348C121.146 80.1235 121.61 80.1235 122.052 80.1009C123.251 80.0669 124.315 79.9198 125.266 79.0371C125.356 78.9579 125.435 78.8674 125.526 78.7768C125.582 78.7089 125.639 78.641 125.673 78.5731C125.673 78.5618 125.684 78.5392 125.696 78.5279C125.718 78.4713 125.752 78.426 125.763 78.3694C125.763 78.3468 125.764 78.3242 125.775 78.3015C125.786 78.2563 125.797 78.1997 125.809 78.1544C125.809 78.1318 125.809 78.0978 125.809 78.0752C125.809 78.0299 125.809 77.9847 125.809 77.9394C125.809 77.9055 125.809 77.8828 125.797 77.8489C125.797 77.8036 125.797 77.7583 125.775 77.7131C125.775 77.6791 125.764 77.6565 125.752 77.6225C125.752 77.5773 125.73 77.532 125.718 77.4981C125.718 77.4641 125.696 77.4415 125.684 77.4075C125.673 77.3623 125.65 77.3283 125.639 77.283C125.628 77.2491 125.605 77.2265 125.594 77.1925C125.571 77.1472 125.56 77.1133 125.537 77.068C125.526 77.0341 125.503 77.0001 125.481 76.9775C125.458 76.9435 125.447 76.8983 125.424 76.8643C125.401 76.8191 125.379 76.7851 125.356 76.7398C125.345 76.7172 125.322 76.6833 125.311 76.6606C125.288 76.6154 125.254 76.5701 125.232 76.5248L125.175 76.423C125.175 76.423 125.118 76.3325 125.096 76.2872C125.085 76.2646 125.062 76.2419 125.051 76.208C125.028 76.174 125.017 76.1514 124.994 76.1174C124.983 76.0948 124.971 76.0722 124.96 76.0495C124.949 76.0269 124.926 75.993 124.915 75.9703C124.915 75.9477 124.892 75.9251 124.892 75.9137C124.892 75.8911 124.869 75.8685 124.858 75.8458C124.858 75.8232 124.858 75.8119 124.847 75.7893C124.847 75.7666 124.836 75.744 124.836 75.7327C124.836 75.6535 124.869 75.6421 124.937 75.6535H124.971C124.971 75.6535 125.073 75.71 125.13 75.7327C125.186 75.7553 125.232 75.7779 125.288 75.8006C125.345 75.8232 125.39 75.8572 125.447 75.8798C125.503 75.9024 125.548 75.9364 125.605 75.959C125.662 75.993 125.707 76.0269 125.763 76.0609C125.809 76.0948 125.865 76.1288 125.911 76.1627C125.956 76.1967 126.012 76.2419 126.058 76.2759C126.103 76.3098 126.148 76.3438 126.205 76.3777C126.25 76.4117 126.295 76.4569 126.341 76.5022C126.386 76.5361 126.431 76.5814 126.476 76.6154C126.522 76.6606 126.556 76.7059 126.601 76.7398C126.646 76.7851 126.68 76.8191 126.725 76.8643C126.771 76.9096 126.805 76.9549 126.839 77.0001C126.873 77.0454 126.918 77.0907 126.952 77.1359C126.986 77.1812 127.02 77.2378 127.054 77.283C127.088 77.3283 127.121 77.3736 127.144 77.4188C127.178 77.4641 127.201 77.5207 127.223 77.5773C127.246 77.6225 127.28 77.6678 127.303 77.7131C127.325 77.7697 127.348 77.8149 127.37 77.8715C127.393 77.9168 127.416 77.962 127.427 78.0073C127.45 78.0639 127.461 78.1092 127.472 78.1657C127.484 78.211 127.506 78.2563 127.506 78.3015C127.506 78.3581 127.518 78.4034 127.529 78.46C127.529 78.5052 127.54 78.5505 127.552 78.5958C127.552 78.6524 127.552 78.6976 127.552 78.7542C127.552 78.7995 127.552 78.8447 127.552 78.89C127.552 78.9466 127.529 78.9918 127.518 79.0484C127.518 79.0937 127.506 79.1276 127.495 79.1729C127.484 79.2182 127.45 79.2748 127.427 79.32C127.404 79.354 127.393 79.3992 127.382 79.4445C127.348 79.5011 127.314 79.5464 127.28 79.5916C127.257 79.6256 127.235 79.6595 127.212 79.6935C126.861 80.1122 126.409 80.4404 125.865 80.712C125.65 80.8251 125.424 80.9157 125.198 81.0062C123.33 81.7418 120.897 82.0247 119.211 82.9527C119.03 83.0545 118.86 83.1564 118.702 83.2695C118.657 83.3035 118.611 83.3374 118.566 83.3714C117.944 83.8467 117.491 84.4804 117.321 85.3291L117.299 85.3405ZM120.796 92.8094C120.535 92.832 120.32 92.6283 120.332 92.3794L120.309 88.5317C120.298 88.2149 120.558 88.3846 120.603 88.5317L122.47 92.3002C122.504 92.402 122.346 92.6623 122.233 92.6623L120.807 92.8207L120.796 92.8094ZM70.1764 149.856C69.4861 150.615 67.2454 152.063 65.7856 152.12C64.3144 152.176 62.8772 151.599 63.262 150.648C63.6468 149.698 65.9327 150.162 67.3133 149.653C69.3503 148.906 74.2504 145.386 70.1764 149.845V149.856ZM72.6661 143.429C71.7947 143.644 71.5344 142.138 69.305 141.425C68.7392 141.244 67.5397 141.64 67.2681 141.222C66.9965 140.803 68.0376 140.35 68.0376 140.35C68.0376 140.35 69.8935 139.626 70.697 139.66C71.5005 139.694 73.0169 140.249 73.3903 140.803C74.2164 142.014 73.5374 143.213 72.6661 143.429ZM93.5791 128.208V128.23C93.5452 128.434 93.432 128.649 93.2283 128.887C93.1265 129 93.0133 129.113 92.9001 129.226L92.8209 129.305C92.7077 129.419 92.5946 129.532 92.4701 129.645C92.3456 129.769 92.2098 129.883 92.0627 130.007L91.9835 130.075C91.8477 130.188 91.7006 130.313 91.5648 130.426C91.4177 130.55 91.2592 130.663 91.1008 130.788L91.0103 130.856C90.8631 130.969 90.7047 131.082 90.5463 131.195C90.3878 131.32 90.2181 131.433 90.0484 131.546L89.9578 131.614C89.7994 131.727 89.6296 131.84 89.4712 131.942C89.3015 132.067 89.1317 132.18 88.962 132.282L88.8714 132.338C88.713 132.44 88.5432 132.542 88.3848 132.655H88.3622C88.1924 132.78 88.0227 132.881 87.8529 132.983L87.7511 133.04C87.5927 133.142 87.4342 133.232 87.2758 133.323L87.2418 133.345C87.0721 133.447 86.9023 133.538 86.7439 133.64L86.6534 133.696C86.4949 133.787 86.3478 133.877 86.2007 133.957H86.1781C86.0196 134.058 85.8612 134.149 85.7028 134.239L85.6236 134.285C85.4764 134.364 85.3407 134.443 85.2049 134.522H85.1822C85.0351 134.613 84.888 134.692 84.7522 134.76L84.6956 134.794C84.4353 134.93 84.1977 135.066 83.9713 135.179H83.96C83.8695 135.235 83.779 135.281 83.6884 135.326L83.6205 135.36C83.5526 135.394 83.4847 135.428 83.4281 135.462L83.3602 135.496C83.2923 135.53 83.2358 135.563 83.1792 135.586H83.1452L83.1226 135.609H83.1C83.1 135.609 82.9642 135.688 82.8397 135.745L82.7492 135.79C81.8099 136.265 79.4787 137.453 78.3017 138.019L78.2451 138.042L78.1546 138.087L78.0867 138.121L78.0188 138.155L77.9283 138.2L77.8717 138.234L77.8038 138.268H77.7699L77.7246 138.302H77.702L77.6567 138.325H77.6114V138.336C77.8491 138.053 78.0754 137.782 78.3017 137.521C84.9785 129.735 89.8899 127.778 90.4557 127.563H90.501V127.54C92.1985 126.884 93.681 127.348 93.5791 128.23V128.208ZM120.071 108.596C120.071 108.596 120.071 108.619 120.071 108.641C120.071 108.687 120.06 108.732 120.049 108.788C120.049 108.788 120.015 108.89 119.992 108.936L119.969 108.981C119.969 108.981 119.924 109.06 119.902 109.105C119.902 109.117 119.879 109.139 119.868 109.151C119.834 109.207 119.8 109.264 119.754 109.32C119.709 109.377 119.664 109.445 119.607 109.501C119.596 109.524 119.573 109.535 119.562 109.558C119.517 109.603 119.471 109.648 119.426 109.694C119.404 109.716 119.392 109.728 119.37 109.75C119.302 109.818 119.234 109.886 119.155 109.954C119.075 110.022 118.996 110.101 118.906 110.169C118.883 110.192 118.849 110.214 118.826 110.237C118.759 110.294 118.691 110.35 118.623 110.395C118.589 110.418 118.566 110.441 118.532 110.463C118.43 110.542 118.329 110.622 118.227 110.701C118.113 110.791 118 110.871 117.887 110.95C117.853 110.973 117.808 111.006 117.774 111.029C117.683 111.097 117.593 111.154 117.491 111.221C117.446 111.244 117.412 111.278 117.367 111.301C117.231 111.391 117.095 111.47 116.959 111.561H116.937C116.789 111.663 116.642 111.765 116.484 111.855C116.439 111.889 116.382 111.912 116.337 111.946C116.212 112.014 116.099 112.093 115.975 112.161C115.918 112.195 115.873 112.217 115.816 112.251C115.646 112.353 115.465 112.455 115.284 112.557H115.273C115.092 112.67 114.9 112.783 114.696 112.885C114.639 112.919 114.571 112.953 114.515 112.987C114.368 113.066 114.221 113.157 114.062 113.236C113.994 113.27 113.926 113.304 113.858 113.349C113.643 113.462 113.428 113.587 113.202 113.7H113.191C112.964 113.824 112.727 113.949 112.489 114.073C112.41 114.107 112.342 114.152 112.263 114.186C112.082 114.277 111.901 114.379 111.72 114.469C111.64 114.515 111.561 114.549 111.482 114.594C111.233 114.718 110.973 114.854 110.701 114.99H110.678C110.588 115.047 110.497 115.092 110.418 115.126C110.396 115.137 110.373 115.148 110.339 115.16C110.282 115.182 110.237 115.205 110.181 115.228C110.158 115.239 110.124 115.25 110.101 115.262C110.056 115.284 110.022 115.295 109.977 115.307L109.909 115.329C109.909 115.329 109.841 115.352 109.818 115.363L109.762 115.386C109.762 115.386 109.705 115.397 109.683 115.409C109.671 115.409 109.649 115.409 109.637 115.409C109.615 115.409 109.592 115.409 109.581 115.409C109.581 115.409 109.558 115.409 109.547 115.409C109.524 115.409 109.513 115.409 109.502 115.409H109.479C109.479 115.409 109.434 115.363 109.434 115.329C109.434 115.329 109.434 115.318 109.434 115.307C109.434 115.295 109.434 115.284 109.434 115.273C109.434 115.273 109.434 115.25 109.445 115.239C109.445 115.228 109.445 115.216 109.456 115.194C109.456 115.182 109.468 115.16 109.479 115.148C109.479 115.137 109.49 115.126 109.502 115.114C109.502 115.092 109.524 115.069 109.536 115.047L109.558 115.013C109.558 115.013 109.592 114.956 109.615 114.933L109.637 114.899C109.637 114.899 109.683 114.831 109.705 114.798L109.728 114.775C109.728 114.775 109.784 114.696 109.818 114.65C110.69 113.507 112.682 111.437 112.58 110.418C112.58 110.395 112.58 110.361 112.568 110.339C112.546 110.248 112.523 110.18 112.467 110.124L112.444 110.101C112.444 110.101 112.342 109.999 112.263 109.965L112.218 109.943C112.218 109.943 112.172 109.92 112.15 109.909C112.127 109.909 112.116 109.897 112.093 109.886C112.048 109.875 112.014 109.864 111.969 109.852C111.946 109.852 111.923 109.852 111.889 109.841C111.855 109.841 111.833 109.841 111.799 109.83C111.765 109.83 111.731 109.83 111.697 109.83C111.663 109.83 111.618 109.83 111.584 109.83C111.539 109.83 111.482 109.83 111.425 109.83C111.391 109.83 111.357 109.83 111.324 109.83C111.278 109.83 111.233 109.83 111.176 109.83C111.142 109.83 111.109 109.83 111.075 109.83C110.995 109.83 110.916 109.841 110.826 109.852C110.792 109.852 110.758 109.852 110.724 109.864C110.656 109.864 110.588 109.886 110.52 109.897C110.486 109.897 110.441 109.909 110.407 109.92C110.305 109.943 110.203 109.954 110.09 109.977L110.011 109.999C109.92 110.022 109.818 110.045 109.728 110.067L109.603 110.101C109.49 110.124 109.377 110.158 109.264 110.192H109.207C109.072 110.248 108.924 110.282 108.777 110.327C108.732 110.339 108.687 110.35 108.642 110.373C108.517 110.407 108.393 110.452 108.257 110.486L108.144 110.52C107.985 110.576 107.815 110.622 107.634 110.678L107.499 110.724C107.351 110.769 107.204 110.825 107.057 110.871L106.91 110.927C106.718 110.995 106.525 111.063 106.322 111.142L106.22 111.176C106.039 111.244 105.858 111.312 105.677 111.38L105.495 111.448C105.269 111.527 105.043 111.618 104.805 111.708C104.579 111.799 104.364 111.889 104.149 111.98C103.798 112.138 103.47 112.308 103.164 112.489C102.87 112.659 102.598 112.828 102.338 112.998C101.761 113.383 101.263 113.779 100.856 114.141L100.788 114.198C100.573 114.39 100.38 114.571 100.222 114.741C99.7127 115.25 99.4637 115.601 99.4751 115.567C101.127 109.626 112.715 105.36 118.849 107.43C119.426 107.623 119.822 107.86 119.992 108.166C120.015 108.211 120.037 108.257 120.049 108.302C120.06 108.347 120.071 108.381 120.071 108.426V108.46C120.071 108.46 120.071 108.528 120.071 108.562V108.596ZM113.281 124.371C109.32 129 109.49 135.609 107.385 133.379C104.443 130.267 105.19 128.106 108.359 124.371C113.926 117.808 130.132 112.41 131.071 113.043C131.071 113.043 119.981 116.563 113.293 124.371H113.281ZM169.321 125.231V132.27H163.312C163.04 132.27 162.814 132.044 162.814 131.772V131.093C162.814 129.928 162.022 129.724 161.501 130.267C161.626 130.448 161.705 131.41 161.705 131.784V135.167C161.705 136.22 159.725 136.446 159.725 135.032L160.007 132.259H159.623V131.093C159.623 129.928 158.831 129.724 158.31 130.267C158.434 130.448 158.502 130.72 158.514 131.093V135.167C158.514 136.22 156.533 136.446 156.533 135.032L156.782 132.802C156.816 132.508 156.579 132.259 156.284 132.259H155.175C155.175 132.259 155.175 132.395 155.175 132.463V134.805C155.175 135.643 153.591 135.824 153.591 134.692L153.874 132.451C153.885 132.395 153.897 132.304 153.919 132.248H147.718C147.446 132.248 147.22 132.021 147.22 131.75V125.197C147.22 124.926 147.446 124.7 147.729 124.7L168.834 124.722C169.106 124.722 169.332 124.949 169.332 125.22L169.321 125.231ZM154.383 121.882C154.383 121.882 154.485 121.961 154.519 122.018C155.198 123.013 154.1 124.1 153.104 123.409C153.059 123.376 153.014 123.33 152.98 123.285C152.324 122.312 153.376 121.259 154.383 121.893V121.882ZM163.414 121.893C163.414 121.893 163.516 121.972 163.55 122.029C164.229 123.025 163.131 124.1 162.135 123.421C162.09 123.387 162.044 123.342 162.011 123.285C161.354 122.3 162.418 121.248 163.414 121.893ZM164.534 122.051C164.534 122.051 164.613 121.961 164.659 121.927C165.439 121.372 166.288 121.927 166.288 122.663C166.288 123.194 165.847 123.636 165.315 123.624C164.579 123.624 164.036 122.81 164.534 122.051ZM146.846 117.389C146.892 117.163 147.095 116.993 147.322 116.993L168.552 116.653C168.857 116.653 169.095 116.914 169.049 117.208L168.676 120.048L146.28 120.139L146.835 117.389H146.846ZM133.81 114.684C132.033 115.307 131.297 114.752 132.576 114.311C135.179 113.406 136.367 111.584 135.835 110.09C135.303 108.596 133.255 107.996 130.652 108.902C129.373 109.343 129.713 108.404 131.49 107.793C134.534 106.729 137.804 107.012 138.461 108.947C139.332 111.538 136.865 113.632 133.821 114.696L133.81 114.684Z" fill="white"/>
</svg>
