<svg width="32" height="27" viewBox="0 0 32 27" fill="none" xmlns="http://www.w3.org/2000/svg">
<path d="M31.4367 3.71179C30.2797 4.22621 29.0378 4.57336 27.7331 4.73116C29.0661 3.92955 30.0879 2.66086 30.5689 1.14917C29.3239 1.89082 27.9437 2.43048 26.4723 2.72083C25.2965 1.46161 23.6207 0.675781 21.7626 0.675781C18.2005 0.675781 15.3112 3.57608 15.3112 7.15176C15.3112 7.65986 15.3678 8.15219 15.4778 8.62874C10.1205 8.35733 5.36678 5.77893 2.18507 1.86241C1.62858 2.81866 1.31104 3.92955 1.31104 5.11618C1.31104 7.36321 2.44916 9.34513 4.1815 10.5065C3.12512 10.4718 2.12848 10.1815 1.26074 9.69544C1.26074 9.72384 1.26074 9.74909 1.26074 9.7775C1.26074 12.9145 3.48353 15.5308 6.43573 16.1272C5.89497 16.2756 5.32591 16.3545 4.73484 16.3545C4.31983 16.3545 3.91426 16.3134 3.52126 16.2377C4.34184 18.8098 6.72498 20.6812 9.54827 20.7349C7.3412 22.4707 4.55877 23.5058 1.53741 23.5058C1.01551 23.5058 0.503037 23.4743 0 23.4143C2.85474 25.251 6.24395 26.3241 9.88782 26.3241C21.7532 26.3241 28.2392 16.4586 28.2392 7.90287C28.2392 7.62199 28.233 7.34427 28.2204 7.06655C29.4811 6.15448 30.5752 5.01203 31.4398 3.71495L31.4367 3.71179Z" fill="#172853"/>
</svg>
