<svg width="25" height="29" viewBox="0 0 25 29" fill="none" xmlns="http://www.w3.org/2000/svg">
<path fill-rule="evenodd" clip-rule="evenodd" d="M19.8421 9.1579C22.371 9.1579 24.4211 7.10783 24.4211 4.57895C24.4211 2.05006 22.371 0 19.8421 0C17.3132 0 15.2632 2.05006 15.2632 4.57895C15.2632 5.26782 15.4153 5.92117 15.6878 6.50722L7.97425 12.1909C7.13641 11.2655 5.92556 10.6842 4.57895 10.6842C2.05006 10.6842 0 12.7343 0 15.2632C0 17.792 2.05006 19.8421 4.57895 19.8421C6.07695 19.8421 7.40695 19.1228 8.24234 18.0107L15.4965 22.974C15.3451 23.4289 15.2632 23.9154 15.2632 24.4211C15.2632 26.9499 17.3132 29 19.8421 29C22.371 29 24.4211 26.9499 24.4211 24.4211C24.4211 21.8922 22.371 19.8421 19.8421 19.8421C18.3685 19.8421 17.0574 20.5382 16.2199 21.6196L8.94635 16.643C9.08378 16.2075 9.1579 15.744 9.1579 15.2632C9.1579 14.6306 9.02964 14.028 8.79771 13.48L16.5535 7.76519C17.3859 8.62407 18.5516 9.1579 19.8421 9.1579Z" fill="#172853"/>
</svg>
