<svg width="343" height="67" viewBox="0 0 343 67" fill="none" xmlns="http://www.w3.org/2000/svg">
<path d="M37.413 32.0628L4.81178e-05 61.971L5.07887e-05 2.15457L37.413 32.0628Z" fill="#F8F379"/>
<mask id="path-2-outside-1_2579_714" maskUnits="userSpaceOnUse" x="12.5513" y="11" width="326" height="42" fill="black">
<rect fill="white" x="12.5513" y="11" width="326" height="42"/>
<path d="M49.9175 27.2118H39.4358C39.3615 26.3445 39.1632 25.5577 38.8411 24.8515C38.5314 24.1453 38.0977 23.5382 37.5402 23.0302C36.9951 22.5099 36.3322 22.1134 35.5517 21.8408C34.7711 21.5559 33.8852 21.4134 32.8941 21.4134C31.1595 21.4134 29.6913 21.8346 28.4895 22.6771C27.3001 23.5196 26.3957 24.7276 25.7762 26.3011C25.1691 27.8746 24.8655 29.764 24.8655 31.9694C24.8655 34.2987 25.1753 36.25 25.7948 37.8235C26.4266 39.3846 27.3373 40.5617 28.5267 41.3546C29.7161 42.1351 31.1471 42.5254 32.8197 42.5254C33.7737 42.5254 34.6286 42.4077 35.3844 42.1723C36.1402 41.9245 36.7968 41.5714 37.3544 41.113C37.9119 40.6546 38.3641 40.1032 38.711 39.459C39.0703 38.8023 39.3119 38.0651 39.4358 37.2474L49.9175 37.3218C49.7936 38.9324 49.3414 40.574 48.5608 42.2467C47.7803 43.9069 46.6714 45.4432 45.2342 46.8556C43.8094 48.2557 42.0439 49.3831 39.9376 50.238C37.8314 51.0929 35.3844 51.5203 32.5967 51.5203C29.1028 51.5203 25.9682 50.7708 23.1929 49.2716C20.43 47.7725 18.2433 45.5671 16.6326 42.6555C15.0343 39.7439 14.2352 36.1819 14.2352 31.9694C14.2352 27.7321 15.0529 24.1639 16.6884 21.2647C18.3238 18.3531 20.5292 16.154 23.3044 14.6672C26.0797 13.1681 29.1772 12.4185 32.5967 12.4185C35.0003 12.4185 37.2119 12.7468 39.2314 13.4035C41.2509 14.0601 43.0226 15.0203 44.5466 16.2841C46.0705 17.5354 47.2971 19.0779 48.2263 20.9116C49.1555 22.7453 49.7193 24.8453 49.9175 27.2118ZM91.4772 31.9694C91.4772 36.2067 90.6533 39.7811 89.0054 42.6927C87.3576 45.5919 85.1336 47.791 82.3336 49.2902C79.5335 50.777 76.4113 51.5203 72.967 51.5203C69.4979 51.5203 66.3633 50.7708 63.5632 49.2716C60.7755 47.7601 58.5578 45.5547 56.9099 42.6555C55.2745 39.7439 54.4568 36.1819 54.4568 31.9694C54.4568 27.7321 55.2745 24.1639 56.9099 21.2647C58.5578 18.3531 60.7755 16.154 63.5632 14.6672C66.3633 13.1681 69.4979 12.4185 72.967 12.4185C76.4113 12.4185 79.5335 13.1681 82.3336 14.6672C85.1336 16.154 87.3576 18.3531 89.0054 21.2647C90.6533 24.1639 91.4772 27.7321 91.4772 31.9694ZM80.8468 31.9694C80.8468 29.6897 80.5433 27.7693 79.9362 26.2082C79.3415 24.6347 78.4556 23.4453 77.2786 22.64C76.114 21.8222 74.6767 21.4134 72.967 21.4134C71.2572 21.4134 69.8138 21.8222 68.6368 22.64C67.4721 23.4453 66.5863 24.6347 65.9792 26.2082C65.3845 27.7693 65.0871 29.6897 65.0871 31.9694C65.0871 34.2491 65.3845 36.1757 65.9792 37.7492C66.5863 39.3103 67.4721 40.4997 68.6368 41.3174C69.8138 42.1228 71.2572 42.5254 72.967 42.5254C74.6767 42.5254 76.114 42.1228 77.2786 41.3174C78.4556 40.4997 79.3415 39.3103 79.9362 37.7492C80.5433 36.1757 80.8468 34.2491 80.8468 31.9694ZM96.258 51V12.9388H112.687C115.512 12.9388 117.983 13.453 120.102 14.4814C122.221 15.5097 123.868 16.9903 125.045 18.9231C126.223 20.8559 126.811 23.1727 126.811 25.8737C126.811 28.5994 126.204 30.8977 124.99 32.7685C123.788 34.6394 122.097 36.0518 119.916 37.0058C117.748 37.9598 115.214 38.4368 112.315 38.4368H102.502V30.4083H110.234C111.448 30.4083 112.482 30.2596 113.337 29.9623C114.205 29.6525 114.867 29.1631 115.326 28.4941C115.797 27.8251 116.032 26.9516 116.032 25.8737C116.032 24.7834 115.797 23.8975 115.326 23.2161C114.867 22.5223 114.205 22.0143 113.337 21.6922C112.482 21.3576 111.448 21.1904 110.234 21.1904H106.591V51H96.258ZM118.559 33.5305L128.075 51H116.85L107.557 33.5305H118.559ZM131.216 51V12.9388H147.644C150.469 12.9388 152.941 13.4964 155.06 14.6115C157.178 15.7265 158.826 17.2938 160.003 19.3133C161.18 21.3329 161.769 23.6931 161.769 26.394C161.769 29.1198 161.161 31.48 159.947 33.4748C158.745 35.4695 157.054 37.0058 154.874 38.0837C152.705 39.1616 150.172 39.7006 147.273 39.7006H137.46V31.6721H145.191C146.405 31.6721 147.44 31.4614 148.295 31.0402C149.162 30.6065 149.825 29.9933 150.283 29.2003C150.754 28.4074 150.989 27.4719 150.989 26.394C150.989 25.3038 150.754 24.3745 150.283 23.6064C149.825 22.8258 149.162 22.2311 148.295 21.8222C147.44 21.401 146.405 21.1904 145.191 21.1904H141.549V51H131.216ZM186.077 24.8329C185.978 23.594 185.513 22.6276 184.683 21.9338C183.866 21.2399 182.62 20.893 180.948 20.893C179.882 20.893 179.009 21.0231 178.327 21.2833C177.658 21.5311 177.163 21.8718 176.841 22.3054C176.518 22.7391 176.351 23.2347 176.339 23.7922C176.314 24.2506 176.395 24.6657 176.58 25.0374C176.779 25.3967 177.088 25.725 177.51 26.0224C177.931 26.3073 178.47 26.5675 179.126 26.8029C179.783 27.0383 180.564 27.2489 181.468 27.4348L184.59 28.1038C186.697 28.5499 188.499 29.1384 189.998 29.8694C191.498 30.6003 192.724 31.4614 193.678 32.4526C194.632 33.4314 195.332 34.5341 195.778 35.7607C196.237 36.9872 196.472 38.3253 196.484 39.7749C196.472 42.2776 195.846 44.3963 194.607 46.1308C193.368 47.8654 191.597 49.1849 189.292 50.0893C187 50.9938 184.243 51.446 181.022 51.446C177.714 51.446 174.827 50.9566 172.362 49.9778C169.909 48.999 168.001 47.4937 166.638 45.4618C165.287 43.4175 164.606 40.8033 164.593 37.6191H174.406C174.468 38.7837 174.759 39.7625 175.279 40.5555C175.8 41.3484 176.531 41.9493 177.472 42.3582C178.426 42.767 179.56 42.9715 180.873 42.9715C181.976 42.9715 182.899 42.8352 183.643 42.5626C184.386 42.29 184.95 41.9121 185.334 41.4289C185.718 40.9457 185.916 40.3944 185.928 39.7749C185.916 39.1926 185.724 38.6846 185.352 38.251C184.993 37.8049 184.398 37.4085 183.568 37.0616C182.738 36.7023 181.617 36.3677 180.204 36.058L176.413 35.2403C173.043 34.5093 170.386 33.2889 168.44 31.5791C166.508 29.857 165.547 27.5091 165.56 24.5356C165.547 22.1196 166.192 20.0072 167.493 18.1983C168.806 16.377 170.621 14.9584 172.938 13.9424C175.267 12.9265 177.937 12.4185 180.948 12.4185C184.02 12.4185 186.678 12.9326 188.921 13.961C191.163 14.9893 192.891 16.4389 194.106 18.3098C195.332 20.1682 195.952 22.3426 195.964 24.8329H186.077ZM199.374 21.2647V12.9388H232.455V21.2647L221.007 21.2647V51H210.822V21.2647H199.374ZM258.868 12.9388H269.201V37.3218C269.201 40.2209 268.507 42.7299 267.12 44.8485C265.744 46.9547 263.824 48.584 261.358 49.7362C258.893 50.8761 256.031 51.446 252.772 51.446C249.489 51.446 246.615 50.8761 244.149 49.7362C241.684 48.584 239.763 46.9547 238.388 44.8485C237.025 42.7299 236.344 40.2209 236.344 37.3218V12.9388H246.677V36.4297C246.677 37.6067 246.937 38.6598 247.457 39.5891C247.978 40.5059 248.696 41.2245 249.613 41.7449C250.542 42.2652 251.595 42.5254 252.772 42.5254C253.962 42.5254 255.015 42.2652 255.932 41.7449C256.849 41.2245 257.567 40.5059 258.088 39.5891C258.608 38.6598 258.868 37.6067 258.868 36.4297V12.9388ZM274.112 51V12.9388H290.615C293.514 12.9388 295.949 13.3291 297.919 14.1097C299.901 14.8902 301.394 15.9929 302.398 17.4177C303.414 18.8425 303.922 20.5213 303.922 22.4541C303.922 23.8542 303.612 25.1303 302.992 26.2825C302.385 27.4348 301.53 28.4012 300.428 29.1817C299.325 29.9499 298.037 30.4826 296.562 30.78V31.1517C298.198 31.2136 299.684 31.6287 301.022 32.3969C302.361 33.1526 303.426 34.1995 304.219 35.5376C305.012 36.8633 305.408 38.4244 305.408 40.2209C305.408 42.3024 304.863 44.1547 303.773 45.7777C302.695 47.4008 301.159 48.6769 299.164 49.6061C297.169 50.5354 294.79 51 292.028 51H274.112ZM284.445 42.7484H289.277C291.012 42.7484 292.312 42.4263 293.18 41.782C294.047 41.1254 294.481 40.159 294.481 38.8829C294.481 37.9908 294.276 37.235 293.867 36.6155C293.459 35.9961 292.876 35.5252 292.12 35.2031C291.377 34.881 290.479 34.7199 289.426 34.7199H284.445V42.7484ZM284.445 28.3268H288.682C289.587 28.3268 290.386 28.1844 291.08 27.8994C291.774 27.6144 292.312 27.2056 292.697 26.6728C293.093 26.1277 293.291 25.4648 293.291 24.6843C293.291 23.5072 292.87 22.609 292.028 21.9895C291.185 21.3576 290.12 21.0417 288.831 21.0417H284.445V28.3268ZM309.07 51V12.9388L336.5 12.9388V21.2647H319.403V27.8065H335.088V36.1323H319.403V42.6741H336.426V51H309.07Z"/>
</mask>
<path d="M49.9175 27.2118V28.3405H51.1448L51.0423 27.1175L49.9175 27.2118ZM39.4358 27.2118L38.3112 27.3082L38.3997 28.3405H39.4358V27.2118ZM38.8411 24.8515L37.8074 25.3049L37.8107 25.3125L37.8141 25.32L38.8411 24.8515ZM37.5402 23.0302L36.7608 23.8467L36.7703 23.8558L36.78 23.8646L37.5402 23.0302ZM35.5517 21.8408L35.1646 22.9012L35.172 22.9039L35.1795 22.9065L35.5517 21.8408ZM28.4895 22.6771L27.8416 21.7528L27.8371 21.756L28.4895 22.6771ZM25.7762 26.3011L24.7259 25.8876L24.7231 25.8948L25.7762 26.3011ZM25.7948 37.8235L24.7444 38.2371L24.7485 38.247L25.7948 37.8235ZM28.5267 41.3546L27.9006 42.2938L27.9074 42.2983L28.5267 41.3546ZM35.3844 42.1723L35.7201 43.25L35.7281 43.2475L35.7361 43.2449L35.3844 42.1723ZM37.3544 41.113L38.0712 41.9849L38.0712 41.9849L37.3544 41.113ZM38.711 39.459L37.7208 38.9171L37.7172 38.9238L38.711 39.459ZM39.4358 37.2474L39.4438 36.1187L38.4662 36.1117L38.3198 37.0783L39.4358 37.2474ZM49.9175 37.3218L51.043 37.4083L51.1358 36.2016L49.9255 36.193L49.9175 37.3218ZM48.5608 42.2467L49.5823 42.7269L49.5837 42.724L48.5608 42.2467ZM45.2342 46.8556L46.0253 47.6608L46.0254 47.6607L45.2342 46.8556ZM23.1929 49.2716L22.6546 50.2637L22.6565 50.2647L23.1929 49.2716ZM16.6326 42.6555L15.6431 43.1987L15.6449 43.2019L16.6326 42.6555ZM16.6884 21.2647L17.6715 21.8193L17.6725 21.8175L16.6884 21.2647ZM23.3044 14.6672L23.8375 15.6622L23.8409 15.6603L23.3044 14.6672ZM39.2314 13.4035L39.5804 12.33L39.5804 12.33L39.2314 13.4035ZM44.5466 16.2841L43.826 17.153L43.8302 17.1564L44.5466 16.2841ZM48.2263 20.9116L47.2194 21.4218L47.2194 21.4218L48.2263 20.9116ZM49.9175 26.083H39.4358V28.3405H49.9175V26.083ZM40.5605 27.1154C40.4764 26.1349 40.2499 25.2202 39.8681 24.3831L37.8141 25.32C38.0766 25.8953 38.2465 26.5541 38.3112 27.3082L40.5605 27.1154ZM39.8748 24.3981C39.5031 23.5505 38.9775 22.8127 38.3004 22.1959L36.78 23.8646C37.218 24.2637 37.5597 24.7401 37.8074 25.3049L39.8748 24.3981ZM38.3196 22.2137C37.6471 21.5718 36.8414 21.0956 35.9238 20.7752L35.1795 22.9065C35.823 23.1312 36.343 23.4479 36.7608 23.8467L38.3196 22.2137ZM35.9388 20.7805C35.0128 20.4425 33.9925 20.2846 32.8941 20.2846V22.5422C33.778 22.5422 34.5294 22.6693 35.1646 22.9012L35.9388 20.7805ZM32.8941 20.2846C30.9709 20.2846 29.2658 20.7544 27.8416 21.7529L29.1375 23.6014C30.1169 22.9148 31.3481 22.5422 32.8941 22.5422V20.2846ZM27.8371 21.756C26.4412 22.7448 25.4126 24.1433 24.7259 25.8876L26.8265 26.7146C27.3787 25.3119 28.159 24.2945 29.142 23.5982L27.8371 21.756ZM24.7231 25.8948C24.0532 27.631 23.7368 29.6656 23.7368 31.9694H25.9943C25.9943 29.8625 26.285 28.1182 26.8293 26.7074L24.7231 25.8948ZM23.7368 31.9694C23.7368 34.3904 24.0576 36.4923 24.7445 38.237L26.8451 37.41C26.293 36.0077 25.9943 34.2069 25.9943 31.9694H23.7368ZM24.7485 38.247C25.4499 39.98 26.4908 41.3539 27.9006 42.2938L29.1528 40.4154C28.1838 39.7694 27.4034 38.7892 26.8411 37.4L24.7485 38.247ZM27.9074 42.2983C29.3112 43.2195 30.9665 43.6542 32.8197 43.6542V41.3966C31.3278 41.3966 30.121 41.0507 29.146 40.4109L27.9074 42.2983ZM32.8197 43.6542C33.865 43.6542 34.836 43.5254 35.7201 43.25L35.0487 41.0946C34.4212 41.2901 33.6825 41.3966 32.8197 41.3966V43.6542ZM35.7361 43.2449C36.6114 42.9579 37.395 42.5409 38.0712 41.9849L36.6375 40.2411C36.1987 40.6019 35.6689 40.8911 35.0327 41.0997L35.7361 43.2449ZM38.0712 41.9849C38.7437 41.432 39.2894 40.7657 39.7049 39.9941L37.7172 38.9238C37.4388 39.4407 37.0801 39.8772 36.6375 40.2411L38.0712 41.9849ZM39.7013 40.0008C40.1303 39.2167 40.4102 38.3512 40.5519 37.4165L38.3198 37.0783C38.2136 37.779 38.0104 38.3879 37.7208 38.9171L39.7013 40.0008ZM39.4278 38.3762L49.9095 38.4505L49.9255 36.193L39.4438 36.1187L39.4278 38.3762ZM48.792 37.2352C48.6799 38.6926 48.2692 40.2024 47.538 41.7693L49.5837 42.724C50.4136 40.9457 50.9073 39.1722 51.043 37.4083L48.792 37.2352ZM47.5393 41.7664C46.821 43.2942 45.7942 44.7227 44.443 46.0505L46.0254 47.6607C47.5486 46.1637 48.7395 44.5196 49.5823 42.7269L47.5393 41.7664ZM44.4431 46.0505C43.1371 47.3338 41.5013 48.3851 39.5131 49.1921L40.3621 51.2839C42.5864 50.3811 44.4817 49.1775 46.0253 47.6608L44.4431 46.0505ZM39.5131 49.1921C37.5684 49.9814 35.2708 50.3916 32.5967 50.3916V52.6491C35.4979 52.6491 38.0943 52.2044 40.3621 51.2839L39.5131 49.1921ZM32.5967 50.3916C29.2696 50.3916 26.3227 49.6793 23.7294 48.2785L22.6565 50.2647C25.6137 51.8622 28.9361 52.6491 32.5967 52.6491V50.3916ZM23.7313 48.2795C21.1689 46.8891 19.1331 44.8439 17.6203 42.1091L15.6449 43.2019C17.3534 46.2903 19.6912 48.6558 22.6546 50.2637L23.7313 48.2795ZM17.6221 42.1123C16.1365 39.4061 15.364 36.0419 15.364 31.9694H13.1064C13.1064 36.3219 13.9321 40.0818 15.6431 43.1987L17.6221 42.1123ZM15.364 31.9694C15.364 27.8745 16.1542 24.5091 17.6715 21.8193L15.7052 20.7101C13.9516 23.8187 13.1064 27.5898 13.1064 31.9694H15.364ZM17.6725 21.8175C19.2094 19.0814 21.2633 17.0412 23.8375 15.6622L22.7714 13.6722C19.795 15.2667 17.4382 17.6249 15.7042 20.7119L17.6725 21.8175ZM23.8409 15.6603C26.4378 14.2576 29.3483 13.5472 32.5967 13.5472V11.2897C29.006 11.2897 25.7217 12.0785 22.768 13.6741L23.8409 15.6603ZM32.5967 13.5472C34.8972 13.5472 36.9893 13.8614 38.8824 14.4769L39.5804 12.33C37.4344 11.6322 35.1034 11.2897 32.5967 11.2897V13.5472ZM38.8824 14.4769C40.7762 15.0927 42.4197 15.9867 43.826 17.1529L45.2671 15.4152C43.6256 14.0539 41.7257 13.0275 39.5804 12.33L38.8824 14.4769ZM43.8302 17.1564C45.2281 18.3043 46.3578 19.7216 47.2194 21.4218L49.2332 20.4014C48.2363 18.4342 46.9129 16.7666 45.2629 15.4117L43.8302 17.1564ZM47.2194 21.4218C48.0735 23.1072 48.6047 25.0623 48.7927 27.306L51.0423 27.1175C50.8338 24.6284 50.2376 22.3833 49.2332 20.4014L47.2194 21.4218ZM89.0054 42.6927L89.9868 43.2505L89.9878 43.2487L89.0054 42.6927ZM82.3336 49.2902L82.8629 50.2872L82.8664 50.2853L82.3336 49.2902ZM63.5632 49.2716L63.0251 50.2639L63.0304 50.2667L63.5632 49.2716ZM56.9099 42.6555L55.9258 43.2083L55.9286 43.2133L56.9099 42.6555ZM56.9099 21.2647L55.9276 20.7087L55.9268 20.7101L56.9099 21.2647ZM63.5632 14.6672L64.0944 15.6632L64.096 15.6623L63.5632 14.6672ZM82.3336 14.6672L81.8008 15.6623L81.8042 15.6642L82.3336 14.6672ZM89.0054 21.2647L88.0231 21.8207L88.0241 21.8225L89.0054 21.2647ZM79.9362 26.2082L78.8802 26.6073L78.8841 26.6173L79.9362 26.2082ZM77.2786 22.64L76.6299 23.5638L76.6412 23.5716L77.2786 22.64ZM68.6368 22.64L69.2788 23.5684L69.2808 23.567L68.6368 22.64ZM65.9792 26.2082L64.9261 25.8019L64.9244 25.8064L65.9792 26.2082ZM65.9792 37.7492L64.9233 38.1483L64.9272 38.1583L65.9792 37.7492ZM68.6368 41.3174L67.9881 42.2413L67.9994 42.249L68.6368 41.3174ZM77.2786 41.3174L77.9206 42.2459L77.9226 42.2444L77.2786 41.3174ZM79.9362 37.7492L78.8831 37.3429L78.8813 37.3474L79.9362 37.7492ZM90.3484 31.9694C90.3484 36.0628 89.5526 39.4342 88.0231 42.1367L89.9878 43.2487C91.7539 40.128 92.6059 36.3505 92.6059 31.9694H90.3484ZM88.0241 42.1349C86.476 44.8586 84.4035 46.9016 81.8008 48.2951L82.8664 50.2853C85.8638 48.6805 88.2392 46.3251 89.9868 43.2505L88.0241 42.1349ZM81.8042 48.2932C79.181 49.6861 76.2431 50.3916 72.967 50.3916V52.6491C76.5795 52.6491 79.886 51.8678 82.8629 50.2871L81.8042 48.2932ZM72.967 50.3916C69.6662 50.3916 66.7174 49.68 64.096 48.2765L63.0304 50.2667C66.0092 51.8615 69.3295 52.6491 72.967 52.6491V50.3916ZM64.1012 48.2793C61.5088 46.8736 59.4405 44.8234 57.8913 42.0977L55.9286 43.2133C57.675 46.286 60.0422 48.6465 63.0252 50.2639L64.1012 48.2793ZM57.8941 42.1027C56.3752 39.3986 55.5855 36.038 55.5855 31.9694H53.328C53.328 36.3258 54.1738 40.0893 55.9258 43.2083L57.8941 42.1027ZM55.5855 31.9694C55.5855 27.8745 56.3758 24.5091 57.8931 21.8193L55.9268 20.7101C54.1732 23.8187 53.328 27.5898 53.328 31.9694H55.5855ZM57.8923 21.8207C59.4411 19.0841 61.5072 17.043 64.0944 15.6632L63.032 13.6712C60.0439 15.2649 57.6745 17.6221 55.9276 20.7087L57.8923 21.8207ZM64.096 15.6623C66.7174 14.2588 69.6662 13.5472 72.967 13.5472V11.2897C69.3295 11.2897 66.0092 12.0773 63.0304 13.6721L64.096 15.6623ZM72.967 13.5472C76.2415 13.5472 79.1782 14.2582 81.8008 15.6623L82.8664 13.6721C79.8888 12.0779 76.5811 11.2897 72.967 11.2897V13.5472ZM81.8042 15.6642C84.4037 17.0444 86.475 19.0854 88.0231 21.8207L89.9878 20.7087C88.2402 17.6209 85.8636 15.2635 82.8629 13.6702L81.8042 15.6642ZM88.0241 21.8225C89.5525 24.5116 90.3484 27.8757 90.3484 31.9694H92.6059C92.6059 27.5885 91.754 23.8162 89.9868 20.7069L88.0241 21.8225ZM81.9756 31.9694C81.9756 29.597 81.6607 27.5284 80.9882 25.7991L78.8841 26.6173C79.4258 28.0102 79.718 29.7824 79.718 31.9694H81.9756ZM80.992 25.8091C80.3307 24.0593 79.316 22.6663 77.916 21.7084L76.6412 23.5716C77.5952 24.2243 78.3522 25.2102 78.8803 26.6073L80.992 25.8091ZM77.9272 21.7162C76.537 20.74 74.8612 20.2846 72.967 20.2846V22.5422C74.4923 22.5422 75.6909 22.9045 76.63 23.5638L77.9272 21.7162ZM72.967 20.2846C71.0723 20.2846 69.393 20.7402 67.9927 21.713L69.2808 23.567C70.2346 22.9043 71.442 22.5422 72.967 22.5422V20.2846ZM67.9948 21.7115C66.6106 22.6687 65.5988 24.0582 64.9261 25.8019L67.0323 26.6145C67.5737 25.2112 68.3337 24.2219 69.2788 23.5684L67.9948 21.7115ZM64.9244 25.8064C64.2665 27.5332 63.9584 29.5991 63.9584 31.9694H66.2159C66.2159 29.7803 66.5025 28.0054 67.034 26.61L64.9244 25.8064ZM63.9584 31.9694C63.9584 34.3401 64.2666 36.4108 64.9233 38.1483L67.0351 37.3501C66.5023 35.9406 66.2159 34.1581 66.2159 31.9694H63.9584ZM64.9272 38.1583C65.6004 39.8895 66.6108 41.2742 67.9881 42.2412L69.2854 40.3936C68.3335 39.7252 67.5722 38.7311 67.0312 37.3401L64.9272 38.1583ZM67.9994 42.249C69.3989 43.2066 71.0758 43.6542 72.967 43.6542V41.3966C71.4386 41.3966 70.2287 41.039 69.2742 40.3858L67.9994 42.249ZM72.967 43.6542C74.8577 43.6542 76.531 43.2067 77.9206 42.2459L76.6366 40.389C75.6969 41.0388 74.4958 41.3966 72.967 41.3966V43.6542ZM77.9226 42.2444C79.3157 41.2766 80.3291 39.8884 80.991 38.151L78.8813 37.3474C78.3538 38.7321 77.5955 39.7228 76.6345 40.3904L77.9226 42.2444ZM80.9893 38.1555C81.6606 36.4156 81.9756 34.3422 81.9756 31.9694H79.718C79.718 34.156 79.4259 35.9358 78.8831 37.3429L80.9893 38.1555ZM96.258 51H95.1293V52.1287H96.258V51ZM96.258 12.9388V11.8101H95.1293V12.9388H96.258ZM125.045 18.9231L126.01 18.336L126.01 18.336L125.045 18.9231ZM124.99 32.7685L124.043 32.154L124.04 32.1585L124.99 32.7685ZM119.916 37.0058L119.464 35.9717L119.462 35.9726L119.916 37.0058ZM102.502 38.4368H101.374V39.5656H102.502V38.4368ZM102.502 30.4083V29.2795H101.374V30.4083H102.502ZM113.337 29.9623L113.708 31.0284L113.717 31.0253L113.337 29.9623ZM115.326 28.4941L114.403 27.8444L114.395 27.8561L115.326 28.4941ZM115.326 23.2161L114.384 23.8383L114.39 23.8481L114.397 23.8577L115.326 23.2161ZM113.337 21.6922L112.926 22.7433L112.935 22.7469L112.944 22.7503L113.337 21.6922ZM106.591 21.1904V20.0616H105.462V21.1904H106.591ZM106.591 51V52.1287H107.72V51H106.591ZM118.559 33.5305L119.551 32.9906L119.23 32.4017H118.559V33.5305ZM128.075 51V52.1287H129.975L129.066 50.46L128.075 51ZM116.85 51L115.853 51.5301L116.172 52.1287H116.85V51ZM107.557 33.5305V32.4017H105.678L106.561 34.0606L107.557 33.5305ZM97.3868 51V12.9388H95.1293V51H97.3868ZM96.258 14.0676H112.687V11.8101H96.258V14.0676ZM112.687 14.0676C115.375 14.0676 117.672 14.5565 119.609 15.4968L120.595 13.4659C118.295 12.3496 115.649 11.8101 112.687 11.8101V14.0676ZM119.609 15.4968C121.541 16.4346 123.022 17.7702 124.081 19.5102L126.01 18.336C124.715 16.2103 122.9 14.5848 120.595 13.4659L119.609 15.4968ZM124.081 19.5102C125.131 21.2345 125.682 23.3394 125.682 25.8737H127.94C127.94 23.006 127.314 20.4772 126.01 18.336L124.081 19.5102ZM125.682 25.8737C125.682 28.4301 125.114 30.5031 124.043 32.154L125.937 33.383C127.294 31.2922 127.94 28.7688 127.94 25.8737H125.682ZM124.04 32.1585C122.967 33.8286 121.455 35.1003 119.464 35.9717L120.369 38.04C122.738 37.0033 124.609 35.4501 125.939 33.3786L124.04 32.1585ZM119.462 35.9726C117.465 36.8511 115.092 37.308 112.315 37.308V39.5656C115.337 39.5656 118.031 39.0685 120.371 38.039L119.462 35.9726ZM112.315 37.308H102.502V39.5656H112.315V37.308ZM103.631 38.4368V30.4083H101.374V38.4368H103.631ZM102.502 31.5371H110.234V29.2795H102.502V31.5371ZM110.234 31.5371C111.534 31.5371 112.701 31.3787 113.708 31.0284L112.966 28.8962C112.264 29.1406 111.362 29.2795 110.234 29.2795V31.5371ZM113.717 31.0253C114.777 30.6468 115.646 30.0234 116.257 29.1321L114.395 27.8561C114.088 28.3029 113.632 28.6582 112.958 28.8993L113.717 31.0253ZM116.249 29.1437C116.89 28.2324 117.161 27.111 117.161 25.8737H114.903C114.903 26.7921 114.703 27.4178 114.403 27.8445L116.249 29.1437ZM117.161 25.8737C117.161 24.6258 116.891 23.4959 116.254 22.5745L114.397 23.8577C114.702 24.2991 114.903 24.941 114.903 25.8737H117.161ZM116.268 22.5938C115.662 21.6778 114.796 21.0297 113.73 20.634L112.944 22.7503C113.613 22.9989 114.072 23.3667 114.384 23.8383L116.268 22.5938ZM113.749 20.641C112.728 20.2416 111.546 20.0616 110.234 20.0616V22.3191C111.35 22.3191 112.237 22.4737 112.926 22.7433L113.749 20.641ZM110.234 20.0616H106.591V22.3191H110.234V20.0616ZM105.462 21.1904V51H107.72V21.1904H105.462ZM106.591 49.8712H96.258V52.1287H106.591V49.8712ZM117.568 34.0704L127.083 51.5399L129.066 50.46L119.551 32.9906L117.568 34.0704ZM128.075 49.8712H116.85V52.1287H128.075V49.8712ZM117.846 50.4699L108.554 33.0004L106.561 34.0606L115.853 51.5301L117.846 50.4699ZM107.557 34.6593H118.559V32.4017H107.557V34.6593ZM131.216 51H130.087V52.1287H131.216V51ZM131.216 12.9388V11.8101H130.087V12.9388H131.216ZM155.06 14.6115L154.534 15.6103L154.534 15.6103L155.06 14.6115ZM160.003 19.3133L160.978 18.745L160.978 18.745L160.003 19.3133ZM159.947 33.4748L158.983 32.8878L158.98 32.8922L159.947 33.4748ZM154.874 38.0837L154.373 37.0718L154.371 37.073L154.874 38.0837ZM137.46 39.7006H136.331V40.8293H137.46V39.7006ZM137.46 31.6721V30.5433H136.331V31.6721H137.46ZM148.295 31.0402L148.794 32.0527L148.8 32.0498L148.295 31.0402ZM150.283 29.2003L149.313 28.624L149.306 28.6354L150.283 29.2003ZM150.283 23.6064L149.31 24.178L149.315 24.1872L149.321 24.1962L150.283 23.6064ZM148.295 21.8222L147.796 22.8348L147.805 22.8391L147.813 22.8433L148.295 21.8222ZM141.549 21.1904V20.0616H140.42V21.1904H141.549ZM141.549 51V52.1287H142.677V51H141.549ZM132.344 51V12.9388H130.087V51H132.344ZM131.216 14.0676H147.644V11.8101H131.216V14.0676ZM147.644 14.0676C150.319 14.0676 152.604 14.5947 154.534 15.6103L155.585 13.6126C153.278 12.3981 150.619 11.8101 147.644 11.8101V14.0676ZM154.534 15.6103C156.47 16.6294 157.96 18.0496 159.028 19.8817L160.978 18.745C159.692 16.538 157.886 14.8237 155.585 13.6126L154.534 15.6103ZM159.028 19.8817C160.089 21.7034 160.64 23.8613 160.64 26.394H162.897C162.897 23.5249 162.271 20.9623 160.978 18.745L159.028 19.8817ZM160.64 26.394C160.64 28.9479 160.073 31.0977 158.983 32.8879L160.911 34.0617C162.25 31.8623 162.897 29.2917 162.897 26.394H160.64ZM158.98 32.8922C157.895 34.6937 156.37 36.085 154.373 37.0718L155.374 39.0956C157.739 37.9266 159.596 36.2453 160.914 34.0573L158.98 32.8922ZM154.371 37.073C152.387 38.0594 150.031 38.5718 147.273 38.5718V40.8293C150.312 40.8293 153.024 40.2639 155.376 39.0945L154.371 37.073ZM147.273 38.5718H137.46V40.8293H147.273V38.5718ZM138.589 39.7006V31.6721H136.331V39.7006H138.589ZM137.46 32.8008H145.191V30.5433H137.46V32.8008ZM145.191 32.8008C146.532 32.8008 147.747 32.5684 148.794 32.0527L147.796 30.0277C147.133 30.3544 146.278 30.5433 145.191 30.5433V32.8008ZM148.8 32.0498C149.852 31.5234 150.685 30.7609 151.261 29.7653L149.306 28.6354C148.965 29.2256 148.472 29.6896 147.79 30.0306L148.8 32.0498ZM151.254 29.7766C151.845 28.7817 152.118 27.6401 152.118 26.394H149.861C149.861 27.3038 149.664 28.033 149.313 28.624L151.254 29.7766ZM152.118 26.394C152.118 25.1395 151.846 23.9962 151.246 23.0165L149.321 24.1962C149.662 24.7528 149.861 25.468 149.861 26.394H152.118ZM151.257 23.0347C150.676 22.0464 149.836 21.3009 148.776 20.8012L147.813 22.8433C148.488 23.1613 148.974 23.6052 149.31 24.178L151.257 23.0347ZM148.794 20.8097C147.747 20.294 146.532 20.0616 145.191 20.0616V22.3191C146.278 22.3191 147.133 22.508 147.796 22.8348L148.794 20.8097ZM145.191 20.0616H141.549V22.3191H145.191V20.0616ZM140.42 21.1904V51H142.677V21.1904H140.42ZM141.549 49.8712H131.216V52.1287H141.549V49.8712ZM186.077 24.8329L184.952 24.923L185.035 25.9617H186.077V24.8329ZM184.683 21.9338L183.953 22.7945L183.959 22.7998L184.683 21.9338ZM178.327 21.2833L178.719 22.3419L178.73 22.3378L178.327 21.2833ZM176.841 22.3054L175.934 21.6323L175.934 21.6323L176.841 22.3054ZM176.339 23.7922L177.466 23.8531L177.467 23.8352L177.467 23.8173L176.339 23.7922ZM176.58 25.0374L175.571 25.5422L175.581 25.5626L175.592 25.5827L176.58 25.0374ZM177.51 26.0224L176.859 26.9445L176.868 26.951L176.877 26.9573L177.51 26.0224ZM181.468 27.4348L181.705 26.331L181.695 26.3291L181.468 27.4348ZM184.59 28.1038L184.354 29.2075L184.356 29.2081L184.59 28.1038ZM189.998 29.8694L189.504 30.8839L189.998 29.8694ZM193.678 32.4526L192.865 33.2354L192.87 33.2405L193.678 32.4526ZM195.778 35.7607L194.717 36.1464L194.721 36.1558L195.778 35.7607ZM196.484 39.7749L197.613 39.7805L197.613 39.7729L197.613 39.7653L196.484 39.7749ZM194.607 46.1308L195.526 46.7869L195.526 46.7869L194.607 46.1308ZM189.292 50.0893L188.88 49.0386L188.878 49.0393L189.292 50.0893ZM172.362 49.9778L171.943 51.0262L171.945 51.0269L172.362 49.9778ZM166.638 45.4618L165.696 46.084L165.7 46.0905L166.638 45.4618ZM164.593 37.6191V36.4903H163.46L163.465 37.6235L164.593 37.6191ZM174.406 37.6191L175.533 37.5591L175.476 36.4903H174.406V37.6191ZM175.279 40.5555L174.336 41.1748L174.336 41.1748L175.279 40.5555ZM177.472 42.3582L177.023 43.3936L177.028 43.3957L177.472 42.3582ZM183.643 42.5626L184.031 43.6224L184.031 43.6224L183.643 42.5626ZM185.334 41.4289L186.217 42.1313L186.217 42.1313L185.334 41.4289ZM185.928 39.7749L187.057 39.7975L187.057 39.7742L187.057 39.7509L185.928 39.7749ZM185.352 38.251L184.473 38.9591L184.484 38.9725L184.495 38.9856L185.352 38.251ZM183.568 37.0616L183.12 38.0975L183.126 38.1003L183.133 38.1031L183.568 37.0616ZM180.204 36.058L180.446 34.9554L180.442 34.9546L180.204 36.058ZM176.413 35.2403L176.174 36.3434L176.175 36.3437L176.413 35.2403ZM168.44 31.5791L167.689 32.4219L167.695 32.4269L168.44 31.5791ZM165.56 24.5356L166.689 24.5403L166.689 24.5298L165.56 24.5356ZM167.493 18.1983L166.577 17.5381L166.576 17.5392L167.493 18.1983ZM172.938 13.9424L172.487 12.9078L172.485 12.9087L172.938 13.9424ZM188.921 13.961L188.45 14.987L188.45 14.987L188.921 13.961ZM194.106 18.3098L193.159 18.9243L193.164 18.9316L194.106 18.3098ZM195.964 24.8329V25.9617H197.098L197.093 24.8273L195.964 24.8329ZM187.202 24.7429C187.083 23.2508 186.505 21.9852 185.407 21.0677L183.959 22.7998C184.522 23.27 184.873 23.9371 184.952 24.923L187.202 24.7429ZM185.414 21.0731C184.305 20.1322 182.746 19.7642 180.948 19.7642V22.0218C182.495 22.0218 183.426 22.3476 183.953 22.7945L185.414 21.0731ZM180.948 19.7642C179.802 19.7642 178.779 19.9024 177.925 20.2288L178.73 22.3378C179.238 22.1438 179.962 22.0218 180.948 22.0218V19.7642ZM177.935 20.2248C177.126 20.5246 176.423 20.975 175.934 21.6323L177.747 22.9786C177.903 22.7686 178.191 22.5375 178.719 22.3418L177.935 20.2248ZM175.934 21.6323C175.468 22.2601 175.228 22.9838 175.21 23.7671L177.467 23.8173C177.475 23.4855 177.569 23.2181 177.747 22.9786L175.934 21.6323ZM175.212 23.7313C175.177 24.3643 175.288 24.9774 175.571 25.5422L177.59 24.5326C177.501 24.354 177.451 24.137 177.466 23.8531L175.212 23.7313ZM175.592 25.5827C175.891 26.1248 176.333 26.5733 176.859 26.9445L178.161 25.1002C177.844 24.8767 177.666 24.6685 177.569 24.4921L175.592 25.5827ZM176.877 26.9573C177.399 27.3106 178.03 27.6091 178.746 27.8655L179.507 25.7403C178.909 25.5259 178.462 25.304 178.142 25.0874L176.877 26.9573ZM178.746 27.8655C179.465 28.1235 180.3 28.3471 181.241 28.5405L181.695 26.3291C180.827 26.1508 180.101 25.9531 179.507 25.7403L178.746 27.8655ZM181.232 28.5385L184.354 29.2075L184.827 27.0001L181.705 26.3311L181.232 28.5385ZM184.356 29.2081C186.397 29.6402 188.107 30.2031 189.504 30.8839L190.493 28.8548C188.891 28.0736 186.996 27.4595 184.824 26.9995L184.356 29.2081ZM189.504 30.8839C190.908 31.5689 192.02 32.3574 192.865 33.2354L194.491 31.6698C193.428 30.5655 192.087 29.6318 190.493 28.8548L189.504 30.8839ZM192.87 33.2405C193.718 34.1102 194.329 35.0773 194.717 36.1464L196.839 35.3749C196.336 33.9908 195.547 32.7526 194.487 31.6647L192.87 33.2405ZM194.721 36.1558C195.129 37.2465 195.344 38.4526 195.356 39.7846L197.613 39.7653C197.6 38.198 197.345 36.7279 196.836 35.3655L194.721 36.1558ZM195.356 39.7693C195.344 42.0805 194.77 43.9614 193.689 45.4747L195.526 46.7869C196.923 44.8311 197.6 42.4748 197.613 39.7805L195.356 39.7693ZM193.689 45.4747C192.596 47.0043 191.015 48.2008 188.88 49.0386L189.705 51.1401C192.179 50.169 194.141 48.7264 195.526 46.7869L193.689 45.4747ZM188.878 49.0393C186.751 49.8784 184.143 50.3172 181.022 50.3172V52.5748C184.344 52.5748 187.249 52.1091 189.707 51.1393L188.878 49.0393ZM181.022 50.3172C177.823 50.3172 175.083 49.8436 172.778 48.9287L171.945 51.0269C174.572 52.0696 177.605 52.5748 181.022 52.5748V50.3172ZM172.78 48.9294C170.521 48.0279 168.801 46.6607 167.575 44.833L165.7 46.0905C167.2 48.3267 169.297 49.9701 171.943 51.0262L172.78 48.9294ZM167.579 44.8396C166.382 43.0262 165.734 40.6441 165.722 37.6147L163.465 37.6235C163.478 40.9624 164.193 43.8087 165.696 46.084L167.579 44.8396ZM164.593 38.7479H174.406V36.4903H164.593V38.7479ZM173.279 37.6791C173.349 38.9976 173.683 40.1805 174.336 41.1748L176.223 39.9362C175.835 39.3445 175.587 38.5699 175.533 37.5591L173.279 37.6791ZM174.336 41.1748C174.987 42.1668 175.897 42.9046 177.023 43.3935L177.922 41.3228C177.165 40.994 176.613 40.53 176.223 39.9362L174.336 41.1748ZM177.028 43.3957C178.154 43.8784 179.446 44.1002 180.873 44.1002V41.8427C179.674 41.8427 178.699 41.6556 177.917 41.3207L177.028 43.3957ZM180.873 44.1002C182.061 44.1002 183.125 43.9547 184.031 43.6224L183.254 41.5028C182.673 41.7157 181.892 41.8427 180.873 41.8427V44.1002ZM184.031 43.6224C184.915 43.2983 185.672 42.8168 186.217 42.1313L184.45 40.7266C184.227 41.0075 183.857 41.2818 183.254 41.5028L184.031 43.6224ZM186.217 42.1313C186.756 41.4537 187.04 40.6633 187.057 39.7975L184.8 39.7523C184.792 40.1255 184.68 40.4378 184.45 40.7266L186.217 42.1313ZM187.057 39.7509C187.039 38.9131 186.755 38.1526 186.209 37.5164L184.495 38.9856C184.693 39.2167 184.793 39.4721 184.8 39.7989L187.057 39.7509ZM186.231 37.5429C185.705 36.8901 184.917 36.402 184.003 36.0201L183.133 38.1031C183.879 38.4149 184.281 38.7198 184.473 38.9591L186.231 37.5429ZM184.017 36.0257C183.093 35.6257 181.893 35.2727 180.446 34.9554L179.963 37.1606C181.341 37.4628 182.384 37.7788 183.12 38.0975L184.017 36.0257ZM180.442 34.9546L176.651 34.1369L176.175 36.3437L179.966 37.1614L180.442 34.9546ZM176.652 34.1372C173.41 33.4339 170.947 32.2792 169.186 30.7313L167.695 32.4269C169.825 34.2986 172.676 35.5847 176.174 36.3434L176.652 34.1372ZM169.191 30.7364C167.537 29.2625 166.677 27.2435 166.689 24.5403L164.431 24.5309C164.417 27.7748 165.478 30.4514 167.689 32.4219L169.191 30.7364ZM166.689 24.5298C166.677 22.3311 167.259 20.456 168.409 18.8573L166.576 17.5392C165.124 19.5583 164.418 21.9081 164.431 24.5414L166.689 24.5298ZM168.408 18.8585C169.589 17.2207 171.235 15.9216 173.391 14.9762L172.485 12.9087C170.007 13.9951 168.023 15.5332 166.577 17.5381L168.408 18.8585ZM173.389 14.977C175.552 14.0336 178.064 13.5472 180.948 13.5472V11.2897C177.81 11.2897 174.982 11.8193 172.487 12.9078L173.389 14.977ZM180.948 13.5472C183.897 13.5472 186.387 14.0409 188.45 14.987L189.391 12.935C186.969 11.8244 184.144 11.2897 180.948 11.2897V13.5472ZM188.45 14.987C190.519 15.9359 192.073 17.2518 193.159 18.9243L195.052 17.6953C193.71 15.6261 191.807 14.0427 189.391 12.935L188.45 14.987ZM193.164 18.9316C194.255 20.5859 194.824 22.5405 194.835 24.8386L197.093 24.8273C197.079 22.1447 196.409 19.7505 195.048 17.688L193.164 18.9316ZM195.964 23.7042H186.077V25.9617H195.964V23.7042ZM199.374 21.2647H198.246V22.3935H199.374V21.2647ZM199.374 12.9388V11.8101H198.246V12.9388H199.374ZM232.455 12.9388H233.584V11.8101H232.455V12.9388ZM232.455 21.2647V22.3935H233.584V21.2647H232.455ZM221.007 21.2647V20.1359H219.878V21.2647H221.007ZM221.007 51V52.1287H222.135V51H221.007ZM210.822 51H209.694V52.1287H210.822V51ZM210.822 21.2647H211.951V20.1359H210.822V21.2647ZM200.503 21.2647V12.9388H198.246V21.2647H200.503ZM199.374 14.0676H232.455V11.8101H199.374V14.0676ZM231.326 12.9388V21.2647H233.584V12.9388H231.326ZM232.455 20.1359L221.007 20.1359V22.3935L232.455 22.3935V20.1359ZM219.878 21.2647V51H222.135V21.2647H219.878ZM221.007 49.8712H210.822V52.1287H221.007V49.8712ZM211.951 51V21.2647H209.694V51H211.951ZM210.822 20.1359H199.374V22.3935H210.822V20.1359ZM258.868 12.9388V11.8101H257.739V12.9388H258.868ZM269.201 12.9388H270.33V11.8101H269.201V12.9388ZM267.12 44.8485L266.175 44.23L266.174 44.2314L267.12 44.8485ZM261.358 49.7362L261.832 50.7608L261.836 50.7588L261.358 49.7362ZM244.149 49.7362L243.671 50.7588L243.675 50.7608L244.149 49.7362ZM238.388 44.8485L237.439 45.4592L237.443 45.4656L238.388 44.8485ZM236.344 12.9388V11.8101H235.215V12.9388H236.344ZM246.677 12.9388H247.805V11.8101H246.677V12.9388ZM247.457 39.5891L246.472 40.1406L246.475 40.1462L247.457 39.5891ZM249.613 41.7449L249.056 42.7266L249.061 42.7297L249.613 41.7449ZM255.932 41.7449L256.489 42.7266L256.489 42.7266L255.932 41.7449ZM258.088 39.5891L259.069 40.1462L259.072 40.1406L258.088 39.5891ZM258.868 14.0676H269.201V11.8101H258.868V14.0676ZM268.072 12.9388V37.3218H270.33V12.9388H268.072ZM268.072 37.3218C268.072 40.0339 267.426 42.3207 266.175 44.23L268.064 45.467C269.589 43.139 270.33 40.408 270.33 37.3218H268.072ZM266.174 44.2314C264.924 46.1472 263.172 47.6428 260.88 48.7136L261.836 50.7588C264.476 49.5252 266.565 47.7623 268.065 45.4656L266.174 44.2314ZM260.885 48.7116C258.594 49.7705 255.899 50.3172 252.772 50.3172V52.5748C256.162 52.5748 259.191 51.9816 261.832 50.7608L260.885 48.7116ZM252.772 50.3172C249.619 50.3172 246.912 49.77 244.623 48.7116L243.675 50.7608C246.317 51.9821 249.359 52.5748 252.772 52.5748V50.3172ZM244.627 48.7136C242.336 47.6428 240.584 46.1472 239.333 44.2314L237.443 45.4656C238.942 47.7623 241.031 49.5252 243.671 50.7588L244.627 48.7136ZM239.337 44.2378C238.108 42.3275 237.472 40.0378 237.472 37.3218H235.215C235.215 40.404 235.942 43.1322 237.439 45.4592L239.337 44.2378ZM237.472 37.3218V12.9388H235.215V37.3218H237.472ZM236.344 14.0676H246.677V11.8101H236.344V14.0676ZM245.548 12.9388V36.4297H247.805V12.9388H245.548ZM245.548 36.4297C245.548 37.7791 245.848 39.0256 246.472 40.1406L248.442 39.0375C248.026 38.2941 247.805 37.4344 247.805 36.4297H245.548ZM246.475 40.1462C247.096 41.2403 247.962 42.1056 249.056 42.7266L250.17 40.7632C249.431 40.3434 248.859 39.7715 248.439 39.0319L246.475 40.1462ZM249.061 42.7297C250.176 43.3541 251.423 43.6542 252.772 43.6542V41.3966C251.768 41.3966 250.908 41.1764 250.164 40.76L249.061 42.7297ZM252.772 43.6542C254.132 43.6542 255.381 43.3552 256.489 42.7266L255.375 40.7632C254.648 41.1753 253.792 41.3966 252.772 41.3966V43.6542ZM256.489 42.7266C257.583 42.1056 258.448 41.2403 259.069 40.1462L257.106 39.0319C256.686 39.7715 256.114 40.3434 255.375 40.7632L256.489 42.7266ZM259.072 40.1406C259.697 39.0256 259.997 37.7791 259.997 36.4297H257.739C257.739 37.4344 257.519 38.2941 257.103 39.0375L259.072 40.1406ZM259.997 36.4297V12.9388H257.739V36.4297H259.997ZM274.112 51H272.983V52.1287H274.112V51ZM274.112 12.9388V11.8101H272.983V12.9388H274.112ZM297.919 14.1097L297.503 15.1591L297.505 15.16L297.919 14.1097ZM302.398 17.4177L301.475 18.0677L301.479 18.073L302.398 17.4177ZM302.992 26.2825L301.998 25.748L301.994 25.7564L302.992 26.2825ZM300.428 29.1817L301.073 30.1079L301.08 30.103L300.428 29.1817ZM296.562 30.78L296.339 29.6735L295.433 29.8561V30.78H296.562ZM296.562 31.1517H295.433V32.2385L296.519 32.2797L296.562 31.1517ZM301.022 32.3969L300.46 33.3758L300.467 33.3797L301.022 32.3969ZM304.219 35.5376L303.248 36.1131L303.25 36.1171L304.219 35.5376ZM303.773 45.7777L302.836 45.1483L302.833 45.1532L303.773 45.7777ZM299.164 49.6061L298.687 48.5829L298.687 48.5829L299.164 49.6061ZM284.445 42.7484H283.316V43.8772H284.445V42.7484ZM293.18 41.782L293.853 42.6882L293.861 42.682L293.18 41.782ZM292.12 35.2031L291.672 36.2388L291.678 36.2415L292.12 35.2031ZM284.445 34.7199V33.5911H283.316V34.7199H284.445ZM284.445 28.3268H283.316V29.4556H284.445V28.3268ZM291.08 27.8994L291.509 28.9435L291.509 28.9435L291.08 27.8994ZM292.697 26.6728L291.784 26.0089L291.781 26.0127L292.697 26.6728ZM292.028 21.9895L291.35 22.8926L291.359 22.8989L292.028 21.9895ZM284.445 21.0417V19.9129H283.316V21.0417H284.445ZM275.241 51V12.9388H272.983V51H275.241ZM274.112 14.0676H290.615V11.8101H274.112V14.0676ZM290.615 14.0676C293.421 14.0676 295.704 14.4464 297.503 15.1591L298.335 13.0603C296.193 12.2118 293.608 11.8101 290.615 11.8101V14.0676ZM297.505 15.16C299.328 15.8778 300.624 16.8598 301.475 18.0677L303.321 16.7677C302.164 15.126 300.474 13.9026 298.332 13.0594L297.505 15.16ZM301.479 18.073C302.344 19.2866 302.793 20.7305 302.793 22.4541H305.05C305.05 20.3121 304.483 18.3984 303.317 16.7624L301.479 18.073ZM302.793 22.4541C302.793 23.6811 302.523 24.7716 301.998 25.748L303.987 26.8171C304.701 25.489 305.05 24.0272 305.05 22.4541H302.793ZM301.994 25.7564C301.473 26.7455 300.739 27.5785 299.776 28.2604L301.08 30.103C302.322 29.2238 303.298 28.124 303.991 26.8087L301.994 25.7564ZM299.783 28.2555C298.821 28.9254 297.68 29.4031 296.339 29.6735L296.785 31.8865C298.393 31.5622 299.829 30.9744 301.073 30.1079L299.783 28.2555ZM295.433 30.78V31.1517H297.691V30.78H295.433ZM296.519 32.2797C297.984 32.3351 299.29 32.7041 300.46 33.3758L301.584 31.4179C300.078 30.5533 298.411 30.0922 296.605 30.0237L296.519 32.2797ZM300.467 33.3797C301.631 34.0371 302.554 34.9427 303.248 36.1131L305.19 34.9622C304.298 33.4564 303.09 32.2681 301.578 31.414L300.467 33.3797ZM303.25 36.1171C303.922 37.2408 304.28 38.5948 304.28 40.2209H306.537C306.537 38.2541 306.101 36.4859 305.188 34.9582L303.25 36.1171ZM304.28 40.2209C304.28 42.0934 303.793 43.7236 302.836 45.1483L304.71 46.4071C305.933 44.5857 306.537 42.5114 306.537 40.2209H304.28ZM302.833 45.1532C301.884 46.5817 300.519 47.7298 298.687 48.5829L299.641 50.6293C301.799 49.624 303.506 48.2199 304.713 46.4022L302.833 45.1532ZM298.687 48.5829C296.875 49.4272 294.667 49.8712 292.028 49.8712V52.1287C294.914 52.1287 297.464 51.6435 299.641 50.6293L298.687 48.5829ZM292.028 49.8712H274.112V52.1287H292.028V49.8712ZM284.445 43.8772H289.277V41.6197H284.445V43.8772ZM289.277 43.8772C291.118 43.8772 292.705 43.5411 293.853 42.6882L292.507 40.8759C291.92 41.3116 290.905 41.6197 289.277 41.6197V43.8772ZM293.861 42.682C295.061 41.7734 295.609 40.4433 295.609 38.8829H293.352C293.352 39.8747 293.033 40.4774 292.498 40.8821L293.861 42.682ZM295.609 38.8829C295.609 37.8149 295.363 36.8322 294.809 35.9938L292.925 37.2373C293.19 37.6379 293.352 38.1666 293.352 38.8829H295.609ZM294.809 35.9938C294.266 35.1699 293.5 34.5641 292.563 34.1647L291.678 36.2415C292.252 36.4864 292.651 36.8222 292.925 37.2373L294.809 35.9938ZM292.569 34.1674C291.649 33.7684 290.589 33.5911 289.426 33.5911V35.8487C290.369 35.8487 291.106 35.9935 291.672 36.2388L292.569 34.1674ZM289.426 33.5911H284.445V35.8487H289.426V33.5911ZM283.316 34.7199V42.7484H285.574V34.7199H283.316ZM284.445 29.4556H288.682V27.1981H284.445V29.4556ZM288.682 29.4556C289.704 29.4556 290.654 29.2946 291.509 28.9435L290.651 26.8553C290.118 27.0741 289.469 27.1981 288.682 27.1981V29.4556ZM291.509 28.9435C292.369 28.5901 293.088 28.0599 293.612 27.3329L291.781 26.0127C291.537 26.3513 291.178 26.6387 290.651 26.8553L291.509 28.9435ZM293.609 27.3367C294.168 26.5693 294.42 25.6643 294.42 24.6843H292.162C292.162 25.2653 292.019 25.686 291.784 26.0089L293.609 27.3367ZM294.42 24.6843C294.42 23.2001 293.867 21.9413 292.696 21.0801L291.359 22.8989C291.873 23.2767 292.162 23.8144 292.162 24.6843H294.42ZM292.705 21.0865C291.627 20.2778 290.308 19.9129 288.831 19.9129V22.1705C289.931 22.1705 290.744 22.4375 291.35 22.8925L292.705 21.0865ZM288.831 19.9129H284.445V22.1705H288.831V19.9129ZM283.316 21.0417V28.3268H285.574V21.0417H283.316ZM309.07 51H307.941V52.1287H309.07V51ZM309.07 12.9388V11.8101H307.941V12.9388H309.07ZM336.5 12.9388H337.629V11.8101H336.5V12.9388ZM336.5 21.2647V22.3935H337.629V21.2647H336.5ZM319.403 21.2647V20.1359H318.274V21.2647H319.403ZM319.403 27.8065H318.274V28.9352H319.403V27.8065ZM335.088 27.8065H336.217V26.6777H335.088V27.8065ZM335.088 36.1323V37.2611H336.217V36.1323H335.088ZM319.403 36.1323V35.0036H318.274V36.1323H319.403ZM319.403 42.6741H318.274V43.8029H319.403V42.6741ZM336.426 42.6741H337.555V41.5453H336.426V42.6741ZM336.426 51V52.1287H337.555V51H336.426ZM310.198 51V12.9388H307.941V51H310.198ZM309.07 14.0676L336.5 14.0676V11.8101L309.07 11.8101V14.0676ZM335.372 12.9388V21.2647H337.629V12.9388H335.372ZM336.5 20.1359H319.403V22.3935H336.5V20.1359ZM318.274 21.2647V27.8065H320.531V21.2647H318.274ZM319.403 28.9352H335.088V26.6777H319.403V28.9352ZM333.959 27.8065V36.1323H336.217V27.8065H333.959ZM335.088 35.0036H319.403V37.2611H335.088V35.0036ZM318.274 36.1323V42.6741H320.531V36.1323H318.274ZM319.403 43.8029H336.426V41.5453H319.403V43.8029ZM335.297 42.6741V51H337.555V42.6741H335.297ZM336.426 49.8712H309.07V52.1287H336.426V49.8712Z" fill="#F8F379" mask="url(#path-2-outside-1_2579_714)"/>
<mask id="path-4-outside-2_2579_714" maskUnits="userSpaceOnUse" x="15.4293" y="13.2836" width="326" height="44" fill="black">
<rect fill="white" x="15.4293" y="13.2836" width="326" height="44"/>
<path d="M52.7956 30.4954H42.3139C42.2395 29.6281 42.0413 28.8413 41.7192 28.1351C41.4094 27.4289 40.9758 26.8218 40.4183 26.3138C39.8731 25.7935 39.2103 25.397 38.4297 25.1244C37.6492 24.8395 36.7633 24.697 35.7721 24.697C34.0376 24.697 32.5694 25.1182 31.3676 25.9607C30.1782 26.8032 29.2737 28.0112 28.6542 29.5847C28.0471 31.1582 27.7436 33.0476 27.7436 35.253C27.7436 37.5823 28.0533 39.5336 28.6728 41.1071C29.3047 42.6682 30.2153 43.8453 31.4048 44.6382C32.5942 45.4187 34.0252 45.809 35.6978 45.809C36.6518 45.809 37.5067 45.6913 38.2624 45.4559C39.0182 45.2081 39.6749 44.855 40.2324 44.3966C40.7899 43.9382 41.2422 43.3868 41.5891 42.7426C41.9484 42.0859 42.19 41.3487 42.3139 40.531L52.7956 40.6054C52.6717 42.216 52.2194 43.8576 51.4389 45.5303C50.6583 47.1905 49.5495 48.7268 48.1122 50.1392C46.6874 51.5393 44.9219 52.6667 42.8157 53.5216C40.7094 54.3765 38.2624 54.8039 35.4748 54.8039C31.9809 54.8039 28.8463 54.0544 26.071 52.5552C23.3081 51.0561 21.1213 48.8507 19.5106 45.9391C17.9124 43.0275 17.1132 39.4655 17.1132 35.253C17.1132 31.0157 17.931 27.4475 19.5664 24.5483C21.2018 21.6367 23.4072 19.4376 26.1825 17.9508C28.9578 16.4517 32.0552 15.7021 35.4748 15.7021C37.8784 15.7021 40.0899 16.0304 42.1094 16.6871C44.129 17.3437 45.9007 18.3039 47.4246 19.5677C48.9486 20.819 50.1751 22.3615 51.1044 24.1952C52.0336 26.0289 52.5973 28.1289 52.7956 30.4954ZM94.3552 35.253C94.3552 39.4903 93.5313 43.0647 91.8835 45.9763C90.2356 48.8755 88.0117 51.0746 85.2116 52.5738C82.4116 54.0606 79.2894 54.8039 75.845 54.8039C72.3759 54.8039 69.2413 54.0544 66.4412 52.5552C63.6536 51.0437 61.4358 48.8383 59.788 45.9391C58.1525 43.0275 57.3348 39.4655 57.3348 35.253C57.3348 31.0157 58.1525 27.4475 59.788 24.5483C61.4358 21.6367 63.6536 19.4376 66.4412 17.9508C69.2413 16.4517 72.3759 15.7021 75.845 15.7021C79.2894 15.7021 82.4116 16.4517 85.2116 17.9508C88.0117 19.4376 90.2356 21.6367 91.8835 24.5483C93.5313 27.4475 94.3552 31.0157 94.3552 35.253ZM83.7249 35.253C83.7249 32.9733 83.4213 31.0529 82.8142 29.4918C82.2195 27.9183 81.3337 26.7289 80.1566 25.9236C78.992 25.1058 77.5548 24.697 75.845 24.697C74.1352 24.697 72.6918 25.1058 71.5148 25.9236C70.3502 26.7289 69.4643 27.9183 68.8572 29.4918C68.2625 31.0529 67.9652 32.9733 67.9652 35.253C67.9652 37.5327 68.2625 39.4593 68.8572 41.0328C69.4643 42.5939 70.3502 43.7833 71.5148 44.601C72.6918 45.4064 74.1352 45.809 75.845 45.809C77.5548 45.809 78.992 45.4064 80.1566 44.601C81.3337 43.7833 82.2195 42.5939 82.8142 41.0328C83.4213 39.4593 83.7249 37.5327 83.7249 35.253ZM99.1361 54.2836V16.2224H115.565C118.39 16.2224 120.861 16.7366 122.98 17.765C125.099 18.7933 126.747 20.2739 127.924 22.2067C129.101 24.1395 129.689 26.4563 129.689 29.1573C129.689 31.883 129.082 34.1813 127.868 36.0521C126.666 37.923 124.975 39.3354 122.794 40.2894C120.626 41.2434 118.092 41.7204 115.193 41.7204H105.38V33.6919H113.112C114.326 33.6919 115.36 33.5432 116.215 33.2459C117.083 32.9361 117.745 32.4467 118.204 31.7777C118.675 31.1087 118.91 30.2352 118.91 29.1573C118.91 28.067 118.675 27.1811 118.204 26.4997C117.745 25.8059 117.083 25.2979 116.215 24.9758C115.36 24.6412 114.326 24.474 113.112 24.474H109.469V54.2836H99.1361ZM121.438 36.8141L130.953 54.2836H119.728L110.435 36.8141H121.438ZM134.094 54.2836V16.2224H150.522C153.347 16.2224 155.819 16.78 157.938 17.8951C160.056 19.0101 161.704 20.5774 162.881 22.5969C164.058 24.6165 164.647 26.9767 164.647 29.6776C164.647 32.4034 164.039 34.7636 162.825 36.7584C161.623 38.7531 159.932 40.2894 157.752 41.3673C155.584 42.4452 153.05 42.9842 150.151 42.9842H140.338V34.9557H148.069C149.283 34.9557 150.318 34.745 151.173 34.3238C152.04 33.8901 152.703 33.2768 153.161 32.4839C153.632 31.691 153.868 30.7555 153.868 29.6776C153.868 28.5874 153.632 27.6581 153.161 26.89C152.703 26.1094 152.04 25.5147 151.173 25.1058C150.318 24.6846 149.283 24.474 148.069 24.474H144.427V54.2836H134.094ZM188.955 28.1165C188.856 26.8776 188.391 25.9112 187.561 25.2174C186.744 24.5235 185.498 24.1766 183.826 24.1766C182.76 24.1766 181.887 24.3067 181.205 24.5669C180.536 24.8147 180.041 25.1554 179.719 25.589C179.397 26.0227 179.229 26.5183 179.217 27.0758C179.192 27.5342 179.273 27.9493 179.458 28.321C179.657 28.6803 179.966 29.0086 180.388 29.306C180.809 29.5909 181.348 29.8511 182.005 30.0865C182.661 30.3219 183.442 30.5325 184.346 30.7184L187.468 31.3874C189.575 31.8335 191.377 32.422 192.876 33.153C194.376 33.8839 195.602 34.745 196.556 35.7362C197.51 36.715 198.21 37.8177 198.656 39.0443C199.115 40.2708 199.35 41.6089 199.362 43.0585C199.35 45.5612 198.724 47.6799 197.485 49.4144C196.246 51.149 194.475 52.4685 192.17 53.3729C189.878 54.2774 187.121 54.7296 183.9 54.7296C180.592 54.7296 177.705 54.2402 175.24 53.2614C172.787 52.2826 170.879 50.7773 169.516 48.7454C168.165 46.7011 167.484 44.0869 167.471 40.9027H177.284C177.346 42.0673 177.637 43.0461 178.158 43.8391C178.678 44.632 179.409 45.2329 180.351 45.6418C181.305 46.0506 182.438 46.2551 183.751 46.2551C184.854 46.2551 185.777 46.1188 186.521 45.8462C187.264 45.5736 187.828 45.1957 188.212 44.7125C188.596 44.2293 188.794 43.678 188.806 43.0585C188.794 42.4762 188.602 41.9682 188.23 41.5346C187.871 41.0885 187.276 40.6921 186.446 40.3452C185.616 39.9859 184.495 39.6513 183.082 39.3416L179.291 38.5239C175.921 37.7929 173.264 36.5725 171.318 34.8627C169.386 33.1406 168.425 30.7927 168.438 27.8192C168.425 25.4032 169.07 23.2908 170.371 21.4819C171.684 19.6606 173.499 18.242 175.816 17.226C178.145 16.2101 180.815 15.7021 183.826 15.7021C186.898 15.7021 189.556 16.2162 191.799 17.2446C194.041 18.2729 195.769 19.7225 196.984 21.5934C198.21 23.4518 198.83 25.6262 198.842 28.1165H188.955ZM202.252 24.5483V16.2224H235.333V24.5483L223.885 24.5483V54.2836H213.7V24.5483H202.252ZM261.746 16.2224H272.079V40.6054C272.079 43.5045 271.385 46.0135 269.998 48.1321C268.622 50.2383 266.702 51.8676 264.236 53.0198C261.771 54.1597 258.909 54.7296 255.65 54.7296C252.367 54.7296 249.493 54.1597 247.027 53.0198C244.562 51.8676 242.641 50.2383 241.266 48.1321C239.903 46.0135 239.222 43.5045 239.222 40.6054V16.2224H249.555V39.7133C249.555 40.8903 249.815 41.9434 250.335 42.8727C250.856 43.7895 251.574 44.5081 252.491 45.0285C253.42 45.5488 254.473 45.809 255.65 45.809C256.84 45.809 257.893 45.5488 258.81 45.0285C259.727 44.5081 260.445 43.7895 260.966 42.8727C261.486 41.9434 261.746 40.8903 261.746 39.7133V16.2224ZM276.99 54.2836V16.2224H293.493C296.392 16.2224 298.827 16.6127 300.797 17.3933C302.779 18.1738 304.272 19.2765 305.276 20.7013C306.292 22.1261 306.8 23.8049 306.8 25.7377C306.8 27.1378 306.49 28.4139 305.87 29.5661C305.263 30.7184 304.408 31.6848 303.306 32.4653C302.203 33.2335 300.915 33.7662 299.44 34.0636V34.4353C301.076 34.4972 302.562 34.9123 303.9 35.6805C305.239 36.4362 306.304 37.4831 307.097 38.8212C307.89 40.1469 308.286 41.708 308.286 43.5045C308.286 45.586 307.741 47.4383 306.651 49.0613C305.573 50.6844 304.037 51.9605 302.042 52.8897C300.047 53.819 297.668 54.2836 294.906 54.2836H276.99ZM287.323 46.032H292.155C293.89 46.032 295.191 45.7099 296.058 45.0656C296.925 44.409 297.359 43.4426 297.359 42.1665C297.359 41.2744 297.154 40.5186 296.745 39.8991C296.337 39.2797 295.754 38.8088 294.998 38.4867C294.255 38.1646 293.357 38.0035 292.304 38.0035H287.323V46.032ZM287.323 31.6104H291.56C292.465 31.6104 293.264 31.468 293.958 31.183C294.652 30.898 295.191 30.4892 295.575 29.9564C295.971 29.4113 296.169 28.7484 296.169 27.9679C296.169 26.7908 295.748 25.8926 294.906 25.2731C294.063 24.6412 292.998 24.3253 291.709 24.3253H287.323V31.6104ZM311.948 54.2836V16.2224L339.378 16.2224V24.5483H322.281V31.0901H337.966V39.4159H322.281V45.9577H339.304V54.2836H311.948Z"/>
</mask>
<path d="M52.7956 30.4954H42.3139C42.2395 29.6281 42.0413 28.8413 41.7192 28.1351C41.4094 27.4289 40.9758 26.8218 40.4183 26.3138C39.8731 25.7935 39.2103 25.397 38.4297 25.1244C37.6492 24.8395 36.7633 24.697 35.7721 24.697C34.0376 24.697 32.5694 25.1182 31.3676 25.9607C30.1782 26.8032 29.2737 28.0112 28.6542 29.5847C28.0471 31.1582 27.7436 33.0476 27.7436 35.253C27.7436 37.5823 28.0533 39.5336 28.6728 41.1071C29.3047 42.6682 30.2153 43.8453 31.4048 44.6382C32.5942 45.4187 34.0252 45.809 35.6978 45.809C36.6518 45.809 37.5067 45.6913 38.2624 45.4559C39.0182 45.2081 39.6749 44.855 40.2324 44.3966C40.7899 43.9382 41.2422 43.3868 41.5891 42.7426C41.9484 42.0859 42.19 41.3487 42.3139 40.531L52.7956 40.6054C52.6717 42.216 52.2194 43.8576 51.4389 45.5303C50.6583 47.1905 49.5495 48.7268 48.1122 50.1392C46.6874 51.5393 44.9219 52.6667 42.8157 53.5216C40.7094 54.3765 38.2624 54.8039 35.4748 54.8039C31.9809 54.8039 28.8463 54.0544 26.071 52.5552C23.3081 51.0561 21.1213 48.8507 19.5106 45.9391C17.9124 43.0275 17.1132 39.4655 17.1132 35.253C17.1132 31.0157 17.931 27.4475 19.5664 24.5483C21.2018 21.6367 23.4072 19.4376 26.1825 17.9508C28.9578 16.4517 32.0552 15.7021 35.4748 15.7021C37.8784 15.7021 40.0899 16.0304 42.1094 16.6871C44.129 17.3437 45.9007 18.3039 47.4246 19.5677C48.9486 20.819 50.1751 22.3615 51.1044 24.1952C52.0336 26.0289 52.5973 28.1289 52.7956 30.4954ZM94.3552 35.253C94.3552 39.4903 93.5313 43.0647 91.8835 45.9763C90.2356 48.8755 88.0117 51.0746 85.2116 52.5738C82.4116 54.0606 79.2894 54.8039 75.845 54.8039C72.3759 54.8039 69.2413 54.0544 66.4412 52.5552C63.6536 51.0437 61.4358 48.8383 59.788 45.9391C58.1525 43.0275 57.3348 39.4655 57.3348 35.253C57.3348 31.0157 58.1525 27.4475 59.788 24.5483C61.4358 21.6367 63.6536 19.4376 66.4412 17.9508C69.2413 16.4517 72.3759 15.7021 75.845 15.7021C79.2894 15.7021 82.4116 16.4517 85.2116 17.9508C88.0117 19.4376 90.2356 21.6367 91.8835 24.5483C93.5313 27.4475 94.3552 31.0157 94.3552 35.253ZM83.7249 35.253C83.7249 32.9733 83.4213 31.0529 82.8142 29.4918C82.2195 27.9183 81.3337 26.7289 80.1566 25.9236C78.992 25.1058 77.5548 24.697 75.845 24.697C74.1352 24.697 72.6918 25.1058 71.5148 25.9236C70.3502 26.7289 69.4643 27.9183 68.8572 29.4918C68.2625 31.0529 67.9652 32.9733 67.9652 35.253C67.9652 37.5327 68.2625 39.4593 68.8572 41.0328C69.4643 42.5939 70.3502 43.7833 71.5148 44.601C72.6918 45.4064 74.1352 45.809 75.845 45.809C77.5548 45.809 78.992 45.4064 80.1566 44.601C81.3337 43.7833 82.2195 42.5939 82.8142 41.0328C83.4213 39.4593 83.7249 37.5327 83.7249 35.253ZM99.1361 54.2836V16.2224H115.565C118.39 16.2224 120.861 16.7366 122.98 17.765C125.099 18.7933 126.747 20.2739 127.924 22.2067C129.101 24.1395 129.689 26.4563 129.689 29.1573C129.689 31.883 129.082 34.1813 127.868 36.0521C126.666 37.923 124.975 39.3354 122.794 40.2894C120.626 41.2434 118.092 41.7204 115.193 41.7204H105.38V33.6919H113.112C114.326 33.6919 115.36 33.5432 116.215 33.2459C117.083 32.9361 117.745 32.4467 118.204 31.7777C118.675 31.1087 118.91 30.2352 118.91 29.1573C118.91 28.067 118.675 27.1811 118.204 26.4997C117.745 25.8059 117.083 25.2979 116.215 24.9758C115.36 24.6412 114.326 24.474 113.112 24.474H109.469V54.2836H99.1361ZM121.438 36.8141L130.953 54.2836H119.728L110.435 36.8141H121.438ZM134.094 54.2836V16.2224H150.522C153.347 16.2224 155.819 16.78 157.938 17.8951C160.056 19.0101 161.704 20.5774 162.881 22.5969C164.058 24.6165 164.647 26.9767 164.647 29.6776C164.647 32.4034 164.039 34.7636 162.825 36.7584C161.623 38.7531 159.932 40.2894 157.752 41.3673C155.584 42.4452 153.05 42.9842 150.151 42.9842H140.338V34.9557H148.069C149.283 34.9557 150.318 34.745 151.173 34.3238C152.04 33.8901 152.703 33.2768 153.161 32.4839C153.632 31.691 153.868 30.7555 153.868 29.6776C153.868 28.5874 153.632 27.6581 153.161 26.89C152.703 26.1094 152.04 25.5147 151.173 25.1058C150.318 24.6846 149.283 24.474 148.069 24.474H144.427V54.2836H134.094ZM188.955 28.1165C188.856 26.8776 188.391 25.9112 187.561 25.2174C186.744 24.5235 185.498 24.1766 183.826 24.1766C182.76 24.1766 181.887 24.3067 181.205 24.5669C180.536 24.8147 180.041 25.1554 179.719 25.589C179.397 26.0227 179.229 26.5183 179.217 27.0758C179.192 27.5342 179.273 27.9493 179.458 28.321C179.657 28.6803 179.966 29.0086 180.388 29.306C180.809 29.5909 181.348 29.8511 182.005 30.0865C182.661 30.3219 183.442 30.5325 184.346 30.7184L187.468 31.3874C189.575 31.8335 191.377 32.422 192.876 33.153C194.376 33.8839 195.602 34.745 196.556 35.7362C197.51 36.715 198.21 37.8177 198.656 39.0443C199.115 40.2708 199.35 41.6089 199.362 43.0585C199.35 45.5612 198.724 47.6799 197.485 49.4144C196.246 51.149 194.475 52.4685 192.17 53.3729C189.878 54.2774 187.121 54.7296 183.9 54.7296C180.592 54.7296 177.705 54.2402 175.24 53.2614C172.787 52.2826 170.879 50.7773 169.516 48.7454C168.165 46.7011 167.484 44.0869 167.471 40.9027H177.284C177.346 42.0673 177.637 43.0461 178.158 43.8391C178.678 44.632 179.409 45.2329 180.351 45.6418C181.305 46.0506 182.438 46.2551 183.751 46.2551C184.854 46.2551 185.777 46.1188 186.521 45.8462C187.264 45.5736 187.828 45.1957 188.212 44.7125C188.596 44.2293 188.794 43.678 188.806 43.0585C188.794 42.4762 188.602 41.9682 188.23 41.5346C187.871 41.0885 187.276 40.6921 186.446 40.3452C185.616 39.9859 184.495 39.6513 183.082 39.3416L179.291 38.5239C175.921 37.7929 173.264 36.5725 171.318 34.8627C169.386 33.1406 168.425 30.7927 168.438 27.8192C168.425 25.4032 169.07 23.2908 170.371 21.4819C171.684 19.6606 173.499 18.242 175.816 17.226C178.145 16.2101 180.815 15.7021 183.826 15.7021C186.898 15.7021 189.556 16.2162 191.799 17.2446C194.041 18.2729 195.769 19.7225 196.984 21.5934C198.21 23.4518 198.83 25.6262 198.842 28.1165H188.955ZM202.252 24.5483V16.2224H235.333V24.5483L223.885 24.5483V54.2836H213.7V24.5483H202.252ZM261.746 16.2224H272.079V40.6054C272.079 43.5045 271.385 46.0135 269.998 48.1321C268.622 50.2383 266.702 51.8676 264.236 53.0198C261.771 54.1597 258.909 54.7296 255.65 54.7296C252.367 54.7296 249.493 54.1597 247.027 53.0198C244.562 51.8676 242.641 50.2383 241.266 48.1321C239.903 46.0135 239.222 43.5045 239.222 40.6054V16.2224H249.555V39.7133C249.555 40.8903 249.815 41.9434 250.335 42.8727C250.856 43.7895 251.574 44.5081 252.491 45.0285C253.42 45.5488 254.473 45.809 255.65 45.809C256.84 45.809 257.893 45.5488 258.81 45.0285C259.727 44.5081 260.445 43.7895 260.966 42.8727C261.486 41.9434 261.746 40.8903 261.746 39.7133V16.2224ZM276.99 54.2836V16.2224H293.493C296.392 16.2224 298.827 16.6127 300.797 17.3933C302.779 18.1738 304.272 19.2765 305.276 20.7013C306.292 22.1261 306.8 23.8049 306.8 25.7377C306.8 27.1378 306.49 28.4139 305.87 29.5661C305.263 30.7184 304.408 31.6848 303.306 32.4653C302.203 33.2335 300.915 33.7662 299.44 34.0636V34.4353C301.076 34.4972 302.562 34.9123 303.9 35.6805C305.239 36.4362 306.304 37.4831 307.097 38.8212C307.89 40.1469 308.286 41.708 308.286 43.5045C308.286 45.586 307.741 47.4383 306.651 49.0613C305.573 50.6844 304.037 51.9605 302.042 52.8897C300.047 53.819 297.668 54.2836 294.906 54.2836H276.99ZM287.323 46.032H292.155C293.89 46.032 295.191 45.7099 296.058 45.0656C296.925 44.409 297.359 43.4426 297.359 42.1665C297.359 41.2744 297.154 40.5186 296.745 39.8991C296.337 39.2797 295.754 38.8088 294.998 38.4867C294.255 38.1646 293.357 38.0035 292.304 38.0035H287.323V46.032ZM287.323 31.6104H291.56C292.465 31.6104 293.264 31.468 293.958 31.183C294.652 30.898 295.191 30.4892 295.575 29.9564C295.971 29.4113 296.169 28.7484 296.169 27.9679C296.169 26.7908 295.748 25.8926 294.906 25.2731C294.063 24.6412 292.998 24.3253 291.709 24.3253H287.323V31.6104ZM311.948 54.2836V16.2224L339.378 16.2224V24.5483H322.281V31.0901H337.966V39.4159H322.281V45.9577H339.304V54.2836H311.948Z" fill="white"/>
<path d="M52.7956 30.4954V32.1779H54.6249L54.4722 30.3549L52.7956 30.4954ZM42.3139 30.4954L40.6375 30.6391L40.7694 32.1779H42.3139V30.4954ZM41.7192 28.1351L40.1783 28.8109L40.1832 28.8222L40.1884 28.8334L41.7192 28.1351ZM40.4183 26.3138L39.2565 27.5309L39.2706 27.5444L39.2851 27.5576L40.4183 26.3138ZM38.4297 25.1244L37.8527 26.705L37.8638 26.709L37.875 26.7129L38.4297 25.1244ZM31.3676 25.9607L30.4017 24.583L30.395 24.5877L31.3676 25.9607ZM28.6542 29.5847L27.0886 28.9683L27.0845 28.9791L28.6542 29.5847ZM28.6728 41.1071L27.1072 41.7235L27.1102 41.731L27.1132 41.7384L28.6728 41.1071ZM31.4048 44.6382L30.4714 46.0382L30.4816 46.0449L31.4048 44.6382ZM38.2624 45.4559L38.7628 47.0623L38.7748 47.0586L38.7866 47.0547L38.2624 45.4559ZM40.2324 44.3966L41.301 45.6962L41.301 45.6962L40.2324 44.3966ZM41.5891 42.7426L40.113 41.9349L40.1076 41.9449L41.5891 42.7426ZM42.3139 40.531L42.3258 38.8485L40.8686 38.8382L40.6503 40.279L42.3139 40.531ZM52.7956 40.6054L54.4731 40.7344L54.6115 38.9356L52.8075 38.9228L52.7956 40.6054ZM51.4389 45.5303L52.9615 46.2461L52.9636 46.2418L51.4389 45.5303ZM48.1122 50.1392L49.2915 51.3394L49.2916 51.3393L48.1122 50.1392ZM26.071 52.5552L25.2686 54.0341L25.2713 54.0356L26.071 52.5552ZM19.5106 45.9391L18.0357 46.7488L18.0384 46.7536L19.5106 45.9391ZM19.5664 24.5483L21.0319 25.375L21.0334 25.3723L19.5664 24.5483ZM26.1825 17.9508L26.977 19.4339L26.9822 19.4312L26.1825 17.9508ZM42.1094 16.6871L42.6297 15.087L42.6297 15.087L42.1094 16.6871ZM47.4246 19.5677L46.3506 20.8628L46.3569 20.868L47.4246 19.5677ZM51.1044 24.1952L49.6035 24.9558L49.6035 24.9558L51.1044 24.1952ZM52.7956 28.8128H42.3139V32.1779H52.7956V28.8128ZM43.9903 30.3517C43.9015 29.3157 43.6611 28.3382 43.25 27.4369L40.1884 28.8334C40.4215 29.3445 40.5776 29.9405 40.6375 30.6391L43.9903 30.3517ZM43.26 27.4593C42.8578 26.5423 42.2871 25.7404 41.5514 25.0701L39.2851 27.5576C39.6645 27.9033 39.961 28.3155 40.1783 28.8109L43.26 27.4593ZM41.58 25.0968C40.8451 24.3952 39.9693 23.8799 38.9844 23.536L37.875 26.7129C38.4512 26.9141 38.9011 27.1917 39.2565 27.5309L41.58 25.0968ZM39.0067 23.5439C38.0095 23.1798 36.9231 23.0144 35.7721 23.0144V26.3795C36.6034 26.3795 37.2888 26.4991 37.8527 26.705L39.0067 23.5439ZM35.7721 23.0144C33.7564 23.0144 31.9351 23.5081 30.4017 24.583L32.3334 27.3385C33.2037 26.7284 34.3187 26.3795 35.7721 26.3795V23.0144ZM30.395 24.5877C28.8979 25.6482 27.8084 27.1403 27.0887 28.9683L30.2198 30.2011C30.7391 28.8822 31.4584 27.9583 32.3401 27.3337L30.395 24.5877ZM27.0845 28.9791C26.3838 30.7951 26.061 32.9009 26.061 35.253H29.4261C29.4261 33.1943 29.7105 31.5213 30.224 30.1904L27.0845 28.9791ZM26.061 35.253C26.061 37.719 26.3873 39.8948 27.1072 41.7235L30.2384 40.4908C29.7194 39.1725 29.4261 37.4455 29.4261 35.253H26.061ZM27.1132 41.7384C27.8488 43.5557 28.9536 45.0262 30.4714 46.0382L32.3381 43.2382C31.4771 42.6643 30.7606 41.7807 30.2325 40.4759L27.1132 41.7384ZM30.4816 46.0449C31.9906 47.0352 33.7559 47.4916 35.6978 47.4916V44.1265C34.2944 44.1265 33.1977 43.8023 32.3279 43.2315L30.4816 46.0449ZM35.6978 47.4916C36.7878 47.4916 37.8158 47.3573 38.7628 47.0623L37.7621 43.8495C37.1975 44.0253 36.5157 44.1265 35.6978 44.1265V47.4916ZM38.7866 47.0547C39.7206 46.7485 40.5665 46.3002 41.301 45.6962L39.1638 43.097C38.7833 43.4098 38.3158 43.6677 37.7382 43.8571L38.7866 47.0547ZM41.301 45.6962C42.0298 45.097 42.6214 44.3744 43.0705 43.5403L40.1076 41.9449C39.8629 42.3993 39.55 42.7794 39.1638 43.097L41.301 45.6962ZM43.0651 43.5502C43.5284 42.7036 43.8271 41.7752 43.9774 40.7831L40.6503 40.279C40.5528 40.9223 40.3684 41.4683 40.113 41.9349L43.0651 43.5502ZM42.3019 42.2135L52.7836 42.2879L52.8075 38.9228L42.3258 38.8485L42.3019 42.2135ZM51.118 40.4763C51.0116 41.8586 50.6212 43.3037 49.9142 44.8187L52.9636 46.2418C53.8177 44.4116 54.3317 42.5734 54.4731 40.7344L51.118 40.4763ZM49.9162 44.8144C49.2285 46.2772 48.2419 47.6528 46.9329 48.9392L49.2916 51.3393C50.857 49.8008 52.0882 48.1037 52.9615 46.2461L49.9162 44.8144ZM46.933 48.9391C45.6853 50.1651 44.1132 51.1791 42.1829 51.9626L43.4484 55.0806C45.7306 54.1543 47.6896 52.9134 49.2915 51.3394L46.933 48.9391ZM42.1829 51.9626C40.3175 52.7197 38.0932 53.1214 35.4748 53.1214V56.4865C38.4317 56.4865 41.1013 56.0333 43.4484 55.0806L42.1829 51.9626ZM35.4748 53.1214C32.2294 53.1214 29.3747 52.4275 26.8707 51.0748L25.2713 54.0356C28.3179 55.6813 31.7323 56.4865 35.4748 56.4865V53.1214ZM26.8734 51.0763C24.4094 49.7394 22.4478 47.7726 20.9829 45.1247L18.0384 46.7536C19.7948 49.9287 22.2068 52.3727 25.2686 54.0341L26.8734 51.0763ZM20.9856 45.1295C19.5553 42.5239 18.7958 39.2568 18.7958 35.253H15.4307C15.4307 39.6742 16.2694 43.5312 18.0357 46.7488L20.9856 45.1295ZM18.7958 35.253C18.7958 31.2279 19.5725 27.962 21.0319 25.375L18.1009 23.7216C16.2894 26.933 15.4307 30.8036 15.4307 35.253H18.7958ZM21.0334 25.3723C22.5219 22.7222 24.5015 20.7601 26.977 19.4339L25.388 16.4677C22.3129 18.115 19.8818 20.5512 18.0994 23.7243L21.0334 25.3723ZM26.9822 19.4312C29.4915 18.0757 32.3103 17.3846 35.4748 17.3846V14.0195C31.8001 14.0195 28.4241 14.8276 25.3828 16.4704L26.9822 19.4312ZM35.4748 17.3846C37.7246 17.3846 39.7582 17.6918 41.5892 18.2871L42.6297 15.087C40.4217 14.369 38.0321 14.0195 35.4748 14.0195V17.3846ZM41.5892 18.2871C43.4213 18.8829 45.0019 19.7444 46.3506 20.8628L48.4987 18.2725C46.7995 16.8634 44.8366 15.8045 42.6297 15.087L41.5892 18.2871ZM46.3569 20.868C47.6929 21.9651 48.7751 23.321 49.6035 24.9558L52.6052 23.4346C51.5752 21.402 50.2042 19.6729 48.4924 18.2673L46.3569 20.868ZM49.6035 24.9558C50.4207 26.5684 50.936 28.4523 51.1189 30.6358L54.4722 30.3549C54.2587 27.8055 53.6464 25.4894 52.6052 23.4346L49.6035 24.9558ZM91.8835 45.9763L93.3463 46.8077L93.3478 46.805L91.8835 45.9763ZM85.2116 52.5738L86.0007 54.0599L86.0058 54.0571L85.2116 52.5738ZM66.4412 52.5552L65.6392 54.0343L65.6471 54.0385L66.4412 52.5552ZM59.788 45.9391L58.321 46.7631L58.3252 46.7705L59.788 45.9391ZM59.788 24.5483L58.3237 23.7196L58.3225 23.7216L59.788 24.5483ZM66.4412 17.9508L67.233 19.4354L67.2354 19.4341L66.4412 17.9508ZM85.2116 17.9508L84.4175 19.4341L84.4226 19.4369L85.2116 17.9508ZM91.8835 24.5483L90.4192 25.377L90.4207 25.3797L91.8835 24.5483ZM82.8142 29.4918L81.2403 30.0867L81.2432 30.0942L81.2461 30.1016L82.8142 29.4918ZM80.1566 25.9236L79.1898 27.3006L79.1981 27.3064L79.2065 27.3122L80.1566 25.9236ZM71.5148 25.9236L72.4718 27.3075L72.4748 27.3054L71.5148 25.9236ZM68.8572 29.4918L67.2875 28.8861L67.2849 28.8928L68.8572 29.4918ZM68.8572 41.0328L67.2833 41.6277L67.2862 41.6352L67.2891 41.6426L68.8572 41.0328ZM71.5148 44.601L70.548 45.978L70.5563 45.9839L70.5647 45.9896L71.5148 44.601ZM80.1566 44.601L81.1136 45.9849L81.1166 45.9828L80.1566 44.601ZM82.8142 41.0328L81.2444 40.4271L81.2419 40.4338L82.8142 41.0328ZM92.6727 35.253C92.6727 39.2759 91.8907 42.5476 90.4192 45.1475L93.3478 46.805C95.172 43.5818 96.0378 39.7047 96.0378 35.253H92.6727ZM90.4207 45.1449C88.9215 47.7825 86.9233 49.7488 84.4175 51.0905L86.0058 54.0571C89.1001 52.4004 91.5498 49.9685 93.3463 46.8077L90.4207 45.1449ZM84.4226 51.0877C81.8861 52.4345 79.0386 53.1214 75.845 53.1214V56.4865C79.5401 56.4865 82.937 55.6866 86.0007 54.0598L84.4226 51.0877ZM75.845 53.1214C72.6269 53.1214 69.7692 52.4284 67.2354 51.0719L65.6471 54.0385C68.7135 55.6803 72.125 56.4865 75.845 56.4865V53.1214ZM67.2433 51.0761C64.7466 49.7224 62.7516 47.7483 61.2508 45.1077L58.3252 46.7705C60.12 49.9283 62.5605 52.365 65.6392 54.0343L67.2433 51.0761ZM61.255 45.1151C59.7932 42.5128 59.0174 39.251 59.0174 35.253H55.6523C55.6523 39.68 56.5119 43.5423 58.321 46.7631L61.255 45.1151ZM59.0174 35.253C59.0174 31.2279 59.7941 27.962 61.2534 25.375L58.3225 23.7216C56.511 26.933 55.6523 30.8036 55.6523 35.253H59.0174ZM61.2523 25.377C62.7525 22.7263 64.7442 20.7628 67.233 19.4354L65.6495 16.4662C62.563 18.1123 60.1192 20.5471 58.3237 23.7196L61.2523 25.377ZM67.2354 19.4341C69.7692 18.0776 72.6269 17.3846 75.845 17.3846V14.0195C72.125 14.0195 68.7135 14.8257 65.6471 16.4675L67.2354 19.4341ZM75.845 17.3846C79.0362 17.3846 81.882 18.0766 84.4175 19.4341L86.0058 16.4675C82.9411 14.8267 79.5425 14.0195 75.845 14.0195V17.3846ZM84.4226 19.4369C86.9236 20.7648 88.9201 22.7283 90.4192 25.377L93.3478 23.7196C91.5512 20.5452 89.0998 18.1103 86.0007 16.4647L84.4226 19.4369ZM90.4207 25.3797C91.8905 27.9657 92.6727 31.2298 92.6727 35.253H96.0378C96.0378 30.8017 95.1721 26.9293 93.3463 23.7169L90.4207 25.3797ZM85.4074 35.253C85.4074 32.8351 85.087 30.6938 84.3824 28.882L81.2461 30.1016C81.7557 31.412 82.0423 33.1115 82.0423 35.253H85.4074ZM84.3881 28.8969C83.694 27.0606 82.6162 25.5677 81.1067 24.5349L79.2065 27.3122C80.0511 27.8901 80.745 28.7761 81.2403 30.0867L84.3881 28.8969ZM81.1235 24.5465C79.6225 23.4927 77.8297 23.0144 75.845 23.0144V26.3795C77.2799 26.3795 78.3615 26.719 79.1898 27.3006L81.1235 24.5465ZM75.845 23.0144C73.8597 23.0144 72.0646 23.4929 70.5548 24.5418L72.4748 27.3054C73.3191 26.7188 74.4108 26.3795 75.845 26.3795V23.0144ZM70.5579 24.5397C69.0659 25.5713 67.9924 27.059 67.2875 28.8861L70.427 30.0975C70.9362 28.7776 71.6345 27.8865 72.4718 27.3075L70.5579 24.5397ZM67.2849 28.8928C66.5961 30.701 66.2826 32.8383 66.2826 35.253H69.6477C69.6477 33.1083 69.929 31.4048 70.4296 30.0908L67.2849 28.8928ZM66.2826 35.253C66.2826 37.6684 66.5963 39.8097 67.2833 41.6277L70.4311 40.4379C69.9288 39.1089 69.6477 37.397 69.6477 35.253H66.2826ZM67.2891 41.6426C67.9948 43.4573 69.0663 44.9377 70.548 45.978L72.4817 43.224C71.6341 42.6289 70.9339 41.7305 70.4254 40.423L67.2891 41.6426ZM70.5647 45.9896C72.0733 47.0219 73.8648 47.4916 75.845 47.4916V44.1265C74.4057 44.1265 73.3104 43.7908 72.4649 43.2124L70.5647 45.9896ZM75.845 47.4916C77.8246 47.4916 79.6137 47.0221 81.1136 45.9849L79.1997 43.2171C78.3703 43.7906 77.285 44.1265 75.845 44.1265V47.4916ZM81.1166 45.9828C82.6158 44.9413 83.6917 43.4557 84.3865 41.6318L81.2419 40.4338C80.7473 41.7321 80.0515 42.6253 79.1966 43.2192L81.1166 45.9828ZM84.384 41.6385C85.0868 39.8169 85.4074 37.6715 85.4074 35.253H82.0423C82.0423 37.3939 81.7558 39.1017 81.2445 40.4271L84.384 41.6385ZM99.1361 54.2836H97.4535V55.9661H99.1361V54.2836ZM99.1361 16.2224V14.5399H97.4535V16.2224H99.1361ZM127.924 22.2067L129.361 21.3315L129.361 21.3315L127.924 22.2067ZM127.868 36.0521L126.456 35.1361L126.452 35.1428L127.868 36.0521ZM122.794 40.2894L122.12 38.7479L122.117 38.7494L122.794 40.2894ZM105.38 41.7204H103.698V43.403H105.38V41.7204ZM105.38 33.6919V32.0094H103.698V33.6919H105.38ZM116.215 33.2459L116.768 34.8351L116.781 34.8304L116.215 33.2459ZM118.204 31.7777L116.828 30.8094L116.822 30.818L116.816 30.8267L118.204 31.7777ZM118.204 26.4997L116.8 27.4272L116.81 27.4418L116.82 27.4561L118.204 26.4997ZM116.215 24.9758L115.602 26.5426L115.616 26.5479L115.629 26.553L116.215 24.9758ZM109.469 24.474V22.7914H107.787V24.474H109.469ZM109.469 54.2836V55.9661H111.152V54.2836H109.469ZM121.438 36.8141L122.915 36.0093L122.437 35.1316H121.438V36.8141ZM130.953 54.2836V55.9661H133.785L132.43 53.4788L130.953 54.2836ZM119.728 54.2836L118.242 55.0737L118.717 55.9661H119.728V54.2836ZM110.435 36.8141V35.1316H107.635L108.95 37.6043L110.435 36.8141ZM100.819 54.2836V16.2224H97.4535V54.2836H100.819ZM99.1361 17.905H115.565V14.5399H99.1361V17.905ZM115.565 17.905C118.185 17.905 120.397 18.3814 122.245 19.2786L123.715 16.2513C121.326 15.0918 118.594 14.5399 115.565 14.5399V17.905ZM122.245 19.2786C124.086 20.172 125.484 21.4364 126.486 23.0818L129.361 21.3315C128.009 19.1113 126.111 17.4146 123.715 16.2513L122.245 19.2786ZM126.486 23.0818C127.474 24.7038 128.007 26.7048 128.007 29.1573H131.372C131.372 26.2078 130.727 23.5751 129.361 21.3315L126.486 23.0818ZM128.007 29.1573C128.007 31.6306 127.458 33.5932 126.456 35.1362L129.279 36.9681C130.706 34.7694 131.372 32.1355 131.372 29.1573H128.007ZM126.452 35.1428C125.442 36.7145 124.019 37.9171 122.12 38.7479L123.469 41.8309C125.931 40.7537 127.889 39.1315 129.283 36.9615L126.452 35.1428ZM122.117 38.7494C120.204 39.5908 117.91 40.0379 115.193 40.0379V43.403C118.275 43.403 121.048 42.896 123.472 41.8295L122.117 38.7494ZM115.193 40.0379H105.38V43.403H115.193V40.0379ZM107.063 41.7204V33.6919H103.698V41.7204H107.063ZM105.38 35.3745H113.112V32.0094H105.38V35.3745ZM113.112 35.3745C114.454 35.3745 115.686 35.2113 116.768 34.835L115.663 31.6567C115.034 31.8752 114.198 32.0094 113.112 32.0094V35.3745ZM116.781 34.8304C117.935 34.4182 118.906 33.729 119.592 32.7287L116.816 30.8267C116.584 31.1644 116.23 31.454 115.649 31.6613L116.781 34.8304ZM119.58 32.746C120.305 31.7158 120.593 30.4728 120.593 29.1573H117.227C117.227 29.9975 117.044 30.5015 116.828 30.8094L119.58 32.746ZM120.593 29.1573C120.593 27.8321 120.306 26.5825 119.588 25.5433L116.82 27.4561C117.043 27.7798 117.227 28.3019 117.227 29.1573H120.593ZM119.608 25.5722C118.93 24.5471 117.964 23.8303 116.801 23.3985L115.629 26.553C116.202 26.7655 116.56 27.0646 116.8 27.4272L119.608 25.5722ZM116.828 23.4089C115.726 22.9776 114.472 22.7914 113.112 22.7914V26.1565C114.18 26.1565 114.994 26.3048 115.602 26.5426L116.828 23.4089ZM113.112 22.7914H109.469V26.1565H113.112V22.7914ZM107.787 24.474V54.2836H111.152V24.474H107.787ZM109.469 52.601H99.1361V55.9661H109.469V52.601ZM119.96 37.6189L129.475 55.0884L132.43 53.4788L122.915 36.0093L119.96 37.6189ZM130.953 52.601H119.728V55.9661H130.953V52.601ZM121.213 53.4934L111.921 36.024L108.95 37.6043L118.242 55.0737L121.213 53.4934ZM110.435 38.4967H121.438V35.1316H110.435V38.4967ZM134.094 54.2836H132.411V55.9661H134.094V54.2836ZM134.094 16.2224V14.5399H132.411V16.2224H134.094ZM157.938 17.8951L157.154 19.384L157.154 19.384L157.938 17.8951ZM162.881 22.5969L164.335 21.7497L164.335 21.7497L162.881 22.5969ZM162.825 36.7584L161.388 35.8835L161.384 35.8901L162.825 36.7584ZM157.752 41.3673L157.006 39.859L157.003 39.8607L157.752 41.3673ZM140.338 42.9842H138.655V44.6667H140.338V42.9842ZM140.338 34.9557V33.2731H138.655V34.9557H140.338ZM151.173 34.3238L151.916 35.8331L151.925 35.8287L151.173 34.3238ZM153.161 32.4839L151.715 31.6249L151.71 31.6333L151.705 31.6418L153.161 32.4839ZM153.161 26.89L151.71 27.742L151.719 27.7557L151.727 27.7692L153.161 26.89ZM151.173 25.1058L150.429 26.6151L150.442 26.6216L150.455 26.6278L151.173 25.1058ZM144.427 24.474V22.7914H142.744V24.474H144.427ZM144.427 54.2836V55.9661H146.109V54.2836H144.427ZM135.776 54.2836V16.2224H132.411V54.2836H135.776ZM134.094 17.905H150.522V14.5399H134.094V17.905ZM150.522 17.905C153.123 17.905 155.317 18.4171 157.154 19.384L158.721 16.4061C156.321 15.1428 153.571 14.5399 150.522 14.5399V17.905ZM157.154 19.384C159.001 20.3559 160.413 21.704 161.427 23.4442L164.335 21.7497C162.995 19.4508 161.112 17.6643 158.721 16.4061L157.154 19.384ZM161.427 23.4442C162.433 25.1688 162.964 27.2275 162.964 29.6776H166.329C166.329 26.7259 165.684 24.0641 164.335 21.7497L161.427 23.4442ZM162.964 29.6776C162.964 32.1471 162.417 34.1938 161.388 35.8835L164.263 37.6332C165.662 35.3335 166.329 32.6596 166.329 29.6776H162.964ZM161.384 35.8901C160.356 37.5967 158.912 38.9169 157.006 39.859L158.497 42.8756C160.953 41.6619 162.891 39.9094 164.266 37.6266L161.384 35.8901ZM157.003 39.8607C155.109 40.8022 152.841 41.3016 150.151 41.3016V44.6667C153.259 44.6667 156.058 44.0882 158.501 42.874L157.003 39.8607ZM150.151 41.3016H140.338V44.6667H150.151V41.3016ZM142.021 42.9842V34.9557H138.655V42.9842H142.021ZM140.338 36.6382H148.069V33.2731H140.338V36.6382ZM148.069 36.6382C149.473 36.6382 150.776 36.3951 151.916 35.833L150.429 32.8145C149.86 33.0949 149.094 33.2731 148.069 33.2731V36.6382ZM151.925 35.8287C153.069 35.2569 153.985 34.4211 154.618 33.326L151.705 31.6418C151.421 32.1326 151.011 32.5234 150.42 32.8189L151.925 35.8287ZM154.608 33.3429C155.258 32.2489 155.55 31.0062 155.55 29.6776H152.185C152.185 30.5049 152.007 31.133 151.715 31.6249L154.608 33.3429ZM155.55 29.6776C155.55 28.3425 155.26 27.0942 154.596 26.0107L151.727 27.7692C152.004 28.222 152.185 28.8322 152.185 29.6776H155.55ZM154.612 26.0379C153.972 24.9476 153.045 24.1282 151.89 23.5839L150.455 26.6278C151.035 26.9012 151.434 27.2712 151.71 27.742L154.612 26.0379ZM151.916 23.5966C150.776 23.0345 149.473 22.7914 148.069 22.7914V26.1565C149.094 26.1565 149.86 26.3347 150.429 26.6151L151.916 23.5966ZM148.069 22.7914H144.427V26.1565H148.069V22.7914ZM142.744 24.474V54.2836H146.109V24.474H142.744ZM144.427 52.601H134.094V55.9661H144.427V52.601ZM188.955 28.1165L187.278 28.2507L187.402 29.7991H188.955V28.1165ZM187.561 25.2174L186.473 26.5004L186.482 26.5083L187.561 25.2174ZM181.205 24.5669L181.79 26.1447L181.798 26.1418L181.806 26.1388L181.205 24.5669ZM179.719 25.589L178.368 24.5857L178.368 24.5857L179.719 25.589ZM179.217 27.0758L180.897 27.1666L180.898 27.1399L180.899 27.1132L179.217 27.0758ZM179.458 28.321L177.954 29.0734L177.969 29.1039L177.985 29.1338L179.458 28.321ZM180.388 29.306L179.417 30.6805L179.431 30.6902L179.445 30.6996L180.388 29.306ZM184.346 30.7184L184.699 29.0732L184.692 29.0717L184.685 29.0703L184.346 30.7184ZM187.468 31.3874L187.116 33.0326L187.12 33.0335L187.468 31.3874ZM192.876 33.153L192.139 34.6653L192.876 33.153ZM196.556 35.7362L195.344 36.903L195.351 36.9106L196.556 35.7362ZM198.656 39.0443L197.075 39.6193L197.078 39.6263L197.08 39.6333L198.656 39.0443ZM199.362 43.0585L201.045 43.0668L201.045 43.0555L201.045 43.0441L199.362 43.0585ZM197.485 49.4144L198.855 50.3924L198.855 50.3924L197.485 49.4144ZM192.17 53.3729L191.556 51.8067L191.553 51.8078L192.17 53.3729ZM175.24 53.2614L174.616 54.8242L174.619 54.8252L175.24 53.2614ZM169.516 48.7454L168.112 49.6728L168.118 49.6826L169.516 48.7454ZM167.471 40.9027V39.2202H165.782L165.789 40.9093L167.471 40.9027ZM177.284 40.9027L178.964 40.8133L178.879 39.2202H177.284V40.9027ZM178.158 43.8391L176.751 44.7622L176.751 44.7622L178.158 43.8391ZM180.351 45.6418L179.68 47.1851L179.688 47.1883L180.351 45.6418ZM186.521 45.8462L187.1 47.4259L187.1 47.4259L186.521 45.8462ZM188.212 44.7125L189.529 45.7595L189.529 45.7595L188.212 44.7125ZM188.806 43.0585L190.489 43.0922L190.489 43.0574L190.489 43.0227L188.806 43.0585ZM188.23 41.5346L186.92 42.5901L186.936 42.6101L186.953 42.6296L188.23 41.5346ZM186.446 40.3452L185.778 41.8893L185.788 41.8935L185.797 41.8976L186.446 40.3452ZM183.082 39.3416L183.443 37.6981L183.437 37.6969L183.082 39.3416ZM179.291 38.5239L178.935 40.1682L178.936 40.1686L179.291 38.5239ZM171.318 34.8627L170.199 36.119L170.208 36.1265L171.318 34.8627ZM168.438 27.8192L170.12 27.8262L170.12 27.8184L170.12 27.8106L168.438 27.8192ZM170.371 21.4819L169.006 20.4978L169.005 20.4995L170.371 21.4819ZM175.816 17.226L175.143 15.6838L175.14 15.6851L175.816 17.226ZM191.799 17.2446L191.097 18.774L191.097 18.774L191.799 17.2446ZM196.984 21.5934L195.572 22.5094L195.579 22.5202L196.984 21.5934ZM198.842 28.1165V29.7991H200.533L200.525 28.1082L198.842 28.1165ZM190.632 27.9824C190.503 26.3661 189.869 24.9536 188.64 23.9264L186.482 26.5083C186.913 26.8687 187.209 27.3891 187.278 28.2507L190.632 27.9824ZM188.65 23.9344C187.398 22.8724 185.685 22.4941 183.826 22.4941V25.8592C185.312 25.8592 186.089 26.1747 186.473 26.5003L188.65 23.9344ZM183.826 22.4941C182.641 22.4941 181.545 22.6362 180.605 22.995L181.806 26.1388C182.229 25.9772 182.879 25.8592 183.826 25.8592V22.4941ZM180.621 22.9891C179.742 23.3145 178.938 23.8187 178.368 24.5857L181.069 26.5924C181.144 26.4921 181.33 26.3149 181.79 26.1447L180.621 22.9891ZM178.368 24.5857C177.831 25.3087 177.555 26.1444 177.535 27.0384L180.899 27.1132C180.904 26.8922 180.962 26.7367 181.069 26.5924L178.368 24.5857ZM177.537 26.985C177.498 27.7037 177.624 28.4139 177.954 29.0734L180.963 27.5685C180.921 27.4846 180.886 27.3648 180.897 27.1666L177.537 26.985ZM177.985 29.1338C178.334 29.7656 178.84 30.273 179.417 30.6805L181.358 27.9314C181.093 27.7442 180.98 27.5949 180.932 27.5082L177.985 29.1338ZM179.445 30.6996C180.017 31.0864 180.693 31.4037 181.437 31.6704L182.572 28.5027C182.003 28.2985 181.601 28.0954 181.33 27.9123L179.445 30.6996ZM181.437 31.6704C182.188 31.9395 183.049 32.1694 184.008 32.3665L184.685 29.0703C183.835 28.8956 183.135 28.7043 182.572 28.5027L181.437 31.6704ZM183.994 32.3636L187.116 33.0326L187.821 29.7422L184.699 29.0732L183.994 32.3636ZM187.12 33.0335C189.128 33.4588 190.793 34.0091 192.139 34.6653L193.614 31.6406C191.961 30.8348 190.021 30.2081 187.817 29.7414L187.12 33.0335ZM192.139 34.6653C193.497 35.3276 194.552 36.0805 195.344 36.903L197.768 34.5694C196.652 33.4095 195.254 32.4403 193.614 31.6406L192.139 34.6653ZM195.351 36.9106C196.147 37.7268 196.714 38.6275 197.075 39.6193L200.238 38.4692C199.706 37.0079 198.874 35.7032 197.761 34.5618L195.351 36.9106ZM197.08 39.6333C197.463 40.6574 197.669 41.7987 197.68 43.0729L201.045 43.0441C201.031 41.4192 200.766 39.8843 200.232 38.4552L197.08 39.6333ZM197.68 43.0502C197.669 45.2673 197.12 47.0317 196.116 48.4365L198.855 50.3924C200.329 48.328 201.031 45.8551 201.045 43.0668L197.68 43.0502ZM196.116 48.4365C195.096 49.8655 193.607 51.0016 191.556 51.8067L192.785 54.9392C195.343 53.9354 197.397 52.4325 198.855 50.3924L196.116 48.4365ZM191.553 51.8078C189.507 52.6149 186.972 53.047 183.9 53.047V56.4121C187.271 56.4121 190.249 55.9399 192.788 54.938L191.553 51.8078ZM183.9 53.047C180.754 53.047 178.086 52.5812 175.861 51.6976L174.619 54.8252C177.324 55.8992 180.43 56.4121 183.9 56.4121V53.047ZM175.863 51.6987C173.699 50.8351 172.072 49.5357 170.913 47.8081L168.118 49.6826C169.685 52.0189 171.874 53.7302 174.616 54.8242L175.863 51.6987ZM170.92 47.818C169.797 46.1179 169.165 43.8496 169.154 40.8962L165.789 40.9093C165.802 44.3241 166.534 47.2843 168.112 49.6728L170.92 47.818ZM167.471 42.5853H177.284V39.2202H167.471V42.5853ZM175.604 40.9921C175.678 42.3861 176.034 43.6692 176.751 44.7622L179.564 42.9159C179.241 42.4231 179.014 41.7486 178.964 40.8133L175.604 40.9921ZM176.751 44.7622C177.466 45.8519 178.464 46.6569 179.68 47.1851L181.021 44.0984C180.354 43.8089 179.89 43.4121 179.564 42.9159L176.751 44.7622ZM179.688 47.1883C180.899 47.7073 182.269 47.9376 183.751 47.9376V44.5725C182.608 44.5725 181.71 44.3939 181.013 44.0953L179.688 47.1883ZM183.751 47.9376C184.98 47.9376 186.114 47.7875 187.1 47.4259L185.941 44.2665C185.441 44.4501 184.728 44.5725 183.751 44.5725V47.9376ZM187.1 47.4259C188.053 47.0765 188.905 46.5442 189.529 45.7595L186.895 43.6656C186.75 43.8473 186.475 44.0707 185.941 44.2665L187.1 47.4259ZM189.529 45.7595C190.143 44.9865 190.469 44.0788 190.489 43.0922L187.124 43.0249C187.119 43.2772 187.048 43.4722 186.895 43.6656L189.529 45.7595ZM190.489 43.0227C190.468 42.0595 190.138 41.1752 189.508 40.4396L186.953 42.6296C187.066 42.7613 187.12 42.8928 187.124 43.0943L190.489 43.0227ZM189.541 40.4791C188.933 39.7248 188.05 39.1919 187.095 38.7927L185.797 41.8976C186.503 42.1923 186.809 42.4523 186.92 42.5901L189.541 40.4791ZM187.115 38.8011C186.145 38.3812 184.906 38.019 183.443 37.6981L182.722 40.9851C184.083 41.2837 185.088 41.5905 185.778 41.8893L187.115 38.8011ZM183.437 37.6969L179.646 36.8792L178.936 40.1686L182.728 40.9863L183.437 37.6969ZM179.648 36.8796C176.468 36.1898 174.1 35.0675 172.429 33.599L170.208 36.1265C172.427 38.0776 175.374 39.3959 178.935 40.1682L179.648 36.8796ZM172.438 33.6065C170.92 32.2545 170.11 30.3968 170.12 27.8262L166.755 27.8122C166.741 31.1887 167.851 34.0266 170.199 36.119L172.438 33.6065ZM170.12 27.8106C170.11 25.7184 170.661 23.9599 171.737 22.4642L169.005 20.4995C167.478 22.6217 166.741 25.088 166.755 27.8278L170.12 27.8106ZM171.735 22.466C172.851 20.9182 174.414 19.6778 176.492 18.7669L175.14 15.6851C172.584 16.8061 170.516 18.4029 169.006 20.4978L171.735 22.466ZM176.489 18.7682C178.57 17.8603 181.004 17.3846 183.826 17.3846V14.0195C180.626 14.0195 177.72 14.5598 175.143 15.6838L176.489 18.7682ZM183.826 17.3846C186.714 17.3846 189.122 17.8682 191.097 18.774L192.5 15.7152C189.99 14.5643 187.083 14.0195 183.826 14.0195V17.3846ZM191.097 18.774C193.082 19.6839 194.55 20.9341 195.572 22.5094L198.395 20.6774C196.989 18.5109 195.001 16.8619 192.5 15.7152L191.097 18.774ZM195.579 22.5202C196.605 24.0744 197.149 25.9213 197.16 28.1249L200.525 28.1082C200.511 25.3312 199.815 22.8292 198.388 20.6666L195.579 22.5202ZM198.842 26.434H188.955V29.7991H198.842V26.434ZM202.252 24.5483H200.57V26.2309H202.252V24.5483ZM202.252 16.2224V14.5399H200.57V16.2224H202.252ZM235.333 16.2224H237.015V14.5399H235.333V16.2224ZM235.333 24.5483V26.2309H237.015V24.5483H235.333ZM223.885 24.5483V22.8658H222.202V24.5483H223.885ZM223.885 54.2836V55.9661H225.567V54.2836H223.885ZM213.7 54.2836H212.018V55.9661H213.7V54.2836ZM213.7 24.5483H215.383V22.8658H213.7V24.5483ZM203.935 24.5483V16.2224H200.57V24.5483H203.935ZM202.252 17.905H235.333V14.5399H202.252V17.905ZM233.65 16.2224V24.5483H237.015V16.2224H233.65ZM235.333 22.8658L223.885 22.8658V26.2309L235.333 26.2309V22.8658ZM222.202 24.5483V54.2836H225.567V24.5483H222.202ZM223.885 52.601H213.7V55.9661H223.885V52.601ZM215.383 54.2836V24.5483H212.018V54.2836H215.383ZM213.7 22.8658H202.252V26.2309H213.7V22.8658ZM261.746 16.2224V14.5399H260.064V16.2224H261.746ZM272.079 16.2224H273.762V14.5399H272.079V16.2224ZM269.998 48.1321L268.59 47.2102L268.589 47.2122L269.998 48.1321ZM264.236 53.0198L264.943 54.5471L264.949 54.5441L264.236 53.0198ZM247.027 53.0198L246.315 54.5441L246.321 54.5471L247.027 53.0198ZM241.266 48.1321L239.851 49.0424L239.857 49.052L241.266 48.1321ZM239.222 16.2224V14.5399H237.539V16.2224H239.222ZM249.555 16.2224H251.237V14.5399H249.555V16.2224ZM250.335 42.8727L248.867 43.6948L248.872 43.7032L250.335 42.8727ZM252.491 45.0285L251.66 46.4918L251.669 46.4965L252.491 45.0285ZM258.81 45.0285L259.64 46.4918L259.64 46.4918L258.81 45.0285ZM260.966 42.8727L262.429 43.7032L262.434 43.6948L260.966 42.8727ZM261.746 17.905H272.079V14.5399H261.746V17.905ZM270.397 16.2224V40.6054H273.762V16.2224H270.397ZM270.397 40.6054C270.397 43.2257 269.773 45.4036 268.59 47.2102L271.405 49.054C272.997 46.6233 273.762 43.7833 273.762 40.6054H270.397ZM268.589 47.2122C267.399 49.0346 265.73 50.4647 263.524 51.4955L264.949 54.5441C267.674 53.2705 269.846 51.4421 271.406 49.052L268.589 47.2122ZM263.53 51.4926C261.326 52.5118 258.713 53.047 255.65 53.047V56.4121C259.105 56.4121 262.216 55.8076 264.943 54.5471L263.53 51.4926ZM255.65 53.047C252.561 53.047 249.936 52.511 247.733 51.4926L246.321 54.5471C249.049 55.8083 252.173 56.4121 255.65 56.4121V53.047ZM247.74 51.4955C245.534 50.4647 243.865 49.0346 242.675 47.2122L239.857 49.052C241.418 51.4421 243.59 53.2705 246.315 54.5441L247.74 51.4955ZM242.681 47.2218C241.518 45.4138 240.904 43.2316 240.904 40.6054H237.539C237.539 43.7775 238.288 46.6131 239.851 49.0424L242.681 47.2218ZM240.904 40.6054V16.2224H237.539V40.6054H240.904ZM239.222 17.905H249.555V14.5399H239.222V17.905ZM247.872 16.2224V39.7133H251.237V16.2224H247.872ZM247.872 39.7133C247.872 41.1472 248.192 42.4887 248.867 43.6948L251.803 42.0506C251.438 41.3982 251.237 40.6334 251.237 39.7133H247.872ZM248.872 43.7032C249.542 44.8842 250.479 45.8215 251.661 46.4918L253.322 43.5652C252.669 43.1948 252.169 42.6948 251.799 42.0421L248.872 43.7032ZM251.669 46.4965C252.875 47.1719 254.216 47.4916 255.65 47.4916V44.1265C254.73 44.1265 253.965 43.9257 253.313 43.5604L251.669 46.4965ZM255.65 47.4916C257.093 47.4916 258.439 47.1735 259.64 46.4918L257.979 43.5652C257.347 43.9242 256.587 44.1265 255.65 44.1265V47.4916ZM259.64 46.4918C260.821 45.8215 261.759 44.8842 262.429 43.7032L259.502 42.0421C259.132 42.6948 258.632 43.1948 257.979 43.5652L259.64 46.4918ZM262.434 43.6948C263.109 42.4887 263.429 41.1472 263.429 39.7133H260.064C260.064 40.6334 259.863 41.3982 259.498 42.0506L262.434 43.6948ZM263.429 39.7133V16.2224H260.064V39.7133H263.429ZM276.99 54.2836H275.308V55.9661H276.99V54.2836ZM276.99 16.2224V14.5399H275.308V16.2224H276.99ZM300.797 17.3933L300.177 18.9575L300.18 18.9588L300.797 17.3933ZM305.276 20.7013L303.9 21.6702L303.906 21.6781L305.276 20.7013ZM305.87 29.5661L304.388 28.7694L304.382 28.7818L305.87 29.5661ZM303.306 32.4653L304.268 33.8459L304.278 33.8386L303.306 32.4653ZM299.44 34.0636L299.108 32.4143L297.758 32.6865V34.0636H299.44ZM299.44 34.4353H297.758V36.0553L299.377 36.1166L299.44 34.4353ZM303.9 35.6805L303.063 37.1397L303.073 37.1455L303.9 35.6805ZM307.097 38.8212L305.65 39.679L305.653 39.6849L307.097 38.8212ZM306.651 49.0613L305.254 48.1231L305.249 48.1305L306.651 49.0613ZM302.042 52.8897L301.332 51.3645L301.332 51.3645L302.042 52.8897ZM287.323 46.032H285.641V47.7146H287.323V46.032ZM296.058 45.0656L297.061 46.4163L297.067 46.4117L297.073 46.4071L296.058 45.0656ZM294.998 38.4867L294.329 40.0306L294.339 40.0345L294.998 38.4867ZM287.323 38.0035V36.321H285.641V38.0035H287.323ZM287.323 31.6104H285.641V33.293H287.323V31.6104ZM293.958 31.183L294.597 32.7394L294.597 32.7394L293.958 31.183ZM295.575 29.9564L294.214 28.9668L294.21 28.9725L295.575 29.9564ZM294.906 25.2731L293.896 26.6192L293.902 26.6239L293.909 26.6287L294.906 25.2731ZM287.323 24.3253V22.6427H285.641V24.3253H287.323ZM278.673 54.2836V16.2224H275.308V54.2836H278.673ZM276.99 17.905H293.493V14.5399H276.99V17.905ZM293.493 17.905C296.253 17.905 298.463 18.2781 300.177 18.9575L301.417 15.829C299.191 14.9473 296.532 14.5399 293.493 14.5399V17.905ZM300.18 18.9588C301.925 19.6459 303.124 20.5687 303.9 21.6702L306.651 19.7324C305.42 17.9843 303.633 16.7017 301.413 15.8277L300.18 18.9588ZM303.906 21.6781C304.697 22.7881 305.117 24.1168 305.117 25.7377H308.482C308.482 23.4931 307.886 21.4642 306.646 19.7245L303.906 21.6781ZM305.117 25.7377C305.117 26.8798 304.867 27.8792 304.389 28.7694L307.352 30.3629C308.113 28.9486 308.482 27.3958 308.482 25.7377H305.117ZM304.382 28.7818C303.903 29.691 303.229 30.4585 302.334 31.092L304.278 33.8386C305.588 32.911 306.624 31.7458 307.359 30.3504L304.382 28.7818ZM302.344 31.0847C301.452 31.7063 300.383 32.157 299.108 32.4143L299.773 35.7129C301.446 35.3755 302.954 34.7607 304.268 33.8459L302.344 31.0847ZM297.758 34.0636V34.4353H301.123V34.0636H297.758ZM299.377 36.1166C300.757 36.1689 301.975 36.5153 303.063 37.1396L304.738 34.2213C303.15 33.3093 301.394 32.8256 299.504 32.7539L299.377 36.1166ZM303.073 37.1455C304.152 37.7547 305.005 38.5909 305.65 39.679L308.545 37.9635C307.603 36.3754 306.325 35.1177 304.728 34.2154L303.073 37.1455ZM305.653 39.6849C306.266 40.7096 306.604 41.9619 306.604 43.5045H309.969C309.969 41.4541 309.514 39.5843 308.541 37.9576L305.653 39.6849ZM306.604 43.5045C306.604 45.2745 306.146 46.7957 305.254 48.1231L308.048 49.9995C309.337 48.0808 309.969 45.8975 309.969 43.5045H306.604ZM305.249 48.1305C304.364 49.4634 303.083 50.5487 301.332 51.3645L302.753 54.4149C304.991 53.3723 306.782 51.9053 308.053 49.9922L305.249 48.1305ZM301.332 51.3645C299.609 52.1672 297.484 52.601 294.906 52.601V55.9661C297.853 55.9661 300.486 55.4708 302.753 54.4149L301.332 51.3645ZM294.906 52.601H276.99V55.9661H294.906V52.601ZM287.323 47.7146H292.155V44.3495H287.323V47.7146ZM292.155 47.7146C294.049 47.7146 295.775 47.3716 297.061 46.4163L295.054 43.715C294.606 44.0483 293.73 44.3495 292.155 44.3495V47.7146ZM297.073 46.4071C298.437 45.3749 299.041 43.8664 299.041 42.1665H295.676C295.676 43.0188 295.413 43.4431 295.042 43.7242L297.073 46.4071ZM299.041 42.1665C299.041 41.0123 298.774 39.9181 298.15 38.9723L295.341 40.826C295.535 41.1191 295.676 41.5365 295.676 42.1665H299.041ZM298.15 38.9723C297.54 38.0482 296.684 37.3761 295.658 36.9389L294.339 40.0345C294.825 40.2416 295.133 40.5111 295.341 40.826L298.15 38.9723ZM295.667 36.9429C294.66 36.5062 293.521 36.321 292.304 36.321V39.6861C293.193 39.6861 293.85 39.8229 294.33 40.0305L295.667 36.9429ZM292.304 36.321H287.323V39.6861H292.304V36.321ZM285.641 38.0035V46.032H289.006V38.0035H285.641ZM287.323 33.293H291.56V29.9279H287.323V33.293ZM291.56 33.293C292.64 33.293 293.663 33.1229 294.597 32.7394L293.319 29.6266C292.865 29.813 292.29 29.9279 291.56 29.9279V33.293ZM294.597 32.7394C295.539 32.3524 296.347 31.7626 296.939 30.9404L294.21 28.9725C294.034 29.2158 293.764 29.4436 293.319 29.6266L294.597 32.7394ZM296.935 30.946C297.573 30.0696 297.852 29.0458 297.852 27.9679H294.487C294.487 28.451 294.369 28.753 294.214 28.9668L296.935 30.946ZM297.852 27.9679C297.852 26.3329 297.235 24.8973 295.902 23.9176L293.909 26.6287C294.261 26.8879 294.487 27.2487 294.487 27.9679H297.852ZM295.915 23.9271C294.721 23.0316 293.278 22.6427 291.709 22.6427V26.0079C292.717 26.0079 293.405 26.2508 293.896 26.6192L295.915 23.9271ZM291.709 22.6427H287.323V26.0079H291.709V22.6427ZM285.641 24.3253V31.6104H289.006V24.3253H285.641ZM311.948 54.2836H310.265V55.9661H311.948V54.2836ZM311.948 16.2224V14.5399H310.265V16.2224H311.948ZM339.378 16.2224H341.061V14.5399H339.378V16.2224ZM339.378 24.5483V26.2309H341.061V24.5483H339.378ZM322.281 24.5483V22.8658H320.598V24.5483H322.281ZM322.281 31.0901H320.598V32.7726H322.281V31.0901ZM337.966 31.0901H339.649V29.4075H337.966V31.0901ZM337.966 39.4159V41.0985H339.649V39.4159H337.966ZM322.281 39.4159V37.7334H320.598V39.4159H322.281ZM322.281 45.9577H320.598V47.6402H322.281V45.9577ZM339.304 45.9577H340.987V44.2751H339.304V45.9577ZM339.304 54.2836V55.9661H340.987V54.2836H339.304ZM313.63 54.2836V16.2224H310.265V54.2836H313.63ZM311.948 17.905L339.378 17.905V14.5399L311.948 14.5399V17.905ZM337.696 16.2224V24.5483H341.061V16.2224H337.696ZM339.378 22.8658H322.281V26.2309H339.378V22.8658ZM320.598 24.5483V31.0901H323.963V24.5483H320.598ZM322.281 32.7726H337.966V29.4075H322.281V32.7726ZM336.283 31.0901V39.4159H339.649V31.0901H336.283ZM337.966 37.7334H322.281V41.0985H337.966V37.7334ZM320.598 39.4159V45.9577H323.963V39.4159H320.598ZM322.281 47.6402H339.304V44.2751H322.281V47.6402ZM337.621 45.9577V54.2836H340.987V45.9577H337.621ZM339.304 52.601H311.948V55.9661H339.304V52.601Z" fill="#172853" mask="url(#path-4-outside-2_2579_714)"/>
</svg>
